<?xml version="1.0" encoding="UTF-8" standalone="no"?>
<svg
   xmlns:dc="http://purl.org/dc/elements/1.1/"
   xmlns:cc="http://creativecommons.org/ns#"
   xmlns:rdf="http://www.w3.org/1999/02/22-rdf-syntax-ns#"
   xmlns:svg="http://www.w3.org/2000/svg"
   xmlns="http://www.w3.org/2000/svg"
   xmlns:sodipodi="http://sodipodi.sourceforge.net/DTD/sodipodi-0.dtd"
   xmlns:inkscape="http://www.inkscape.org/namespaces/inkscape"
   width="111.8"
   height="43.199383"
   id="svg2"
   version="1.1"
   inkscape:version="1.0.2 (e86c870879, 2021-01-15)"
   sodipodi:docname="contextual-logo.ink.svg"
   viewBox="0 0 104.8125 40.49942">
  <defs
     id="defs4" />
  <sodipodi:namedview
     id="base"
     pagecolor="#ffffff"
     bordercolor="#666666"
     borderopacity="1.0"
     inkscape:pageopacity="0.0"
     inkscape:pageshadow="2"
     inkscape:zoom="3.959798"
     inkscape:cx="80.707116"
     inkscape:cy="2.3948456"
     inkscape:document-units="px"
     inkscape:current-layer="layer1"
     showgrid="true"
     inkscape:snap-global="false"
     fit-margin-top="0"
     fit-margin-left="0"
     fit-margin-right="0"
     fit-margin-bottom="0"
     inkscape:window-width="1920"
     inkscape:window-height="1016"
     inkscape:window-x="0"
     inkscape:window-y="0"
     inkscape:window-maximized="1"
     inkscape:document-rotation="0">
    <inkscape:grid
       type="xygrid"
       id="grid3031"
       units="pt"
       empspacing="5"
       visible="true"
       enabled="true"
       snapvisiblegridlinesonly="true"
       originx="-178.03125"
       originy="-611.64342"
       spacingx="18"
       spacingy="17.999999" />
  </sodipodi:namedview>
  <metadata
     id="metadata7">
    <rdf:RDF>
      <cc:Work
         rdf:about="">
        <dc:format>image/svg+xml</dc:format>
        <dc:type
           rdf:resource="http://purl.org/dc/dcmitype/StillImage" />
        <dc:title />
      </cc:Work>
    </rdf:RDF>
  </metadata>
  <g
     inkscape:label="Layer 1"
     inkscape:groupmode="layer"
     id="layer1"
     transform="translate(-178.03125,-400.21933)">
    <path
       inkscape:connector-curvature="0"
       id="path3010"
       style="font-style:normal;font-variant:normal;font-weight:normal;font-stretch:normal;font-size:32px;line-height:125%;font-family:'Gentium Basic';-inkscape-font-specification:'Gentium Basic';text-align:start;letter-spacing:0px;word-spacing:0px;writing-mode:lr-tb;text-anchor:start;fill:#000000;fill-opacity:1;stroke:none"
       d="m 193.125,417.25058 c -0.6771,0.80209 -1.27605,1.43229 -1.79688,1.89062 -0.51042,0.44792 -0.98438,0.79167 -1.42187,1.03125 -0.43751,0.22917 -0.86459,0.3698 -1.28125,0.42188 -0.41667,0.0625 -0.8698,0.0937 -1.35938,0.0937 -0.76042,0 -1.50521,-0.16667 -2.23437,-0.5 -0.71875,-0.34375 -1.35938,-0.83333 -1.92188,-1.46875 -0.5625,-0.63541 -1.01562,-1.41146 -1.35937,-2.32813 -0.33333,-0.91666 -0.5,-1.95311 -0.5,-3.10937 0,-1.12499 0.20312,-2.17707 0.60937,-3.15625 0.41667,-0.97916 0.97917,-1.82811 1.6875,-2.54688 0.71875,-0.72915 1.5625,-1.30206 2.53125,-1.71875 0.96875,-0.42706 2.01562,-0.64061 3.14063,-0.64062 0.34374,10e-6 0.6927,0.0313 1.04687,0.0937 0.36458,0.0521 0.70833,0.13543 1.03125,0.25 0.33333,0.10418 0.63541,0.23439 0.90625,0.39062 0.28124,0.14585 0.51041,0.31252 0.6875,0.5 0.0208,0.12502 0.005,0.3021 -0.0469,0.53125 -0.0521,0.22918 -0.12501,0.47398 -0.21875,0.73438 -0.0938,0.25001 -0.19793,0.4948 -0.3125,0.73437 -0.1146,0.22918 -0.21876,0.41668 -0.3125,0.5625 l -0.57813,-0.15625 c -0.0833,-0.18748 -0.21876,-0.39061 -0.40625,-0.60937 -0.18751,-0.21874 -0.4323,-0.42707 -0.73437,-0.625 -0.29168,-0.1979 -0.64584,-0.35936 -1.0625,-0.48438 -0.40626,-0.1354 -0.87501,-0.20311 -1.40625,-0.20312 -0.55209,1e-5 -1.08334,0.12501 -1.59375,0.375 -0.50001,0.2396 -0.94792,0.60418 -1.34375,1.09375 -0.38542,0.48959 -0.69792,1.09897 -0.9375,1.82812 -0.22917,0.72918 -0.34375,1.58335 -0.34375,2.5625 0,0.88543 0.1302,1.69272 0.39062,2.42188 0.27083,0.71875 0.625,1.33334 1.0625,1.84375 0.44792,0.51042 0.95833,0.90625 1.53125,1.1875 0.58333,0.27083 1.1875,0.40625 1.8125,0.40625 0.29166,0 0.5625,-0.0104 0.8125,-0.0312 0.25,-0.0312 0.52083,-0.11458 0.8125,-0.25 0.30208,-0.13541 0.64583,-0.33854 1.03125,-0.60938 0.39583,-0.27083 0.88541,-0.65624 1.46875,-1.15625 l 0.60938,0.64063" />
    <path
       inkscape:connector-curvature="0"
       id="path3012"
       style="font-style:normal;font-variant:normal;font-weight:normal;font-stretch:normal;font-size:32px;line-height:125%;font-family:'Gentium Basic';-inkscape-font-specification:'Gentium Basic';text-align:start;letter-spacing:0px;word-spacing:0px;writing-mode:lr-tb;text-anchor:start;fill:#000000;fill-opacity:1;stroke:none"
       d="m 206.42187,413.10995 c -1e-5,-0.8229 -0.13542,-1.60415 -0.40625,-2.34375 -0.27084,-0.74998 -0.6198,-1.40623 -1.04687,-1.96875 -0.42709,-0.5729 -0.91147,-1.02602 -1.45313,-1.35937 -0.54167,-0.33332 -1.07813,-0.49999 -1.60937,-0.5 -0.79167,10e-6 -1.45834,0.15105 -2,0.45312 -0.54167,0.3021 -0.97917,0.71877 -1.3125,1.25 -0.32292,0.52085 -0.5573,1.14064 -0.70313,1.85938 -0.14583,0.71876 -0.21875,1.4948 -0.21875,2.32812 0,0.82293 0.14583,1.60939 0.4375,2.35938 0.29167,0.73959 0.65625,1.39063 1.09375,1.95312 0.44792,0.56251 0.9375,1.01042 1.46875,1.34375 0.53125,0.32292 1.03646,0.48438 1.51563,0.48438 0.73957,0 1.37499,-0.13542 1.90625,-0.40625 0.53124,-0.28125 0.96874,-0.67708 1.3125,-1.1875 0.34374,-0.51041 0.59895,-1.125 0.76562,-1.84375 0.16666,-0.71874 0.24999,-1.52604 0.25,-2.42188 m 2.42188,-0.46875 c -1e-5,0.69793 -0.0886,1.38022 -0.26563,2.04688 -0.17709,0.66667 -0.42188,1.29688 -0.73437,1.89062 -0.31251,0.59376 -0.68751,1.14584 -1.125,1.65625 -0.43751,0.50001 -0.92189,0.9323 -1.45313,1.29688 -0.52084,0.36458 -1.07813,0.64583 -1.67187,0.84375 -0.59376,0.20833 -1.20834,0.3125 -1.84375,0.3125 -0.98959,0 -1.88542,-0.1875 -2.6875,-0.5625 -0.79167,-0.375 -1.47396,-0.89062 -2.04688,-1.54688 -0.5625,-0.65624 -1,-1.43749 -1.3125,-2.34375 -0.30208,-0.90624 -0.45312,-1.89061 -0.45312,-2.95312 0,-0.68749 0.0833,-1.36458 0.25,-2.03125 0.17708,-0.66666 0.41666,-1.29686 0.71875,-1.89063 0.3125,-0.60415 0.68229,-1.15623 1.10937,-1.65625 0.4375,-0.5104 0.91667,-0.9479 1.4375,-1.3125 0.53125,-0.36456 1.09896,-0.65102 1.70313,-0.85937 0.61458,-0.20832 1.24478,-0.31249 1.89062,-0.3125 0.97916,10e-6 1.86458,0.18751 2.65625,0.5625 0.80208,0.37501 1.48437,0.89585 2.04688,1.5625 0.5729,0.65626 1.0104,1.43751 1.3125,2.34375 0.31249,0.90626 0.46874,1.89063 0.46875,2.95312" />
    <path
       inkscape:connector-curvature="0"
       id="path3014"
       style="font-style:normal;font-variant:normal;font-weight:normal;font-stretch:normal;font-size:32px;line-height:125%;font-family:'Gentium Basic';-inkscape-font-specification:'Gentium Basic';text-align:start;letter-spacing:0px;word-spacing:0px;writing-mode:lr-tb;text-anchor:start;fill:#000000;fill-opacity:1;stroke:none"
       d="m 220.59375,420.21933 v -0.67188 c 0.74999,-0.19791 1.30207,-0.36979 1.65625,-0.51562 0.35415,-0.14583 0.53124,-0.29167 0.53125,-0.4375 v -8.26563 c -1e-5,-0.6354 -0.0365,-1.15103 -0.10938,-1.54687 -0.0729,-0.39582 -0.18751,-0.70832 -0.34375,-0.9375 -0.15626,-0.22915 -0.36459,-0.3854 -0.625,-0.46875 -0.25001,-0.0833 -0.5573,-0.12499 -0.92187,-0.125 -0.32293,10e-6 -0.6823,0.0781 -1.07813,0.23437 -0.39584,0.15627 -0.82292,0.40627 -1.28125,0.75 -0.44792,0.34377 -0.92188,0.79689 -1.42187,1.35938 -0.48959,0.55209 -0.98438,1.23438 -1.48438,2.04687 v 6.95313 c 0,0.15625 0.19271,0.31771 0.57813,0.48437 0.39583,0.16667 0.93228,0.32292 1.60937,0.46875 v 0.67188 h -6.71875 v -0.67188 c 0.6875,-0.17708 1.22396,-0.33333 1.60938,-0.46875 0.38541,-0.14583 0.57812,-0.30729 0.57812,-0.48437 v -9.48438 c 0,-0.40623 -0.0156,-0.72915 -0.0469,-0.96875 -0.0312,-0.23957 -0.11979,-0.42707 -0.26563,-0.5625 -0.13541,-0.1354 -0.34896,-0.23436 -0.64062,-0.29687 -0.29167,-0.0625 -0.70313,-0.12499 -1.23438,-0.1875 v -0.625 c 0.70834,-0.11457 1.36459,-0.27603 1.96875,-0.48438 0.60417,-0.21873 1.19792,-0.47394 1.78125,-0.76562 l 0.54688,0.54687 0.17187,3.89063 c 0.45833,-0.69791 0.96354,-1.3177 1.51563,-1.85938 0.55208,-0.55207 1.10937,-1.01561 1.67187,-1.39062 0.5625,-0.3854 1.10416,-0.67707 1.625,-0.875 0.53124,-0.20832 0.99999,-0.31249 1.40625,-0.3125 0.44791,10e-6 0.8802,0.0677 1.29688,0.20312 0.41665,0.13544 0.78124,0.34377 1.09375,0.625 0.3229,0.28127 0.57811,0.64064 0.76562,1.07813 0.19791,0.4271 0.29686,0.9323 0.29688,1.51562 v 9.95313 c -2e-5,0.14583 0.15623,0.29167 0.46875,0.4375 0.3229,0.13542 0.89582,0.30729 1.71875,0.51562 v 0.67188 h -6.71875" />
    <path
       inkscape:connector-curvature="0"
       id="path3016"
       style="font-style:normal;font-variant:normal;font-weight:normal;font-stretch:normal;font-size:32px;line-height:125%;font-family:'Gentium Basic';-inkscape-font-specification:'Gentium Basic';text-align:start;letter-spacing:0px;word-spacing:0px;writing-mode:lr-tb;text-anchor:start;fill:#000000;fill-opacity:1;stroke:none"
       d="m 238.375,418.3912 c -0.51043,0.37501 -1.01563,0.70834 -1.51563,1 -0.5,0.28126 -0.97917,0.52084 -1.4375,0.71875 -0.44792,0.1875 -0.86459,0.32813 -1.25,0.42188 -0.38542,0.10417 -0.71354,0.15625 -0.98437,0.15625 -0.36459,0 -0.71355,-0.0677 -1.04688,-0.20313 -0.32292,-0.13541 -0.60937,-0.35416 -0.85937,-0.65625 -0.25,-0.31249 -0.44792,-0.71874 -0.59375,-1.21875 -0.14584,-0.49999 -0.21875,-1.11458 -0.21875,-1.84375 v -9.59375 h -2.01563 l -0.32812,-0.4375 1.21875,-1.04687 h 1.125 v -3.84375 l 1.85937,-1.625 0.48438,0.39062 v 5.07813 h 5.10937 l 0.45313,0.45312 c -0.0938,0.14585 -0.21355,0.3021 -0.35938,0.46875 -0.13542,0.16668 -0.27605,0.32293 -0.42187,0.46875 -0.14584,0.14585 -0.29168,0.28127 -0.4375,0.40625 -0.13543,0.1146 -0.25522,0.19273 -0.35938,0.23438 -0.25,-0.12499 -0.63021,-0.24478 -1.14062,-0.35938 -0.51042,-0.12498 -1.18751,-0.18748 -2.03125,-0.1875 h -0.8125 v 8.25 c 0,0.62501 0.026,1.14584 0.0781,1.5625 0.0625,0.41667 0.16146,0.75001 0.29688,1 0.13541,0.23959 0.30729,0.41146 0.51562,0.51563 0.21875,0.10417 0.48437,0.15625 0.79688,0.15625 0.36458,0 0.82291,-0.0729 1.375,-0.21875 0.55207,-0.14583 1.23437,-0.42708 2.04687,-0.84375 l 0.45313,0.79687" />
    <path
       inkscape:connector-curvature="0"
       id="path3018"
       style="font-style:normal;font-variant:normal;font-weight:normal;font-stretch:normal;font-size:32px;line-height:125%;font-family:'Gentium Basic';-inkscape-font-specification:'Gentium Basic';text-align:start;letter-spacing:0px;word-spacing:0px;writing-mode:lr-tb;text-anchor:start;fill:#000000;fill-opacity:1;stroke:none"
       d="m 246.5625,406.85995 c -0.54167,2e-5 -1.04167,0.10418 -1.5,0.3125 -0.44792,0.20835 -0.84896,0.50523 -1.20313,0.89063 -0.34375,0.37501 -0.63542,0.82814 -0.875,1.35937 -0.22917,0.52085 -0.39062,1.09897 -0.48437,1.73438 h 6.6875 c 0.23957,10e-6 0.39582,-0.0365 0.46875,-0.10938 0.0833,-0.0833 0.12499,-0.23436 0.125,-0.45312 -1e-5,-0.28124 -0.0417,-0.6302 -0.125,-1.04688 -0.0729,-0.42707 -0.22918,-0.83853 -0.46875,-1.23437 -0.22918,-0.40624 -0.5573,-0.74999 -0.98438,-1.03125 -0.41667,-0.28124 -0.96355,-0.42186 -1.64062,-0.42188 m 5.78125,4.65625 c -0.18751,0.20835 -0.43751,0.40105 -0.75,0.57813 -0.31251,0.17709 -0.63543,0.33334 -0.96875,0.46875 h -8.21875 c 0.0104,0.81251 0.11979,1.58855 0.32812,2.32812 0.21875,0.72918 0.52604,1.37501 0.92188,1.9375 0.40624,0.55209 0.89062,0.9948 1.45312,1.32813 0.57291,0.33333 1.21354,0.5 1.92188,0.5 0.32291,0 0.63541,-0.0208 0.9375,-0.0625 0.31249,-0.0417 0.64582,-0.13542 1,-0.28125 0.35416,-0.14583 0.74478,-0.35937 1.17187,-0.64063 0.43749,-0.28124 0.94791,-0.66145 1.53125,-1.14062 0.13541,0.0729 0.24999,0.17709 0.34375,0.3125 0.10416,0.13542 0.18228,0.24479 0.23438,0.32812 -0.69793,0.76042 -1.31251,1.37501 -1.84375,1.84375 -0.52084,0.45834 -1.01564,0.81251 -1.48438,1.0625 -0.45834,0.25 -0.91667,0.41146 -1.375,0.48438 -0.44792,0.0833 -0.9375,0.125 -1.46875,0.125 -0.80208,0 -1.56771,-0.17188 -2.29687,-0.51563 -0.71875,-0.34374 -1.35417,-0.82812 -1.90625,-1.45312 -0.55209,-0.63541 -0.99479,-1.39583 -1.32813,-2.28125 -0.32291,-0.89583 -0.48437,-1.89583 -0.48437,-3 0,-0.69791 0.0781,-1.38541 0.23437,-2.0625 0.15625,-0.67707 0.38021,-1.3177 0.67188,-1.92188 0.30208,-0.60415 0.66666,-1.16144 1.09375,-1.67187 0.42708,-0.5104 0.91145,-0.95311 1.45312,-1.32813 0.22917,-0.15623 0.48437,-0.30727 0.76563,-0.45312 0.29166,-0.15624 0.59374,-0.29165 0.90625,-0.40625 0.31249,-0.11457 0.61978,-0.20311 0.92187,-0.26563 0.3125,-0.0729 0.60937,-0.10936 0.89063,-0.10937 0.67707,10e-6 1.28124,0.0938 1.8125,0.28125 0.53124,0.18751 0.99478,0.44272 1.39062,0.76562 0.39583,0.31252 0.72916,0.68231 1,1.10938 0.27083,0.41668 0.48958,0.85939 0.65625,1.32812 0.17708,0.46877 0.30207,0.94793 0.375,1.4375 0.0729,0.47918 0.10937,0.93751 0.10938,1.375" />
    <path
       inkscape:connector-curvature="0"
       id="path3020"
       style="font-style:normal;font-variant:normal;font-weight:normal;font-stretch:normal;font-size:32px;line-height:125%;font-family:'Gentium Basic';-inkscape-font-specification:'Gentium Basic';text-align:start;letter-spacing:0px;word-spacing:0px;writing-mode:lr-tb;text-anchor:start;fill:#000000;fill-opacity:1;stroke:none"
       d="m 263.21875,420.21933 v -0.67188 c 0.26041,-0.0208 0.5052,-0.0521 0.73437,-0.0937 0.22916,-0.0417 0.40624,-0.10937 0.53125,-0.20312 0.13541,-0.0937 0.20312,-0.22396 0.20313,-0.39063 -10e-6,-0.17708 -0.10418,-0.40624 -0.3125,-0.6875 l -3.09375,-4.20312 -2.95313,4.20312 c -0.19792,0.28126 -0.27604,0.51042 -0.23437,0.6875 0.0417,0.16667 0.15104,0.29688 0.32812,0.39063 0.17708,0.0937 0.39583,0.16146 0.65625,0.20312 0.27083,0.0417 0.53125,0.0729 0.78125,0.0937 v 0.67188 h -5.92187 v -0.67188 c 0.41667,-0.0625 0.77083,-0.14062 1.0625,-0.23437 0.29166,-0.10417 0.53646,-0.21875 0.73437,-0.34375 0.20834,-0.13542 0.38021,-0.27604 0.51563,-0.42188 0.14583,-0.15624 0.27604,-0.31249 0.39062,-0.46875 l 3.79688,-5.28125 -3.67188,-5.03125 c -0.13541,-0.18748 -0.27083,-0.35936 -0.40625,-0.51562 -0.13541,-0.16665 -0.30208,-0.30728 -0.5,-0.42188 -0.1875,-0.12498 -0.42187,-0.22394 -0.70312,-0.29687 -0.28125,-0.0833 -0.63021,-0.14061 -1.04688,-0.17188 v -0.67187 h 6.5625 v 0.67187 c -0.32292,0.0313 -0.60417,0.0781 -0.84375,0.14063 -0.22917,0.0521 -0.40625,0.13022 -0.53125,0.23437 -0.11458,0.0938 -0.16667,0.22398 -0.15625,0.39063 0.0208,0.15626 0.125,0.35939 0.3125,0.60937 l 2.51563,3.46875 2.40625,-3.46875 c 0.18749,-0.24998 0.29166,-0.45832 0.3125,-0.625 0.0208,-0.16665 -0.026,-0.29686 -0.14063,-0.39062 -0.10417,-0.10415 -0.27084,-0.18228 -0.5,-0.23438 -0.22917,-0.0521 -0.50521,-0.0937 -0.82812,-0.125 v -0.67187 h 5.95312 v 0.67187 c -0.84376,0.0625 -1.50001,0.21877 -1.96875,0.46875 -0.45834,0.2396 -0.82292,0.5521 -1.09375,0.9375 l -3.28125,4.60938 L 267,418.0787 c 0.12499,0.15626 0.2604,0.31251 0.40625,0.46875 0.14582,0.14584 0.31249,0.28646 0.5,0.42188 0.1979,0.13542 0.42707,0.25521 0.6875,0.35937 0.2604,0.10417 0.56248,0.17709 0.90625,0.21875 v 0.67188 h -6.28125" />
    <path
       inkscape:connector-curvature="0"
       id="path3022"
       style="font-style:normal;font-variant:normal;font-weight:normal;font-stretch:normal;font-size:32px;line-height:125%;font-family:'Gentium Basic';-inkscape-font-specification:'Gentium Basic';text-align:start;letter-spacing:0px;word-spacing:0px;writing-mode:lr-tb;text-anchor:start;fill:#000000;fill-opacity:1;stroke:none"
       d="m 280.3125,418.3912 c -0.51043,0.37501 -1.01563,0.70834 -1.51563,1 -0.5,0.28126 -0.97917,0.52084 -1.4375,0.71875 -0.44792,0.1875 -0.86459,0.32813 -1.25,0.42188 -0.38542,0.10417 -0.71354,0.15625 -0.98437,0.15625 -0.36459,0 -0.71355,-0.0677 -1.04688,-0.20313 -0.32292,-0.13541 -0.60937,-0.35416 -0.85937,-0.65625 -0.25,-0.31249 -0.44792,-0.71874 -0.59375,-1.21875 -0.14584,-0.49999 -0.21875,-1.11458 -0.21875,-1.84375 v -9.59375 h -2.01563 l -0.32812,-0.4375 1.21875,-1.04687 h 1.125 v -3.84375 l 1.85937,-1.625 0.48438,0.39062 v 5.07813 h 5.10937 l 0.45313,0.45312 c -0.0938,0.14585 -0.21355,0.3021 -0.35938,0.46875 -0.13542,0.16668 -0.27605,0.32293 -0.42187,0.46875 -0.14584,0.14585 -0.29168,0.28127 -0.4375,0.40625 -0.13543,0.1146 -0.25522,0.19273 -0.35938,0.23438 -0.25,-0.12499 -0.63021,-0.24478 -1.14062,-0.35938 -0.51042,-0.12498 -1.18751,-0.18748 -2.03125,-0.1875 H 274.75 v 8.25 c 0,0.62501 0.026,1.14584 0.0781,1.5625 0.0625,0.41667 0.16146,0.75001 0.29688,1 0.13541,0.23959 0.30729,0.41146 0.51562,0.51563 0.21875,0.10417 0.48437,0.15625 0.79688,0.15625 0.36458,0 0.82291,-0.0729 1.375,-0.21875 0.55207,-0.14583 1.23437,-0.42708 2.04687,-0.84375 l 0.45313,0.79687" />
    <path
       inkscape:connector-curvature="0"
       id="path3000"
       style="font-style:normal;font-variant:normal;font-weight:normal;font-stretch:normal;font-size:32px;line-height:125%;font-family:'Gentium Basic';-inkscape-font-specification:'Gentium Basic';text-align:start;letter-spacing:0px;word-spacing:0px;writing-mode:lr-tb;text-anchor:start;fill:#000000;fill-opacity:1;stroke:none"
       d="m 227.56027,437.36664 c -0.38543,0.25 -0.75522,0.48437 -1.10937,0.70312 -0.35418,0.20834 -0.68231,0.39063 -0.98438,0.54688 -0.3021,0.15625 -0.56772,0.27604 -0.79687,0.35937 -0.22918,0.0937 -0.40627,0.14063 -0.53125,0.14063 -0.3646,0 -0.66147,-0.23959 -0.89063,-0.71875 -0.22918,-0.48958 -0.37501,-1.27083 -0.4375,-2.34375 -0.64584,0.64583 -1.23959,1.17187 -1.78125,1.57812 -0.53126,0.39584 -1.02605,0.70313 -1.48437,0.92188 -0.44793,0.21875 -0.86459,0.36458 -1.25,0.4375 -0.37501,0.0833 -0.72918,0.125 -1.0625,0.125 -0.48959,0 -0.95834,-0.0677 -1.40625,-0.20313 -0.44792,-0.13541 -0.84376,-0.38021 -1.1875,-0.73437 -0.34376,-0.36458 -0.6198,-0.85938 -0.82813,-1.48438 -0.19792,-0.62499 -0.29688,-1.42708 -0.29687,-2.40625 v -6.75 c -1e-5,-0.49999 -0.0156,-0.8854 -0.0469,-1.15625 -0.0312,-0.28123 -0.11458,-0.48957 -0.25,-0.625 -0.125,-0.14582 -0.32292,-0.24478 -0.59375,-0.29687 -0.27083,-0.0521 -0.64583,-0.10416 -1.125,-0.15625 v -0.625 c 0.375,-0.0417 0.72396,-0.0937 1.04688,-0.15625 0.33333,-0.0625 0.65104,-0.1354 0.95312,-0.21875 0.3125,-0.0833 0.625,-0.17707 0.9375,-0.28125 0.3125,-0.11457 0.64062,-0.23957 0.98438,-0.375 l 0.4375,0.60937 v 9.17188 c -1e-5,0.72917 0.0521,1.33854 0.15625,1.82812 0.11458,0.48959 0.27083,0.88021 0.46875,1.17188 0.20832,0.29167 0.45832,0.5 0.75,0.625 0.30207,0.125 0.64062,0.1875 1.01562,0.1875 0.33333,0 0.67187,-0.0469 1.01563,-0.14063 0.35416,-0.10416 0.71353,-0.26041 1.07812,-0.46875 0.37499,-0.21874 0.76562,-0.49479 1.17188,-0.82812 0.40624,-0.34375 0.83853,-0.76041 1.29687,-1.25 v -7.01563 c -1e-5,-0.46874 -0.026,-0.84373 -0.0781,-1.125 -0.0417,-0.28123 -0.14064,-0.49998 -0.29688,-0.65625 -0.15626,-0.15623 -0.38022,-0.26561 -0.67187,-0.32812 -0.28126,-0.0625 -0.66147,-0.10416 -1.14063,-0.125 v -0.625 c 0.74999,-0.0937 1.46874,-0.23957 2.15625,-0.4375 0.68749,-0.1979 1.32291,-0.39582 1.90625,-0.59375 l 0.46875,0.60937 v 10.42188 c -1e-5,0.64583 0.0208,1.17188 0.0625,1.57812 0.0521,0.40626 0.15103,0.66146 0.29688,0.76563 0.12498,0.0833 0.33852,0.10417 0.64062,0.0625 0.30207,-0.0521 0.71874,-0.19271 1.25,-0.42188 l 0.15625,0.70313" />
    <path
       inkscape:connector-curvature="0"
       id="path3002"
       style="font-style:normal;font-variant:normal;font-weight:normal;font-stretch:normal;font-size:32px;line-height:125%;font-family:'Gentium Basic';-inkscape-font-specification:'Gentium Basic';text-align:start;letter-spacing:0px;word-spacing:0px;writing-mode:lr-tb;text-anchor:start;fill:#000000;fill-opacity:1;stroke:none"
       d="m 233.29465,437.08539 c 0.62499,0 1.28645,-0.15625 1.98437,-0.46875 0.70833,-0.32292 1.45833,-0.82812 2.25,-1.51563 v -4.04687 c -0.87501,0.14584 -1.59896,0.28646 -2.17187,0.42187 -0.56251,0.13543 -1.02605,0.27605 -1.39063,0.42188 -0.36459,0.13542 -0.65625,0.28125 -0.875,0.4375 -0.21875,0.15625 -0.41146,0.32292 -0.57812,0.5 -0.27084,0.28125 -0.48959,0.60417 -0.65625,0.96875 -0.16667,0.35417 -0.25001,0.77604 -0.25,1.26562 -1e-5,0.41667 0.0625,0.75521 0.1875,1.01563 0.12499,0.26042 0.27603,0.46875 0.45312,0.625 0.17708,0.14583 0.35937,0.24479 0.54688,0.29687 0.19791,0.0521 0.36458,0.0781 0.5,0.0781 m 8.96875,0.28125 c -0.88543,0.61458 -1.61981,1.05729 -2.20313,1.32812 -0.57293,0.28125 -1.00522,0.42188 -1.29687,0.42188 -0.34376,0 -0.63022,-0.23959 -0.85938,-0.71875 -0.22917,-0.47917 -0.35417,-1.14063 -0.375,-1.98438 -0.46876,0.46875 -0.93751,0.875 -1.40625,1.21875 -0.46876,0.34375 -0.92709,0.625 -1.375,0.84375 -0.44792,0.21875 -0.875,0.38021 -1.28125,0.48438 -0.39584,0.10416 -0.76042,0.15625 -1.09375,0.15625 -0.375,0 -0.76042,-0.0625 -1.15625,-0.1875 -0.39583,-0.125 -0.75521,-0.32292 -1.07812,-0.59375 -0.3125,-0.27083 -0.57292,-0.61979 -0.78125,-1.04688 -0.20834,-0.42708 -0.3125,-0.9427 -0.3125,-1.54687 0,-0.79166 0.13541,-1.45312 0.40625,-1.98438 0.28125,-0.53124 0.61458,-0.98957 1,-1.375 0.24999,-0.24999 0.53124,-0.48437 0.84375,-0.70312 0.32291,-0.22916 0.74478,-0.44791 1.26562,-0.65625 0.53125,-0.20833 1.1927,-0.40624 1.98438,-0.59375 0.79166,-0.18749 1.78645,-0.36978 2.98437,-0.54688 v -2.20312 c -1e-5,-0.35416 -0.0417,-0.68228 -0.125,-0.98438 -0.0833,-0.31248 -0.22397,-0.57811 -0.42187,-0.79687 -0.19793,-0.22916 -0.46876,-0.40103 -0.8125,-0.51563 -0.33334,-0.12498 -0.75522,-0.18228 -1.26563,-0.17187 -0.33334,0.0104 -0.66146,0.0677 -0.98437,0.17187 -0.32293,0.10418 -0.60417,0.25002 -0.84375,0.4375 -0.23959,0.18752 -0.42709,0.41147 -0.5625,0.67188 -0.13542,0.25001 -0.18751,0.53126 -0.15625,0.84375 0.0104,0.0938 -0.099,0.20313 -0.32813,0.32812 -0.21875,0.1146 -0.48438,0.21876 -0.79687,0.3125 -0.30209,0.0938 -0.60417,0.16668 -0.90625,0.21875 -0.29167,0.0521 -0.5,0.0625 -0.625,0.0312 l -0.21875,-0.60937 c 0.23958,-0.52082 0.60416,-1.02082 1.09375,-1.5 0.48958,-0.47916 1.04687,-0.90103 1.67187,-1.26563 0.63541,-0.36457 1.30208,-0.65623 2,-0.875 0.70833,-0.21873 1.39062,-0.32811 2.04688,-0.32812 1.14582,1e-5 2.02603,0.3021 2.64062,0.90625 0.62499,0.59376 0.93749,1.42709 0.9375,2.5 v 8.8125 c -1e-5,0.4375 0.0573,0.75 0.17188,0.9375 0.11457,0.1875 0.26561,0.28125 0.45312,0.28125 0.14582,0 0.33332,-0.026 0.5625,-0.0781 0.22916,-0.0521 0.55207,-0.16666 0.96875,-0.34375 l 0.23438,0.70313" />
    <path
       inkscape:connector-curvature="0"
       id="path3004"
       style="font-style:normal;font-variant:normal;font-weight:normal;font-stretch:normal;font-size:32px;line-height:125%;font-family:'Gentium Basic';-inkscape-font-specification:'Gentium Basic';text-align:start;letter-spacing:0px;word-spacing:0px;writing-mode:lr-tb;text-anchor:start;fill:#000000;fill-opacity:1;stroke:none"
       d="m 243.41965,438.64789 v -0.67188 c 0.44791,-0.0729 0.82291,-0.14583 1.125,-0.21875 0.30208,-0.0833 0.54166,-0.16145 0.71875,-0.23437 0.17708,-0.0833 0.30208,-0.16667 0.375,-0.25 0.0833,-0.0833 0.12499,-0.16667 0.125,-0.25 v -18.625 c -1e-5,-0.46873 -0.0313,-0.83331 -0.0937,-1.09375 -0.0625,-0.2604 -0.17709,-0.45311 -0.34375,-0.57813 -0.16667,-0.13539 -0.39063,-0.22393 -0.67188,-0.26562 -0.28125,-0.0521 -0.64062,-0.10415 -1.07812,-0.15625 v -0.625 c 0.75,-0.14581 1.43749,-0.30727 2.0625,-0.48438 0.62499,-0.17706 1.26041,-0.43226 1.90625,-0.76562 l 0.5625,0.53125 v 22.0625 c -1e-5,0.15625 0.17707,0.31771 0.53125,0.48437 0.35416,0.16667 0.95832,0.32292 1.8125,0.46875 v 0.67188 h -7.03125" />
    <path
       style="fill:none;stroke:#000000;stroke-width:1px;stroke-linecap:butt;stroke-linejoin:miter;stroke-opacity:1"
       d="m 178.54446,402.32902 h 103.79318 v 19.95051 h -29.29443 v 17.93021 h -42.93148 v -17.93021 h -31.56727 z"
       id="path3035"
       inkscape:connector-curvature="0"
       sodipodi:nodetypes="ccccccccc" />
  </g>
</svg>
