<?xml version="1.0" encoding="UTF-8" standalone="no"?>
<svg
   xmlns:dc="http://purl.org/dc/elements/1.1/"
   xmlns:cc="http://creativecommons.org/ns#"
   xmlns:rdf="http://www.w3.org/1999/02/22-rdf-syntax-ns#"
   xmlns:svg="http://www.w3.org/2000/svg"
   xmlns="http://www.w3.org/2000/svg"
   xmlns:sodipodi="http://sodipodi.sourceforge.net/DTD/sodipodi-0.dtd"
   xmlns:inkscape="http://www.inkscape.org/namespaces/inkscape"
   version="1.1"
   id="svg2"
   xml:space="preserve"
   width="285.72055"
   height="119.72267"
   viewBox="0 0 285.72055 119.72267"
   sodipodi:docname="likelihood-tmer.ink.svg"
   inkscape:version="1.0.2 (e86c870879, 2021-01-15)"><metadata
     id="metadata8"><rdf:RDF><cc:Work
         rdf:about=""><dc:format>image/svg+xml</dc:format><dc:type
           rdf:resource="http://purl.org/dc/dcmitype/StillImage" /><dc:title></dc:title></cc:Work></rdf:RDF></metadata><defs
     id="defs6" /><sodipodi:namedview
     pagecolor="#ffffff"
     bordercolor="#666666"
     borderopacity="1"
     objecttolerance="10"
     gridtolerance="10"
     guidetolerance="10"
     inkscape:pageopacity="0"
     inkscape:pageshadow="2"
     inkscape:window-width="1920"
     inkscape:window-height="1016"
     id="namedview4"
     showgrid="false"
     inkscape:zoom="3.1837866"
     inkscape:cx="124.1296"
     inkscape:cy="72.504703"
     inkscape:window-x="0"
     inkscape:window-y="0"
     inkscape:window-maximized="1"
     inkscape:current-layer="g10" /><g
     id="g10"
     inkscape:groupmode="layer"
     inkscape:label="likelihood-tmer"
     transform="matrix(1.3333333,0,0,1.3333333,0,6.3264e-6)"><path
       d="m 13.535,13.84 c -0.328,0 -0.359,0 -0.359,-0.047 -0.047,-0.031 -2.125,-9.641 -2.235,-10 C 10.879,3.605 10.691,3.449 10.488,3.371 10.379,3.324 10.332,3.324 9.848,3.324 c -0.5,0 -0.532,0 -0.657,0.047 -0.203,0.078 -0.375,0.234 -0.437,0.422 -0.109,0.359 -2.188,9.969 -2.234,10 0,0.047 -0.032,0.047 -0.36,0.047 -0.64,0 -0.812,0.14 -0.812,0.719 0,0.406 0.078,0.562 0.359,0.671 0.063,0.047 0.094,0.047 1.594,0.047 h 1.515 c 0.282,-0.125 0.391,-0.265 0.391,-0.718 0,-0.25 0,-0.282 -0.031,-0.36 C 9.02,13.918 8.957,13.871 8.488,13.84 c -0.312,0 -0.312,0 -0.297,-0.047 0,-0.031 0.063,-0.313 0.141,-0.656 l 0.141,-0.594 h 2.75 l 0.14,0.594 c 0.078,0.343 0.141,0.625 0.141,0.656 0.016,0.047 0.016,0.047 -0.297,0.047 -0.469,0.031 -0.531,0.078 -0.687,0.359 -0.032,0.078 -0.032,0.11 -0.032,0.36 0,0.453 0.11,0.625 0.422,0.718 h 1.485 c 1.5,0 1.531,0 1.593,-0.047 0.282,-0.109 0.36,-0.265 0.36,-0.671 0,-0.579 -0.172,-0.719 -0.813,-0.719 z M 9.863,5.324 c 0,0.344 0.203,1.516 0.516,3.172 0.156,0.766 0.531,2.5 0.547,2.547 0,0.047 -0.063,0.047 -1.078,0.047 -1.016,0 -1.078,0 -1.078,-0.047 C 8.785,10.996 9.16,9.262 9.316,8.496 9.629,6.824 9.832,5.668 9.832,5.309 c 0,-0.094 0,-0.141 0.016,-0.141 0.015,0.031 0.015,0.078 0.015,0.156 z"
       style="fill:#000000;fill-opacity:1;fill-rule:nonzero;stroke:none"
       id="path14" /><path
       d="m 22.18,14.559 c 0,0.5 0.093,0.593 0.422,0.718 h 4.281 c 0.297,-0.125 0.422,-0.234 0.422,-0.718 0,-0.516 -0.141,-0.547 -0.422,-0.719 H 25.539 V 5.012 h 2.109 v 0.656 c 0,0.766 0,0.812 0.172,0.984 0.157,0.157 0.188,0.157 0.625,0.157 0.36,0 0.391,0 0.469,-0.047 0.141,-0.047 0.25,-0.188 0.313,-0.328 0.031,-0.094 0.031,-0.125 0.031,-1.235 0,-1.125 0,-1.156 -0.031,-1.25 -0.079,-0.203 -0.235,-0.281 -0.391,-0.39 h -4.078 c -2.235,0 -4.11,0.015 -4.125,0.015 -0.188,0.063 -0.328,0.219 -0.422,0.406 l -0.016,1.188 c 0,1.156 0,1.172 0.032,1.266 0.062,0.14 0.171,0.281 0.312,0.328 0.078,0.047 0.109,0.047 0.469,0.047 0.437,0 0.469,0 0.625,-0.157 0.172,-0.172 0.172,-0.218 0.172,-0.984 V 5.012 h 2.109 v 8.828 h -1.312 c -0.313,0.14 -0.422,0.203 -0.422,0.719 z"
       style="fill:#000000;fill-opacity:1;fill-rule:nonzero;stroke:none"
       id="path16" /><path
       d="m 39.969,15.512 c 2.14,0 3.812,-1.578 3.906,-3.516 0,-0.578 -0.187,-0.719 -0.813,-0.719 -0.546,0 -0.796,0.141 -0.796,0.594 0,1.156 -0.813,2.156 -2,2.156 -0.735,0 -1.547,-0.39 -2.141,-1.093 -0.75,-0.86 -1.172,-1.985 -1.172,-3.516 0,-1.672 0.531,-2.875 1.406,-3.75 0.469,-0.453 1.079,-0.859 1.891,-0.859 0.688,0 1.266,0.406 1.641,1.171 0.171,0.344 0.375,0.829 0.375,1.25 0,0.094 0.078,0.266 0.172,0.344 0.124,0.156 0.218,0.172 0.624,0.172 0.5,0 0.657,-0.062 0.766,-0.359 0.047,-0.094 0.047,-0.141 0.047,-1.844 0,-1.688 0,-1.734 -0.047,-1.828 -0.094,-0.235 -0.281,-0.36 -0.562,-0.36 -0.36,0 -0.469,0.063 -0.735,0.532 -0.093,0.172 -0.187,0.312 -0.187,0.312 -0.032,0 -0.11,-0.062 -0.203,-0.125 -0.61,-0.453 -1.422,-0.719 -2.172,-0.719 -0.141,0 -0.297,0.016 -0.453,0.032 -2.344,0.312 -4.172,2.875 -4.172,6.047 0,2.859 1.687,6.078 4.625,6.078 z"
       style="fill:#000000;fill-opacity:1;fill-rule:nonzero;stroke:none"
       id="path18" /><path
       d="m 51.941,14.559 c 0,0.5 0.094,0.593 0.422,0.718 h 4.282 c 0.296,-0.125 0.421,-0.234 0.421,-0.718 0,-0.516 -0.14,-0.547 -0.421,-0.719 H 55.301 V 5.012 h 2.109 v 0.656 c 0,0.766 0,0.812 0.172,0.984 0.156,0.157 0.188,0.157 0.625,0.157 0.359,0 0.391,0 0.469,-0.047 0.14,-0.047 0.25,-0.188 0.312,-0.328 0.032,-0.094 0.032,-0.125 0.032,-1.235 0,-1.125 0,-1.156 -0.032,-1.25 C 58.91,3.746 58.754,3.668 58.598,3.559 H 54.52 c -2.235,0 -4.11,0.015 -4.125,0.015 -0.188,0.063 -0.329,0.219 -0.422,0.406 l -0.016,1.188 c 0,1.156 0,1.172 0.031,1.266 0.063,0.14 0.172,0.281 0.313,0.328 0.078,0.047 0.109,0.047 0.469,0.047 0.437,0 0.468,0 0.625,-0.157 0.171,-0.172 0.171,-0.218 0.171,-0.984 V 5.012 h 2.11 v 8.828 h -1.313 c -0.312,0.14 -0.422,0.203 -0.422,0.719 z"
       style="fill:#000000;fill-opacity:1;fill-rule:nonzero;stroke:none"
       id="path20" /><path
       d="m 66.82,14.559 c 0,0.5 0.094,0.593 0.422,0.718 h 4.281 c 0.297,-0.125 0.422,-0.234 0.422,-0.718 0,-0.516 -0.14,-0.547 -0.422,-0.719 H 70.18 V 5.012 h 2.109 v 0.656 c 0,0.766 0,0.812 0.172,0.984 0.156,0.157 0.187,0.157 0.625,0.157 0.359,0 0.391,0 0.469,-0.047 0.14,-0.047 0.25,-0.188 0.312,-0.328 0.031,-0.094 0.031,-0.125 0.031,-1.235 0,-1.125 0,-1.156 -0.031,-1.25 -0.078,-0.203 -0.234,-0.281 -0.39,-0.39 h -4.079 c -2.234,0 -4.109,0.015 -4.125,0.015 -0.187,0.063 -0.328,0.219 -0.421,0.406 l -0.016,1.188 c 0,1.156 0,1.172 0.031,1.266 0.063,0.14 0.172,0.281 0.313,0.328 0.078,0.047 0.109,0.047 0.468,0.047 0.438,0 0.469,0 0.625,-0.157 0.172,-0.172 0.172,-0.218 0.172,-0.984 V 5.012 h 2.11 v 8.828 h -1.313 c -0.312,0.14 -0.422,0.203 -0.422,0.719 z"
       style="fill:#000000;fill-opacity:1;fill-rule:nonzero;stroke:none"
       id="path22" /><path
       d="m 87.934,13.84 c -0.329,0 -0.36,0 -0.36,-0.047 C 87.527,13.762 85.449,4.152 85.34,3.793 85.277,3.605 85.09,3.449 84.887,3.371 84.777,3.324 84.73,3.324 84.246,3.324 c -0.5,0 -0.531,0 -0.656,0.047 -0.203,0.078 -0.375,0.234 -0.438,0.422 -0.109,0.359 -2.187,9.969 -2.234,10 0,0.047 -0.031,0.047 -0.359,0.047 -0.641,0 -0.813,0.14 -0.813,0.719 0,0.406 0.078,0.562 0.359,0.671 0.063,0.047 0.094,0.047 1.594,0.047 h 1.516 c 0.281,-0.125 0.39,-0.265 0.39,-0.718 0,-0.25 0,-0.282 -0.031,-0.36 -0.156,-0.281 -0.219,-0.328 -0.687,-0.359 -0.313,0 -0.313,0 -0.297,-0.047 0,-0.031 0.062,-0.313 0.14,-0.656 l 0.141,-0.594 h 2.75 l 0.141,0.594 c 0.078,0.343 0.14,0.625 0.14,0.656 0.016,0.047 0.016,0.047 -0.297,0.047 -0.468,0.031 -0.531,0.078 -0.687,0.359 -0.031,0.078 -0.031,0.11 -0.031,0.36 0,0.453 0.109,0.625 0.422,0.718 h 1.484 c 1.5,0 1.531,0 1.594,-0.047 0.281,-0.109 0.359,-0.265 0.359,-0.671 0,-0.579 -0.172,-0.719 -0.812,-0.719 z M 84.262,5.324 c 0,0.344 0.203,1.516 0.515,3.172 0.157,0.766 0.532,2.5 0.547,2.547 0,0.047 -0.062,0.047 -1.078,0.047 -1.016,0 -1.078,0 -1.078,-0.047 0.016,-0.047 0.391,-1.781 0.547,-2.547 0.312,-1.672 0.515,-2.828 0.515,-3.187 0,-0.094 0,-0.141 0.016,-0.141 0.016,0.031 0.016,0.078 0.016,0.156 z"
       style="fill:#000000;fill-opacity:1;fill-rule:nonzero;stroke:none"
       id="path24" /><path
       d="m 99.543,15.512 c 2.141,0 3.812,-1.578 3.906,-3.516 0,-0.578 -0.187,-0.719 -0.812,-0.719 -0.547,0 -0.797,0.141 -0.797,0.594 0,1.156 -0.813,2.156 -2,2.156 -0.735,0 -1.547,-0.39 -2.141,-1.093 -0.75,-0.86 -1.172,-1.985 -1.172,-3.516 0,-1.672 0.532,-2.875 1.407,-3.75 0.468,-0.453 1.078,-0.859 1.89,-0.859 0.688,0 1.266,0.406 1.641,1.171 0.172,0.344 0.375,0.829 0.375,1.25 0,0.094 0.078,0.266 0.172,0.344 0.125,0.156 0.218,0.172 0.625,0.172 0.5,0 0.656,-0.062 0.765,-0.359 0.047,-0.094 0.047,-0.141 0.047,-1.844 0,-1.688 0,-1.734 -0.047,-1.828 -0.093,-0.235 -0.281,-0.36 -0.562,-0.36 -0.36,0 -0.469,0.063 -0.735,0.532 -0.093,0.172 -0.187,0.312 -0.187,0.312 -0.031,0 -0.109,-0.062 -0.203,-0.125 -0.61,-0.453 -1.422,-0.719 -2.172,-0.719 -0.141,0 -0.297,0.016 -0.453,0.032 -2.344,0.312 -4.172,2.875 -4.172,6.047 0,2.859 1.687,6.078 4.625,6.078 z"
       style="fill:#000000;fill-opacity:1;fill-rule:nonzero;stroke:none"
       id="path26" /><path
       d="m 116.02,14.762 c 0.156,0.39 0.203,0.547 0.828,0.547 0.562,0 0.64,-0.094 0.812,-0.422 v -3.36 h 0.235 c 0.468,-0.031 0.671,-0.203 0.671,-0.734 0,-0.438 -0.156,-0.563 -0.421,-0.719 h -3.266 c -0.313,0.156 -0.422,0.203 -0.422,0.719 0,0.5 0.094,0.609 0.422,0.719 l 0.547,0.015 c 0.453,0 0.562,0 0.562,0.016 0,0.469 -0.25,1.156 -0.422,1.516 -0.328,0.656 -0.75,0.984 -1.328,0.984 -0.328,0 -0.531,-0.063 -0.812,-0.188 -1.235,-0.64 -2.063,-2.453 -2.063,-4.484 0,-2.062 1.032,-4.25 2.625,-4.547 0.094,-0.015 0.172,-0.015 0.25,-0.015 0.61,0 1.11,0.359 1.453,1.093 0.188,0.36 0.297,0.766 0.329,1.203 0.046,0.282 0.078,0.375 0.203,0.485 0.125,0.14 0.218,0.156 0.625,0.156 0.5,0 0.656,-0.062 0.765,-0.359 0.047,-0.094 0.047,-0.141 0.047,-1.844 0,-1.688 0,-1.734 -0.047,-1.828 -0.093,-0.235 -0.281,-0.36 -0.578,-0.36 -0.344,0 -0.453,0.063 -0.703,0.5 -0.078,0.141 -0.156,0.282 -0.172,0.282 0,0 -0.031,-0.047 -0.109,-0.078 -0.547,-0.422 -1.125,-0.704 -2,-0.704 -0.156,0 -0.313,0.016 -0.469,0.032 -1.625,0.234 -3.031,1.781 -3.594,3.953 -0.172,0.734 -0.218,1.234 -0.218,2.078 0,0.859 0.046,1.359 0.218,2.094 0.61,2.375 2.25,4 4.047,4 0.735,0 1.516,-0.282 1.985,-0.75 z"
       style="fill:#000000;fill-opacity:1;fill-rule:nonzero;stroke:none"
       id="path28" /><path
       d="m 129.305,15.512 c 2.14,0 3.812,-1.578 3.906,-3.516 0,-0.578 -0.188,-0.719 -0.813,-0.719 -0.546,0 -0.796,0.141 -0.796,0.594 0,1.156 -0.813,2.156 -2,2.156 -0.735,0 -1.547,-0.39 -2.141,-1.093 -0.75,-0.86 -1.172,-1.985 -1.172,-3.516 0,-1.672 0.531,-2.875 1.406,-3.75 0.469,-0.453 1.078,-0.859 1.891,-0.859 0.687,0 1.266,0.406 1.641,1.171 0.171,0.344 0.375,0.829 0.375,1.25 0,0.094 0.078,0.266 0.171,0.344 0.125,0.156 0.219,0.172 0.625,0.172 0.5,0 0.657,-0.062 0.766,-0.359 0.047,-0.094 0.047,-0.141 0.047,-1.844 0,-1.688 0,-1.734 -0.047,-1.828 -0.094,-0.235 -0.281,-0.36 -0.562,-0.36 -0.36,0 -0.469,0.063 -0.735,0.532 -0.094,0.172 -0.187,0.312 -0.187,0.312 -0.032,0 -0.11,-0.062 -0.203,-0.125 -0.61,-0.453 -1.422,-0.719 -2.172,-0.719 -0.141,0 -0.297,0.016 -0.453,0.032 -2.344,0.312 -4.172,2.875 -4.172,6.047 0,2.859 1.687,6.078 4.625,6.078 z"
       style="fill:#000000;fill-opacity:1;fill-rule:nonzero;stroke:none"
       id="path30" /><path
       d="m 141.277,14.559 c 0,0.5 0.094,0.593 0.422,0.718 h 4.281 c 0.297,-0.125 0.422,-0.234 0.422,-0.718 0,-0.516 -0.14,-0.547 -0.422,-0.719 h -1.343 V 5.012 h 2.109 v 0.656 c 0,0.766 0,0.812 0.172,0.984 0.156,0.157 0.187,0.157 0.625,0.157 0.359,0 0.391,0 0.469,-0.047 0.14,-0.047 0.25,-0.188 0.312,-0.328 0.031,-0.094 0.031,-0.125 0.031,-1.235 0,-1.125 0,-1.156 -0.031,-1.25 -0.078,-0.203 -0.234,-0.281 -0.39,-0.39 h -4.079 c -2.234,0 -4.109,0.015 -4.125,0.015 -0.187,0.063 -0.328,0.219 -0.421,0.406 l -0.016,1.188 c 0,1.156 0,1.172 0.031,1.266 0.063,0.14 0.172,0.281 0.313,0.328 0.078,0.047 0.109,0.047 0.468,0.047 0.438,0 0.469,0 0.625,-0.157 0.172,-0.172 0.172,-0.218 0.172,-0.984 V 5.012 h 2.11 v 8.828 h -1.313 c -0.312,0.14 -0.422,0.203 -0.422,0.719 z"
       style="fill:#000000;fill-opacity:1;fill-rule:nonzero;stroke:none"
       id="path32" /><path
       d="m 162.395,13.84 c -0.329,0 -0.36,0 -0.36,-0.047 -0.047,-0.031 -2.125,-9.641 -2.234,-10 -0.063,-0.188 -0.25,-0.344 -0.453,-0.422 -0.11,-0.047 -0.157,-0.047 -0.641,-0.047 -0.5,0 -0.531,0 -0.656,0.047 -0.203,0.078 -0.375,0.234 -0.438,0.422 -0.109,0.359 -2.187,9.969 -2.234,10 0,0.047 -0.031,0.047 -0.359,0.047 -0.641,0 -0.813,0.14 -0.813,0.719 0,0.406 0.078,0.562 0.359,0.671 0.063,0.047 0.094,0.047 1.594,0.047 h 1.516 c 0.281,-0.125 0.39,-0.265 0.39,-0.718 0,-0.25 0,-0.282 -0.031,-0.36 -0.156,-0.281 -0.219,-0.328 -0.687,-0.359 -0.313,0 -0.313,0 -0.297,-0.047 0,-0.031 0.062,-0.313 0.14,-0.656 l 0.141,-0.594 h 2.75 l 0.141,0.594 c 0.078,0.343 0.14,0.625 0.14,0.656 0.016,0.047 0.016,0.047 -0.297,0.047 -0.468,0.031 -0.531,0.078 -0.687,0.359 -0.031,0.078 -0.031,0.11 -0.031,0.36 0,0.453 0.109,0.625 0.422,0.718 h 1.484 c 1.5,0 1.531,0 1.594,-0.047 0.281,-0.109 0.359,-0.265 0.359,-0.671 0,-0.579 -0.172,-0.719 -0.812,-0.719 z m -3.672,-8.516 c 0,0.344 0.203,1.516 0.515,3.172 0.157,0.766 0.532,2.5 0.547,2.547 0,0.047 -0.062,0.047 -1.078,0.047 -1.016,0 -1.078,0 -1.078,-0.047 0.016,-0.047 0.391,-1.781 0.547,-2.547 0.312,-1.672 0.515,-2.828 0.515,-3.187 0,-0.094 0,-0.141 0.016,-0.141 0.016,0.031 0.016,0.078 0.016,0.156 z"
       style="fill:#000000;fill-opacity:1;fill-rule:nonzero;stroke:none"
       id="path34" /><path
       d="m 177.273,13.84 c -0.328,0 -0.359,0 -0.359,-0.047 -0.047,-0.031 -2.125,-9.641 -2.234,-10 -0.063,-0.188 -0.25,-0.344 -0.453,-0.422 -0.11,-0.047 -0.157,-0.047 -0.641,-0.047 -0.5,0 -0.531,0 -0.656,0.047 -0.203,0.078 -0.375,0.234 -0.438,0.422 -0.109,0.359 -2.187,9.969 -2.234,10 0,0.047 -0.031,0.047 -0.36,0.047 -0.64,0 -0.812,0.14 -0.812,0.719 0,0.406 0.078,0.562 0.359,0.671 0.063,0.047 0.094,0.047 1.594,0.047 h 1.516 c 0.281,-0.125 0.39,-0.265 0.39,-0.718 0,-0.25 0,-0.282 -0.031,-0.36 -0.156,-0.281 -0.219,-0.328 -0.687,-0.359 -0.313,0 -0.313,0 -0.297,-0.047 0,-0.031 0.062,-0.313 0.14,-0.656 l 0.141,-0.594 h 2.75 l 0.141,0.594 c 0.078,0.343 0.14,0.625 0.14,0.656 0.016,0.047 0.016,0.047 -0.297,0.047 -0.468,0.031 -0.531,0.078 -0.687,0.359 -0.031,0.078 -0.031,0.11 -0.031,0.36 0,0.453 0.109,0.625 0.421,0.718 h 1.485 c 1.5,0 1.531,0 1.594,-0.047 0.281,-0.109 0.359,-0.265 0.359,-0.671 0,-0.579 -0.172,-0.719 -0.813,-0.719 z m -3.671,-8.516 c 0,0.344 0.203,1.516 0.515,3.172 0.156,0.766 0.531,2.5 0.547,2.547 0,0.047 -0.062,0.047 -1.078,0.047 -1.016,0 -1.078,0 -1.078,-0.047 0.015,-0.047 0.39,-1.781 0.547,-2.547 0.312,-1.672 0.515,-2.828 0.515,-3.187 0,-0.094 0,-0.141 0.016,-0.141 0.016,0.031 0.016,0.078 0.016,0.156 z"
       style="fill:#000000;fill-opacity:1;fill-rule:nonzero;stroke:none"
       id="path36" /><path
       d="m 190.418,14.762 c 0.156,0.39 0.203,0.547 0.828,0.547 0.563,0 0.641,-0.094 0.813,-0.422 v -3.36 h 0.234 c 0.469,-0.031 0.672,-0.203 0.672,-0.734 0,-0.438 -0.156,-0.563 -0.422,-0.719 h -3.266 c -0.312,0.156 -0.422,0.203 -0.422,0.719 0,0.5 0.094,0.609 0.422,0.719 l 0.547,0.015 c 0.453,0 0.563,0 0.563,0.016 0,0.469 -0.25,1.156 -0.422,1.516 -0.328,0.656 -0.75,0.984 -1.328,0.984 -0.328,0 -0.532,-0.063 -0.813,-0.188 -1.234,-0.64 -2.062,-2.453 -2.062,-4.484 0,-2.062 1.031,-4.25 2.625,-4.547 0.093,-0.015 0.172,-0.015 0.25,-0.015 0.609,0 1.109,0.359 1.453,1.093 0.187,0.36 0.297,0.766 0.328,1.203 0.047,0.282 0.078,0.375 0.203,0.485 0.125,0.14 0.219,0.156 0.625,0.156 0.5,0 0.656,-0.062 0.766,-0.359 0.047,-0.094 0.047,-0.141 0.047,-1.844 0,-1.688 0,-1.734 -0.047,-1.828 -0.094,-0.235 -0.282,-0.36 -0.578,-0.36 -0.344,0 -0.454,0.063 -0.704,0.5 -0.078,0.141 -0.156,0.282 -0.171,0.282 0,0 -0.032,-0.047 -0.11,-0.078 -0.547,-0.422 -1.125,-0.704 -2,-0.704 -0.156,0 -0.312,0.016 -0.469,0.032 -1.625,0.234 -3.031,1.781 -3.593,3.953 -0.172,0.734 -0.219,1.234 -0.219,2.078 0,0.859 0.047,1.359 0.219,2.094 0.609,2.375 2.25,4 4.047,4 0.734,0 1.515,-0.282 1.984,-0.75 z"
       style="fill:#000000;fill-opacity:1;fill-rule:nonzero;stroke:none"
       id="path38" /><path
       d="m 203.762,15.512 c 2.14,0 3.812,-1.578 3.906,-3.516 0,-0.578 -0.188,-0.719 -0.813,-0.719 -0.546,0 -0.796,0.141 -0.796,0.594 0,1.156 -0.813,2.156 -2,2.156 -0.735,0 -1.547,-0.39 -2.141,-1.093 -0.75,-0.86 -1.172,-1.985 -1.172,-3.516 0,-1.672 0.531,-2.875 1.406,-3.75 0.469,-0.453 1.078,-0.859 1.891,-0.859 0.687,0 1.266,0.406 1.641,1.171 0.171,0.344 0.375,0.829 0.375,1.25 0,0.094 0.078,0.266 0.171,0.344 0.125,0.156 0.219,0.172 0.625,0.172 0.5,0 0.657,-0.062 0.766,-0.359 0.047,-0.094 0.047,-0.141 0.047,-1.844 0,-1.688 0,-1.734 -0.047,-1.828 -0.094,-0.235 -0.281,-0.36 -0.562,-0.36 -0.36,0 -0.469,0.063 -0.735,0.532 -0.094,0.172 -0.187,0.312 -0.187,0.312 -0.032,0 -0.11,-0.062 -0.203,-0.125 -0.61,-0.453 -1.422,-0.719 -2.172,-0.719 -0.141,0 -0.297,0.016 -0.453,0.032 -2.344,0.312 -4.172,2.875 -4.172,6.047 0,2.859 1.687,6.078 4.625,6.078 z"
       style="fill:#000000;fill-opacity:1;fill-rule:nonzero;stroke:none"
       id="path40" /><path
       d="m 7.238,73.418 c 0.36,0 0.703,-0.188 0.875,-0.516 0.078,-0.156 0.11,-0.328 0.141,-0.562 h 0.109 c 0.078,-0.016 0.407,-0.016 0.75,-0.016 0.547,0 0.657,0 0.828,0.016 0.891,0.172 1.532,0.75 1.532,1.39 v 0.094 h -0.094 c -0.172,0 -0.828,0.031 -1.094,0.047 -2.031,0.203 -4.547,0.844 -4.547,2.719 0,1.5 1.266,2.812 3.016,2.812 0.937,0 1.984,-0.265 2.687,-0.687 l 0.188,-0.11 c 0.062,0.047 0.094,0.11 0.219,0.235 0.437,0.39 0.859,0.437 1.922,0.437 0.656,0 0.687,0 0.765,-0.047 0.25,-0.109 0.344,-0.281 0.344,-0.671 0,-0.297 -0.031,-0.407 -0.172,-0.547 -0.141,-0.157 -0.187,-0.157 -0.719,-0.172 -0.547,-0.031 -0.562,-0.063 -0.89,-0.11 v -2.093 c 0,-1.266 0,-2.125 -0.032,-2.219 -0.203,-1.391 -1.515,-2.281 -2.953,-2.531 -0.156,-0.032 -0.765,-0.032 -1.25,-0.032 -1.031,0 -1.797,0.188 -2.218,0.61 -0.266,0.25 -0.407,0.531 -0.407,0.937 0,0.578 0.438,1.016 1,1.016 z m 4.235,2.516 c -0.016,0.625 -0.016,0.687 -0.047,0.812 -0.235,0.703 -1.156,1.203 -2.313,1.203 -0.937,0 -1.765,-0.562 -1.765,-1.344 0,-0.234 0.125,-0.406 0.406,-0.593 0.656,-0.422 2.031,-0.735 3.578,-0.766 h 0.141 z"
       style="fill:#000000;fill-opacity:1;fill-rule:nonzero;stroke:none"
       id="path42" /><path
       d="m 27.508,75.793 c -0.406,0 -0.453,0 -0.61,0.156 -0.14,0.125 -0.171,0.235 -0.187,0.485 -0.125,0.843 -0.5,1.515 -1.344,1.515 -0.781,0 -1.172,-0.515 -1.25,-1.25 -0.031,-0.094 -0.031,-0.953 -0.031,-2.187 V 72.48 h 1.703 l 1.688,-0.031 c 0.265,-0.125 0.421,-0.281 0.421,-0.703 0,-0.453 -0.171,-0.531 -0.421,-0.734 h -3.391 v -0.938 c 0,-0.906 0,-0.937 -0.031,-1.031 -0.063,-0.141 -0.172,-0.266 -0.313,-0.328 -0.078,-0.047 -0.109,-0.063 -0.422,-0.063 -0.531,0 -0.656,0.094 -0.828,0.422 l -0.015,0.985 v 0.953 h -1.86 c -0.281,0.172 -0.406,0.234 -0.437,0.703 0,0.422 0.078,0.594 0.343,0.703 0.079,0.031 0.11,0.062 1.016,0.062 h 0.938 v 2.063 c 0,1.297 0,2.172 0.015,2.297 0.078,0.797 0.36,1.422 0.797,1.859 0.422,0.422 1.016,0.703 1.828,0.703 1.672,0 3.188,-1.25 3.188,-2.953 0,-0.562 -0.172,-0.656 -0.797,-0.656 z"
       style="fill:#000000;fill-opacity:1;fill-rule:nonzero;stroke:none"
       id="path44" /><path
       d="m 40.172,79.402 c 1.531,0 2.625,-0.687 3.156,-1.765 0.125,-0.219 0.203,-0.469 0.203,-0.594 0,-0.234 -0.156,-0.438 -0.375,-0.516 -0.078,-0.031 -0.125,-0.031 -0.437,-0.031 -0.563,0 -0.657,0.063 -0.813,0.453 -0.218,0.656 -0.687,1 -1.312,1 -1.578,0 -3.11,-1.109 -3.11,-2.781 0,-1.516 0.938,-2.563 2.204,-2.828 0.14,-0.016 0.25,-0.031 0.703,-0.031 0.297,0 0.625,0.015 0.718,0.015 l 0.188,0.016 v 0.094 c 0,0.546 0.469,0.984 1,0.984 0.562,0 1,-0.438 1,-1.016 0,-0.406 -0.141,-0.687 -0.406,-0.968 -0.547,-0.516 -1.407,-0.594 -2.688,-0.594 -0.187,0 -0.344,0 -0.375,0.015 -0.031,0 -0.14,0 -0.219,0.032 -1.031,0.125 -2.078,0.687 -2.75,1.468 -0.656,0.813 -1.015,1.797 -1.015,2.797 0,2.547 2.109,4.25 4.328,4.25 z"
       style="fill:#000000;fill-opacity:1;fill-rule:nonzero;stroke:none"
       id="path46" /><path
       d="m 50.613,74.027 c 0,0.516 0.157,1.063 0.438,1.547 l 0.109,0.203 c -0.172,0.391 -0.359,0.735 -0.359,1.266 0,0.437 0.109,0.906 0.328,1.266 0.031,0.078 0.078,0.14 0.078,0.156 0,0 -0.047,0.047 -0.094,0.078 -0.156,0.141 -0.468,0.469 -0.593,0.656 -0.313,0.453 -0.469,0.953 -0.5,1.5 -0.032,0.656 0.203,1.188 0.703,1.703 0.843,0.828 2.25,1.282 3.765,1.282 1.61,0 2.953,-0.5 3.766,-1.282 0.484,-0.5 0.703,-1.031 0.703,-1.656 0,-1.625 -1.266,-2.406 -2.734,-2.687 -0.532,-0.079 -0.672,-0.079 -1.891,-0.094 -0.859,0 -1.203,-0.016 -1.281,-0.016 -0.047,-0.015 -0.141,-0.031 -0.235,-0.015 -0.406,0 -0.625,-0.454 -0.625,-0.844 0,-0.125 0.032,-0.25 0.063,-0.344 l 0.172,0.094 c 0.453,0.187 0.89,0.297 1.5,0.297 1.969,0 3.328,-1.453 3.328,-3.11 0,-0.531 -0.188,-1.172 -0.438,-1.547 0.094,-0.046 0.36,-0.156 0.516,-0.171 0.031,0 0.078,0 0.094,-0.032 0.015,0 0.062,0.047 0.094,0.141 0.156,0.266 0.406,0.5 0.812,0.5 0.531,0 0.906,-0.438 0.906,-0.938 0,-0.796 -0.734,-1.171 -1.578,-1.171 -0.672,0 -1.234,0.234 -1.719,0.5 l -0.171,0.109 -0.25,-0.125 c -0.5,-0.25 -0.891,-0.375 -1.594,-0.375 -1.875,0 -3.313,1.391 -3.313,3.109 z m 1.625,0 c 0,-0.937 0.641,-1.515 1.391,-1.672 0.078,0 0.156,-0.015 0.25,-0.015 1,0 1.75,0.656 1.75,1.687 0,0.313 -0.047,0.485 -0.156,0.75 -0.297,0.547 -0.75,0.922 -1.547,0.922 -1.016,0 -1.688,-0.672 -1.688,-1.672 z m 3.36,5.36 c 0.812,0.093 1.39,0.312 1.656,0.609 0.187,0.219 0.312,0.547 0.312,0.797 0,0.078 -0.031,0.156 -0.046,0.203 -0.25,0.734 -1.704,1.25 -3.047,1.25 -1.266,0 -2.36,-0.359 -2.938,-1.047 -0.078,-0.14 -0.125,-0.25 -0.125,-0.406 0,-0.438 0.172,-0.734 0.453,-1 0.391,-0.406 0.61,-0.422 1.438,-0.422 0.797,0 2.14,0 2.297,0.016 z"
       style="fill:#000000;fill-opacity:1;fill-rule:nonzero;stroke:none"
       id="path48" /><path
       d="m 72.148,75.793 c -0.406,0 -0.453,0 -0.609,0.156 -0.141,0.125 -0.172,0.235 -0.187,0.485 -0.125,0.843 -0.5,1.515 -1.344,1.515 -0.781,0 -1.172,-0.515 -1.25,-1.25 -0.031,-0.094 -0.031,-0.953 -0.031,-2.187 V 72.48 h 1.703 l 1.687,-0.031 c 0.266,-0.125 0.422,-0.281 0.422,-0.703 0,-0.453 -0.172,-0.531 -0.422,-0.734 h -3.39 v -0.938 c 0,-0.906 0,-0.937 -0.032,-1.031 -0.062,-0.141 -0.172,-0.266 -0.312,-0.328 -0.078,-0.047 -0.11,-0.063 -0.422,-0.063 -0.531,0 -0.656,0.094 -0.828,0.422 l -0.016,0.985 v 0.953 h -1.859 c -0.281,0.172 -0.406,0.234 -0.438,0.703 0,0.422 0.078,0.594 0.344,0.703 0.078,0.031 0.109,0.062 1.016,0.062 h 0.937 v 2.063 c 0,1.297 0,2.172 0.016,2.297 0.078,0.797 0.359,1.422 0.797,1.859 0.422,0.422 1.015,0.703 1.828,0.703 1.672,0 3.187,-1.25 3.187,-2.953 0,-0.562 -0.172,-0.656 -0.797,-0.656 z"
       style="fill:#000000;fill-opacity:1;fill-rule:nonzero;stroke:none"
       id="path50" /><path
       d="m 81.637,73.418 c 0.359,0 0.703,-0.188 0.875,-0.516 0.078,-0.156 0.109,-0.328 0.14,-0.562 h 0.11 c 0.078,-0.016 0.406,-0.016 0.75,-0.016 0.547,0 0.656,0 0.828,0.016 0.89,0.172 1.531,0.75 1.531,1.39 v 0.094 h -0.094 c -0.172,0 -0.828,0.031 -1.093,0.047 -2.032,0.203 -4.547,0.844 -4.547,2.719 0,1.5 1.265,2.812 3.015,2.812 0.938,0 1.985,-0.265 2.688,-0.687 l 0.187,-0.11 c 0.063,0.047 0.094,0.11 0.219,0.235 0.438,0.39 0.859,0.437 1.922,0.437 0.656,0 0.687,0 0.766,-0.047 0.25,-0.109 0.343,-0.281 0.343,-0.671 0,-0.297 -0.031,-0.407 -0.172,-0.547 -0.14,-0.157 -0.187,-0.157 -0.718,-0.172 -0.547,-0.031 -0.563,-0.063 -0.891,-0.11 v -2.093 c 0,-1.266 0,-2.125 -0.031,-2.219 -0.203,-1.391 -1.516,-2.281 -2.953,-2.531 -0.157,-0.032 -0.766,-0.032 -1.25,-0.032 -1.032,0 -1.797,0.188 -2.219,0.61 -0.266,0.25 -0.406,0.531 -0.406,0.937 0,0.578 0.437,1.016 1,1.016 z m 4.234,2.516 c -0.016,0.625 -0.016,0.687 -0.047,0.812 -0.234,0.703 -1.156,1.203 -2.312,1.203 -0.938,0 -1.766,-0.562 -1.766,-1.344 0,-0.234 0.125,-0.406 0.406,-0.593 0.657,-0.422 2.032,-0.735 3.578,-0.766 h 0.141 z"
       style="fill:#000000;fill-opacity:1;fill-rule:nonzero;stroke:none"
       id="path52" /><path
       d="m 96.637,78.559 c 0,0.5 0.093,0.593 0.422,0.718 h 4.281 c 0.297,-0.125 0.422,-0.234 0.422,-0.718 0,-0.516 -0.141,-0.547 -0.422,-0.719 h -1.344 v -8.828 h 2.109 v 0.656 c 0,0.766 0,0.812 0.172,0.984 0.157,0.157 0.188,0.157 0.625,0.157 0.36,0 0.391,0 0.469,-0.047 0.141,-0.047 0.25,-0.188 0.313,-0.328 0.031,-0.094 0.031,-0.125 0.031,-1.235 0,-1.125 0,-1.156 -0.031,-1.25 -0.079,-0.203 -0.235,-0.281 -0.391,-0.39 h -4.078 c -2.235,0 -4.11,0.015 -4.125,0.015 -0.188,0.063 -0.328,0.219 -0.422,0.406 l -0.016,1.188 c 0,1.156 0,1.172 0.032,1.266 0.062,0.14 0.171,0.281 0.312,0.328 0.078,0.047 0.109,0.047 0.469,0.047 0.437,0 0.469,0 0.625,-0.157 0.172,-0.172 0.172,-0.218 0.172,-0.984 v -0.656 h 2.109 v 8.828 h -1.312 c -0.313,0.14 -0.422,0.203 -0.422,0.719 z"
       style="fill:#000000;fill-opacity:1;fill-rule:nonzero;stroke:none"
       id="path54" /><path
       d="m 110.191,74.027 c 0,0.516 0.157,1.063 0.438,1.547 l 0.109,0.203 c -0.172,0.391 -0.359,0.735 -0.359,1.266 0,0.437 0.109,0.906 0.328,1.266 0.031,0.078 0.078,0.14 0.078,0.156 0,0 -0.047,0.047 -0.094,0.078 -0.156,0.141 -0.468,0.469 -0.593,0.656 -0.313,0.453 -0.469,0.953 -0.5,1.5 -0.032,0.656 0.203,1.188 0.703,1.703 0.844,0.828 2.25,1.282 3.765,1.282 1.61,0 2.954,-0.5 3.766,-1.282 0.484,-0.5 0.703,-1.031 0.703,-1.656 0,-1.625 -1.265,-2.406 -2.734,-2.687 -0.531,-0.079 -0.672,-0.079 -1.891,-0.094 -0.859,0 -1.203,-0.016 -1.281,-0.016 -0.047,-0.015 -0.141,-0.031 -0.234,-0.015 -0.407,0 -0.625,-0.454 -0.625,-0.844 0,-0.125 0.031,-0.25 0.062,-0.344 l 0.172,0.094 c 0.453,0.187 0.891,0.297 1.5,0.297 1.969,0 3.328,-1.453 3.328,-3.11 0,-0.531 -0.187,-1.172 -0.437,-1.547 0.093,-0.046 0.359,-0.156 0.515,-0.171 0.031,0 0.078,0 0.094,-0.032 0.016,0 0.062,0.047 0.094,0.141 0.156,0.266 0.406,0.5 0.812,0.5 0.531,0 0.906,-0.438 0.906,-0.938 0,-0.796 -0.734,-1.171 -1.578,-1.171 -0.672,0 -1.234,0.234 -1.718,0.5 l -0.172,0.109 -0.25,-0.125 c -0.5,-0.25 -0.891,-0.375 -1.594,-0.375 -1.875,0 -3.313,1.391 -3.313,3.109 z m 1.625,0 c 0,-0.937 0.641,-1.515 1.391,-1.672 0.078,0 0.156,-0.015 0.25,-0.015 1,0 1.75,0.656 1.75,1.687 0,0.313 -0.047,0.485 -0.156,0.75 -0.297,0.547 -0.75,0.922 -1.547,0.922 -1.016,0 -1.688,-0.672 -1.688,-1.672 z m 3.36,5.36 c 0.812,0.093 1.39,0.312 1.656,0.609 0.188,0.219 0.313,0.547 0.313,0.797 0,0.078 -0.032,0.156 -0.047,0.203 -0.25,0.734 -1.703,1.25 -3.047,1.25 -1.266,0 -2.36,-0.359 -2.938,-1.047 -0.078,-0.14 -0.125,-0.25 -0.125,-0.406 0,-0.438 0.172,-0.734 0.453,-1 0.391,-0.406 0.61,-0.422 1.438,-0.422 0.797,0 2.141,0 2.297,0.016 z"
       style="fill:#000000;fill-opacity:1;fill-rule:nonzero;stroke:none"
       id="path56" /><path
       d="m 129.508,79.402 c 1.531,0 2.625,-0.687 3.156,-1.765 0.125,-0.219 0.203,-0.469 0.203,-0.594 0,-0.234 -0.156,-0.438 -0.375,-0.516 -0.078,-0.031 -0.125,-0.031 -0.437,-0.031 -0.563,0 -0.657,0.063 -0.813,0.453 -0.219,0.656 -0.687,1 -1.312,1 -1.578,0 -3.11,-1.109 -3.11,-2.781 0,-1.516 0.938,-2.563 2.203,-2.828 0.141,-0.016 0.25,-0.031 0.704,-0.031 0.296,0 0.625,0.015 0.718,0.015 l 0.188,0.016 v 0.094 c 0,0.546 0.469,0.984 1,0.984 0.562,0 1,-0.438 1,-1.016 0,-0.406 -0.141,-0.687 -0.406,-0.968 -0.547,-0.516 -1.407,-0.594 -2.688,-0.594 -0.187,0 -0.344,0 -0.375,0.015 -0.031,0 -0.141,0 -0.219,0.032 -1.031,0.125 -2.078,0.687 -2.75,1.468 -0.656,0.813 -1.015,1.797 -1.015,2.797 0,2.547 2.109,4.25 4.328,4.25 z"
       style="fill:#000000;fill-opacity:1;fill-rule:nonzero;stroke:none"
       id="path58" /><path
       d="m 147.512,77.84 c -0.328,0 -0.36,0 -0.36,-0.047 -0.047,-0.031 -2.125,-9.641 -2.234,-10 -0.063,-0.188 -0.25,-0.344 -0.453,-0.422 -0.11,-0.047 -0.156,-0.047 -0.641,-0.047 -0.5,0 -0.531,0 -0.656,0.047 -0.203,0.078 -0.375,0.234 -0.438,0.422 -0.109,0.359 -2.187,9.969 -2.234,10 0,0.047 -0.031,0.047 -0.359,0.047 -0.641,0 -0.813,0.14 -0.813,0.719 0,0.406 0.078,0.562 0.36,0.671 0.062,0.047 0.093,0.047 1.593,0.047 h 1.516 c 0.281,-0.125 0.391,-0.265 0.391,-0.718 0,-0.25 0,-0.282 -0.032,-0.36 -0.156,-0.281 -0.218,-0.328 -0.687,-0.359 -0.313,0 -0.313,0 -0.297,-0.047 0,-0.031 0.062,-0.313 0.141,-0.656 l 0.14,-0.594 h 2.75 l 0.141,0.594 c 0.078,0.343 0.14,0.625 0.14,0.656 0.016,0.047 0.016,0.047 -0.296,0.047 -0.469,0.031 -0.532,0.078 -0.688,0.359 -0.031,0.078 -0.031,0.11 -0.031,0.36 0,0.453 0.109,0.625 0.422,0.718 h 1.484 c 1.5,0 1.531,0 1.594,-0.047 0.281,-0.109 0.359,-0.265 0.359,-0.671 0,-0.579 -0.172,-0.719 -0.812,-0.719 z m -3.672,-8.516 c 0,0.344 0.203,1.516 0.515,3.172 0.157,0.766 0.532,2.5 0.547,2.547 0,0.047 -0.062,0.047 -1.078,0.047 -1.015,0 -1.078,0 -1.078,-0.047 0.016,-0.047 0.391,-1.781 0.547,-2.547 0.312,-1.672 0.516,-2.828 0.516,-3.187 0,-0.094 0,-0.141 0.015,-0.141 0.016,0.031 0.016,0.078 0.016,0.156 z"
       style="fill:#000000;fill-opacity:1;fill-rule:nonzero;stroke:none"
       id="path60" /><path
       d="m 156.098,73.418 c 0.359,0 0.703,-0.188 0.875,-0.516 0.078,-0.156 0.109,-0.328 0.14,-0.562 h 0.11 c 0.078,-0.016 0.406,-0.016 0.75,-0.016 0.547,0 0.656,0 0.828,0.016 0.89,0.172 1.531,0.75 1.531,1.39 v 0.094 h -0.094 c -0.172,0 -0.828,0.031 -1.093,0.047 -2.032,0.203 -4.547,0.844 -4.547,2.719 0,1.5 1.265,2.812 3.015,2.812 0.938,0 1.985,-0.265 2.688,-0.687 l 0.187,-0.11 c 0.063,0.047 0.094,0.11 0.219,0.235 0.438,0.39 0.859,0.437 1.922,0.437 0.656,0 0.687,0 0.766,-0.047 0.25,-0.109 0.343,-0.281 0.343,-0.671 0,-0.297 -0.031,-0.407 -0.172,-0.547 -0.14,-0.157 -0.187,-0.157 -0.718,-0.172 -0.547,-0.031 -0.563,-0.063 -0.891,-0.11 v -2.093 c 0,-1.266 0,-2.125 -0.031,-2.219 -0.203,-1.391 -1.516,-2.281 -2.953,-2.531 -0.157,-0.032 -0.766,-0.032 -1.25,-0.032 -1.032,0 -1.797,0.188 -2.219,0.61 -0.266,0.25 -0.406,0.531 -0.406,0.937 0,0.578 0.437,1.016 1,1.016 z m 4.234,2.516 c -0.016,0.625 -0.016,0.687 -0.047,0.812 -0.234,0.703 -1.156,1.203 -2.312,1.203 -0.938,0 -1.766,-0.562 -1.766,-1.344 0,-0.234 0.125,-0.406 0.406,-0.593 0.657,-0.422 2.032,-0.735 3.578,-0.766 h 0.141 z"
       style="fill:#000000;fill-opacity:1;fill-rule:nonzero;stroke:none"
       id="path62" /><path
       d="m 173.945,79.512 c 2.141,0 3.813,-1.578 3.907,-3.516 0,-0.578 -0.188,-0.719 -0.813,-0.719 -0.547,0 -0.797,0.141 -0.797,0.594 0,1.156 -0.812,2.156 -2,2.156 -0.734,0 -1.547,-0.39 -2.14,-1.093 -0.75,-0.86 -1.172,-1.985 -1.172,-3.516 0,-1.672 0.531,-2.875 1.406,-3.75 0.469,-0.453 1.078,-0.859 1.891,-0.859 0.687,0 1.265,0.406 1.64,1.171 0.172,0.344 0.375,0.829 0.375,1.25 0,0.094 0.078,0.266 0.172,0.344 0.125,0.156 0.219,0.172 0.625,0.172 0.5,0 0.656,-0.062 0.766,-0.359 0.047,-0.094 0.047,-0.141 0.047,-1.844 0,-1.688 0,-1.734 -0.047,-1.828 -0.094,-0.235 -0.282,-0.36 -0.563,-0.36 -0.359,0 -0.469,0.063 -0.734,0.532 -0.094,0.172 -0.188,0.312 -0.188,0.312 -0.031,0 -0.109,-0.062 -0.203,-0.125 -0.609,-0.453 -1.422,-0.719 -2.172,-0.719 -0.14,0 -0.297,0.016 -0.453,0.032 -2.344,0.312 -4.172,2.875 -4.172,6.047 0,2.859 1.688,6.078 4.625,6.078 z"
       style="fill:#000000;fill-opacity:1;fill-rule:nonzero;stroke:none"
       id="path64" /><path
       d="m 184.59,74.027 c 0,0.516 0.156,1.063 0.437,1.547 l 0.11,0.203 c -0.172,0.391 -0.36,0.735 -0.36,1.266 0,0.437 0.11,0.906 0.328,1.266 0.032,0.078 0.079,0.14 0.079,0.156 0,0 -0.047,0.047 -0.094,0.078 -0.156,0.141 -0.469,0.469 -0.594,0.656 -0.312,0.453 -0.469,0.953 -0.5,1.5 -0.031,0.656 0.203,1.188 0.703,1.703 0.844,0.828 2.25,1.282 3.766,1.282 1.609,0 2.953,-0.5 3.765,-1.282 0.485,-0.5 0.704,-1.031 0.704,-1.656 0,-1.625 -1.266,-2.406 -2.735,-2.687 -0.531,-0.079 -0.672,-0.079 -1.89,-0.094 -0.86,0 -1.204,-0.016 -1.282,-0.016 -0.047,-0.015 -0.14,-0.031 -0.234,-0.015 -0.406,0 -0.625,-0.454 -0.625,-0.844 0,-0.125 0.031,-0.25 0.062,-0.344 l 0.172,0.094 c 0.453,0.187 0.891,0.297 1.5,0.297 1.969,0 3.328,-1.453 3.328,-3.11 0,-0.531 -0.187,-1.172 -0.437,-1.547 0.094,-0.046 0.359,-0.156 0.516,-0.171 0.031,0 0.078,0 0.093,-0.032 0.016,0 0.063,0.047 0.094,0.141 0.156,0.266 0.406,0.5 0.813,0.5 0.531,0 0.906,-0.438 0.906,-0.938 0,-0.796 -0.735,-1.171 -1.578,-1.171 -0.672,0 -1.235,0.234 -1.719,0.5 l -0.172,0.109 -0.25,-0.125 c -0.5,-0.25 -0.891,-0.375 -1.594,-0.375 -1.875,0 -3.312,1.391 -3.312,3.109 z m 1.625,0 c 0,-0.937 0.64,-1.515 1.39,-1.672 0.079,0 0.157,-0.015 0.25,-0.015 1,0 1.75,0.656 1.75,1.687 0,0.313 -0.046,0.485 -0.156,0.75 -0.297,0.547 -0.75,0.922 -1.547,0.922 -1.015,0 -1.687,-0.672 -1.687,-1.672 z m 3.359,5.36 c 0.813,0.093 1.391,0.312 1.656,0.609 0.188,0.219 0.313,0.547 0.313,0.797 0,0.078 -0.031,0.156 -0.047,0.203 -0.25,0.734 -1.703,1.25 -3.047,1.25 -1.265,0 -2.359,-0.359 -2.937,-1.047 -0.078,-0.14 -0.125,-0.25 -0.125,-0.406 0,-0.438 0.172,-0.734 0.453,-1 0.39,-0.406 0.609,-0.422 1.437,-0.422 0.797,0 2.141,0 2.297,0.016 z"
       style="fill:#000000;fill-opacity:1;fill-rule:nonzero;stroke:none"
       id="path66" /><path
       d="m 203.965,79.402 c 1.531,0 2.625,-0.687 3.156,-1.765 0.125,-0.219 0.203,-0.469 0.203,-0.594 0,-0.234 -0.156,-0.438 -0.375,-0.516 -0.078,-0.031 -0.125,-0.031 -0.437,-0.031 -0.563,0 -0.657,0.063 -0.813,0.453 -0.219,0.656 -0.687,1 -1.312,1 -1.578,0 -3.11,-1.109 -3.11,-2.781 0,-1.516 0.938,-2.563 2.203,-2.828 0.141,-0.016 0.25,-0.031 0.704,-0.031 0.296,0 0.625,0.015 0.718,0.015 l 0.188,0.016 v 0.094 c 0,0.546 0.469,0.984 1,0.984 0.562,0 1,-0.438 1,-1.016 0,-0.406 -0.141,-0.687 -0.406,-0.968 -0.547,-0.516 -1.407,-0.594 -2.688,-0.594 -0.187,0 -0.344,0 -0.375,0.015 -0.031,0 -0.141,0 -0.219,0.032 -1.031,0.125 -2.078,0.687 -2.75,1.468 -0.656,0.813 -1.015,1.797 -1.015,2.797 0,2.547 2.109,4.25 4.328,4.25 z"
       style="fill:#000000;fill-opacity:1;fill-rule:nonzero;stroke:none"
       id="path68" /><path
       d="M 151.785,50.242 H 166.23 V 65.801 H 151.785 Z"
       style="fill:#ff8585;fill-opacity:0.562791;fill-rule:nonzero;stroke:none"
       id="path70" /><path
       d="m 136.836,50.242 h 14.449 v 15.559 h -14.449 z"
       style="fill:#ff8585;fill-opacity:0.562791;fill-rule:nonzero;stroke:none"
       id="path72" /><path
       d="m 121.891,50.242 h 14.445 v 15.559 h -14.445 z"
       style="fill:#ff8585;fill-opacity:0.562791;fill-rule:nonzero;stroke:none"
       id="path74" /><path
       d="m 136.836,34.184 h 14.449 v 15.559 h -14.449 z"
       style="fill:#ff8585;fill-opacity:0.562791;fill-rule:nonzero;stroke:none"
       id="path76" /><path
       d="m 121.891,34.184 h 14.445 v 15.559 h -14.445 z"
       style="fill:#ff8585;fill-opacity:0.562791;fill-rule:nonzero;stroke:none"
       id="path78" /><path
       d="M 106.945,34.184 H 121.39 V 49.743 H 106.945 Z"
       style="fill:#ff8585;fill-opacity:0.562791;fill-rule:nonzero;stroke:none"
       id="path80" /><path
       d="m 121.891,18.121 h 14.445 v 15.562 h -14.445 z"
       style="fill:#ff8585;fill-opacity:0.562791;fill-rule:nonzero;stroke:none"
       id="path82" /><path
       d="M 106.945,18.121 H 121.39 V 33.683 H 106.945 Z"
       style="fill:#ff8585;fill-opacity:0.562791;fill-rule:nonzero;stroke:none"
       id="path84" /><path
       d="m 92,18.121 h 14.445 V 33.683 H 92 Z"
       style="fill:#ff8585;fill-opacity:0.562791;fill-rule:nonzero;stroke:none"
       id="path86" /><path
       d="M 106.945,50.242 H 121.39 V 65.801 H 106.945 Z"
       style="fill:#ff8585;fill-opacity:0.562791;fill-rule:nonzero;stroke:none"
       id="path88" /><path
       d="m 92,34.184 h 14.445 V 49.743 H 92 Z"
       style="fill:#ff8585;fill-opacity:0.562791;fill-rule:nonzero;stroke:none"
       id="path90" /><path
       d="M 77.055,18.121 H 91.5 V 33.683 H 77.055 Z"
       style="fill:#ff8585;fill-opacity:0.562791;fill-rule:nonzero;stroke:none"
       id="path92" /><path
       d="m 166.73,50.242 h 14.445 V 65.801 H 166.73 Z"
       style="fill:#5e73d7;fill-opacity:0.562791;fill-rule:nonzero;stroke:none"
       id="path94" /><path
       d="m 181.676,34.184 h 14.445 v 15.559 h -14.445 z"
       style="fill:#5e73d7;fill-opacity:0.562791;fill-rule:nonzero;stroke:none"
       id="path96" /><path
       d="m 166.73,34.184 h 14.445 V 49.743 H 166.73 Z"
       style="fill:#5e73d7;fill-opacity:0.562791;fill-rule:nonzero;stroke:none"
       id="path98" /><path
       d="M 151.785,34.184 H 166.23 V 49.743 H 151.785 Z"
       style="fill:#5e73d7;fill-opacity:0.562791;fill-rule:nonzero;stroke:none"
       id="path100" /><path
       d="m 196.621,18.121 h 14.445 v 15.562 h -14.445 z"
       style="fill:#5e73d7;fill-opacity:0.562791;fill-rule:nonzero;stroke:none"
       id="path102" /><path
       d="m 181.676,18.121 h 14.445 v 15.562 h -14.445 z"
       style="fill:#5e73d7;fill-opacity:0.562791;fill-rule:nonzero;stroke:none"
       id="path104" /><path
       d="m 166.73,18.121 h 14.445 V 33.683 H 166.73 Z"
       style="fill:#5e73d7;fill-opacity:0.562791;fill-rule:nonzero;stroke:none"
       id="path106" /><path
       d="M 151.785,18.121 H 166.23 V 33.683 H 151.785 Z"
       style="fill:#5e73d7;fill-opacity:0.562791;fill-rule:nonzero;stroke:none"
       id="path108" /><path
       d="m 136.836,18.121 h 14.449 v 15.562 h -14.449 z"
       style="fill:#5e73d7;fill-opacity:0.562791;fill-rule:nonzero;stroke:none"
       id="path110" /><path
       d="m 132.922,54.301 0.023,-0.039 v -0.035 l 0.02,-0.036 v -0.062 l 0.023,-0.031 V 54.07 l 0.024,-0.023 V 54.02 l 0.043,-0.043 0.023,-0.02 0.024,-0.023 0.023,-0.016 0.02,-0.02 0.023,-0.015 0.023,-0.012 0.043,-0.016 0.024,-0.011 0.047,-0.012 0.019,-0.004 0.024,-0.004 0.023,-0.008 0.024,-0.004 0.019,-0.003 0.024,-0.004 0.046,-0.004 0.024,-0.004 0.019,-0.004 h 0.024 l 0.047,-0.004 0.019,-0.004 h 0.047 l 0.024,-0.004 h 0.042 l 0.047,-0.004 0.02,-0.004 h 0.226 l 0.043,-0.003 h 0.047 c 0.336,0 0.426,0 0.426,-0.211 0,-0.133 -0.109,-0.133 -0.18,-0.133 -0.359,0 -1.281,0.031 -1.664,0.031 -0.336,0 -1.144,-0.031 -1.484,-0.031 -0.066,0 -0.199,0 -0.199,0.222 0,0.122 0.09,0.122 0.312,0.122 0.024,0 0.227,0 0.43,0.023 0.18,0.023 0.289,0.035 0.289,0.18 0,0.047 -0.02,0.078 -0.043,0.215 l -1.508,6.015 c -0.113,0.438 -0.133,0.524 -1.012,0.524 -0.203,0 -0.312,0 -0.312,0.226 0,0.121 0.109,0.121 0.312,0.121 h 5.196 c 0.269,0 0.269,0 0.336,-0.187 l 0.879,-2.422 c 0.043,-0.121 0.043,-0.145 0.043,-0.156 0,-0.043 -0.024,-0.125 -0.133,-0.125 -0.09,0 -0.113,0.058 -0.18,0.238 -0.383,1.031 -0.879,2.305 -2.812,2.305 h -1.055 c -0.16,0 -0.184,0 -0.25,-0.012 -0.113,-0.008 -0.133,-0.02 -0.133,-0.11 0,-0.031 0,-0.058 0.043,-0.257 z"
       style="fill:#000000;fill-opacity:1;fill-rule:nonzero;stroke:none"
       id="path112" /><path
       d="m 140.07,63.762 v -0.055 l -0.019,-0.008 v -0.023 l -0.024,-0.004 v -0.02 l -0.023,-0.004 v -0.023 l -0.024,-0.004 v -0.019 l -0.019,-0.008 v -0.012 l -0.023,-0.008 v -0.015 l -0.024,-0.008 v -0.016 l -0.023,-0.008 V 63.52 c -1.395,-1.415 -1.754,-3.532 -1.754,-5.243 0,-1.953 0.429,-3.902 1.801,-5.3 0.132,-0.137 0.132,-0.157 0.132,-0.192 0,-0.078 -0.043,-0.109 -0.09,-0.109 -0.113,0 -1.125,0.758 -1.796,2.179 -0.563,1.235 -0.7,2.481 -0.7,3.422 0,0.875 0.114,2.227 0.743,3.493 0.675,1.378 1.64,2.105 1.753,2.105 0.047,0 0.09,-0.031 0.09,-0.113 z"
       style="fill:#000000;fill-opacity:1;fill-rule:nonzero;stroke:none"
       id="path114" /><path
       d="m 143.895,54.074 v -0.121 l -0.024,-0.019 v -0.036 l -0.023,-0.015 v -0.02 l -0.02,-0.015 v -0.016 l -0.023,-0.016 v -0.015 l -0.024,-0.016 v -0.012 l -0.023,-0.011 -0.02,-0.012 v -0.012 l -0.023,-0.011 -0.047,-0.016 v -0.012 l -0.02,-0.004 -0.023,-0.007 -0.07,-0.012 -0.02,-0.004 -0.023,-0.004 h -0.024 c -0.312,0 -0.605,0.293 -0.605,0.594 0,0.215 0.156,0.406 0.426,0.406 0.246,0 0.586,-0.258 0.586,-0.594 z"
       style="fill:#000000;fill-opacity:1;fill-rule:nonzero;stroke:none"
       id="path116" /><path
       d="m 143.039,58.285 0.023,-0.027 V 58.23 l 0.024,-0.027 V 58.18 l 0.019,-0.024 v -0.047 l 0.024,-0.019 v -0.02 l 0.023,-0.015 v -0.051 l 0.024,-0.02 v -0.031 l 0.019,-0.031 v -0.051 l 0.024,-0.016 V 57.82 l 0.023,-0.019 v -0.043 l 0.024,-0.02 v -0.047 l 0.019,-0.027 v -0.027 c 0.09,-0.227 0.16,-0.379 0.16,-0.594 0,-0.504 -0.359,-0.918 -0.922,-0.918 -1.058,0 -1.484,1.625 -1.484,1.723 0,0.113 0.113,0.113 0.133,0.113 0.113,0 0.137,-0.02 0.18,-0.203 0.316,-1.055 0.742,-1.387 1.125,-1.387 0.089,0 0.293,0 0.293,0.359 0,0.235 -0.09,0.469 -0.137,0.582 -0.09,0.293 -0.582,1.59 -0.762,2.075 -0.113,0.285 -0.25,0.66 -0.25,0.894 0,0.524 0.363,0.918 0.922,0.918 1.035,0 1.465,-1.621 1.465,-1.726 0,-0.114 -0.113,-0.114 -0.137,-0.114 -0.113,0 -0.113,0.039 -0.18,0.207 -0.203,0.7 -0.562,1.387 -1.148,1.387 -0.18,0 -0.27,-0.113 -0.27,-0.371 0,-0.281 0.09,-0.437 0.34,-1.117 z"
       style="fill:#000000;fill-opacity:1;fill-rule:nonzero;stroke:none"
       id="path118" /><path
       d="m 147.805,58.277 v -0.539 l -0.02,-0.199 -0.023,-0.207 -0.024,-0.215 -0.023,-0.219 -0.043,-0.226 -0.047,-0.227 -0.043,-0.234 -0.066,-0.238 -0.071,-0.239 -0.066,-0.238 -0.09,-0.238 -0.047,-0.121 -0.066,-0.117 -0.043,-0.122 -0.071,-0.117 c -0.648,-1.379 -1.617,-2.105 -1.73,-2.105 -0.066,0 -0.113,0.043 -0.113,0.109 0,0.035 0,0.055 0.203,0.258 1.101,1.109 1.73,2.887 1.73,5.234 0,1.914 -0.402,3.887 -1.797,5.297 -0.136,0.133 -0.136,0.156 -0.136,0.188 0,0.07 0.047,0.113 0.113,0.113 0.113,0 1.102,-0.762 1.777,-2.184 0.563,-1.23 0.696,-2.476 0.696,-3.414 z"
       style="fill:#000000;fill-opacity:1;fill-rule:nonzero;stroke:none"
       id="path120" /><path
       d="m 175.895,54.074 v -0.121 l -0.024,-0.019 v -0.036 l -0.023,-0.015 v -0.02 l -0.02,-0.015 v -0.016 l -0.023,-0.016 v -0.015 l -0.024,-0.016 v -0.012 l -0.023,-0.011 -0.02,-0.012 v -0.012 l -0.023,-0.011 -0.047,-0.016 v -0.012 l -0.02,-0.004 -0.023,-0.007 -0.047,-0.008 -0.019,-0.004 -0.047,-0.008 h -0.024 c -0.312,0 -0.605,0.293 -0.605,0.594 0,0.215 0.156,0.406 0.426,0.406 0.25,0 0.586,-0.258 0.586,-0.594 z"
       style="fill:#000000;fill-opacity:1;fill-rule:nonzero;stroke:none"
       id="path122" /><path
       d="m 174.012,58.285 0.023,-0.027 V 58.23 l 0.02,-0.027 V 58.18 l 0.023,-0.024 v -0.047 l 0.024,-0.019 v -0.02 l 0.023,-0.015 v -0.051 l 0.02,-0.02 v -0.031 l 0.023,-0.031 v -0.051 l 0.023,-0.016 V 57.82 l 0.024,-0.019 v -0.043 l 0.019,-0.02 v -0.047 l 0.024,-0.027 v -0.027 c 0.09,-0.227 0.156,-0.379 0.156,-0.594 0,-0.504 -0.359,-0.918 -0.922,-0.918 -1.054,0 -1.484,1.625 -1.484,1.723 0,0.113 0.113,0.113 0.137,0.113 0.113,0 0.136,-0.023 0.179,-0.203 0.317,-1.055 0.742,-1.387 1.125,-1.387 0.09,0 0.293,0 0.293,0.359 0,0.235 -0.09,0.469 -0.137,0.582 -0.089,0.293 -0.582,1.59 -0.765,2.075 -0.11,0.285 -0.246,0.66 -0.246,0.894 0,0.524 0.359,0.918 0.922,0.918 1.035,0 1.461,-1.621 1.461,-1.726 0,-0.114 -0.11,-0.114 -0.133,-0.114 -0.114,0 -0.114,0.036 -0.18,0.207 -0.203,0.7 -0.562,1.387 -1.148,1.387 -0.18,0 -0.27,-0.113 -0.27,-0.371 0,-0.281 0.09,-0.437 0.336,-1.117 z"
       style="fill:#000000;fill-opacity:1;fill-rule:nonzero;stroke:none"
       id="path124" /><path
       d="m 126.43,42.688 1.246,-1.204 c 1.832,-1.617 2.535,-2.246 2.535,-3.418 0,-1.336 -1.055,-2.273 -2.488,-2.273 -1.34,0 -2.188,1.078 -2.188,2.121 0,0.652 0.59,0.652 0.613,0.652 0.211,0 0.61,-0.136 0.61,-0.621 0,-0.3 -0.211,-0.605 -0.61,-0.605 -0.093,0 -0.117,0 -0.164,0.012 0.282,-0.762 0.914,-1.196 1.575,-1.196 1.078,0 1.574,0.949 1.574,1.91 0,0.938 -0.59,1.86 -1.223,2.59 l -2.258,2.5 c -0.117,0.129 -0.117,0.153 -0.117,0.438 h 4.324 l 0.352,-2.039 h -0.305 c -0.047,0.351 -0.14,0.863 -0.258,1.043 -0.093,0.09 -0.843,0.09 -1.105,0.09 z"
       style="fill:#000000;fill-opacity:1;fill-rule:nonzero;stroke:none"
       id="path126" /><path
       d="m 136.207,39.621 0.023,-0.023 v -0.051 l 0.024,-0.027 v -0.055 l 0.023,-0.059 v -0.062 l 0.047,-0.117 v -0.082 l 0.024,-0.028 v -0.051 l 0.023,-0.027 v -0.082 l 0.024,-0.019 v -0.075 c 0,-0.215 -0.165,-0.316 -0.329,-0.316 -0.144,0 -0.355,0.09 -0.449,0.328 -0.023,0.078 -0.586,2.316 -0.656,2.621 -0.094,0.352 -0.117,0.563 -0.117,0.774 0,0.128 0,0.148 0.023,0.207 -0.281,0.621 -0.637,0.988 -1.082,0.988 -0.941,0 -0.941,-0.867 -0.941,-1.067 0,-0.375 0.07,-0.836 0.613,-2.273 0.141,-0.348 0.188,-0.516 0.188,-0.75 0,-0.523 -0.375,-0.957 -0.965,-0.957 -1.106,0 -1.528,1.695 -1.528,1.801 0,0.117 0.118,0.117 0.141,0.117 0.117,0 0.117,-0.024 0.187,-0.211 0.309,-1.086 0.778,-1.449 1.176,-1.449 0.117,0 0.305,0.008 0.305,0.386 0,0.293 -0.141,0.618 -0.211,0.817 -0.516,1.383 -0.656,1.922 -0.656,2.363 0,1.067 0.773,1.481 1.644,1.481 0.211,0 0.75,0 1.223,-0.821 0.305,0.75 1.129,0.821 1.48,0.821 0.868,0 1.387,-0.743 1.692,-1.442 0.398,-0.914 0.777,-2.48 0.777,-3.043 0,-0.648 -0.332,-0.82 -0.519,-0.82 -0.305,0 -0.586,0.305 -0.586,0.562 0,0.149 0.07,0.219 0.164,0.317 0.14,0.125 0.422,0.433 0.422,0.992 0,0.399 -0.329,1.547 -0.633,2.141 -0.305,0.621 -0.731,1.035 -1.293,1.035 -0.543,0 -0.871,-0.356 -0.871,-1.02 0,-0.328 0.094,-0.691 0.14,-0.855 z"
       style="fill:#000000;fill-opacity:1;fill-rule:nonzero;stroke:none"
       id="path128" /><path
       d="m 146.875,40.902 h 3.266 c 0.164,0 0.402,0 0.402,-0.234 0,-0.238 -0.238,-0.238 -0.402,-0.238 h -3.266 v -3.278 c 0,-0.164 0,-0.386 -0.234,-0.386 -0.235,0 -0.235,0.222 -0.235,0.386 v 3.278 h -3.269 c -0.164,0 -0.399,0 -0.399,0.238 0,0.234 0.235,0.234 0.399,0.234 h 3.269 v 3.274 c 0,0.168 0,0.39 0.235,0.39 0.234,0 0.234,-0.222 0.234,-0.39 z"
       style="fill:#000000;fill-opacity:1;fill-rule:nonzero;stroke:none"
       id="path130" /><path
       d="M 157.238,36.098 V 35.93 l -0.023,-0.012 v -0.07 l -0.024,-0.008 v -0.016 l -0.023,-0.004 v -0.004 l -0.023,-0.004 v -0.007 h -0.024 v -0.004 h -0.023 v -0.004 h -0.024 v -0.004 h -0.117 c -0.727,0.75 -1.738,0.75 -2.113,0.75 v 0.363 c 0.234,0 0.914,0 1.527,-0.304 v 6.066 c 0,0.422 -0.047,0.559 -1.082,0.559 h -0.375 v 0.367 c 0.398,-0.039 1.41,-0.039 1.879,-0.039 0.469,0 1.504,0 1.902,0.039 v -0.367 h -0.375 c -1.058,0 -1.082,-0.129 -1.082,-0.559 z"
       style="fill:#000000;fill-opacity:1;fill-rule:nonzero;stroke:none"
       id="path132" /><g
       id="g134"><path
         d="M 111.441,34.363 H 178"
         style="fill:none;stroke:#000000;stroke-width:0.8;stroke-linecap:butt;stroke-linejoin:miter;stroke-miterlimit:4;stroke-dasharray:none;stroke-opacity:1"
         id="path136" /></g><g
       id="g138"><path
         d="m 111.645,34.363 1.597,-1.601 -5.597,1.601 5.597,1.602 z"
         style="fill:#000000;fill-opacity:1;fill-rule:evenodd;stroke:#000000;stroke-width:0.4;stroke-linecap:butt;stroke-linejoin:miter;stroke-miterlimit:4;stroke-dasharray:none;stroke-opacity:1"
         id="path140" /></g><g
       id="g142"><path
         d="m 176.805,34.363 -1.602,1.602 5.602,-1.602 -5.602,-1.601 z"
         style="fill:#000000;fill-opacity:1;fill-rule:evenodd;stroke:#000000;stroke-width:0.4;stroke-linecap:butt;stroke-linejoin:miter;stroke-miterlimit:4;stroke-dasharray:none;stroke-opacity:1"
         id="path144" /></g><g
       id="g146"><path
         d="m 78.113,26.363 h 27.285"
         style="fill:none;stroke:#000000;stroke-width:0.8;stroke-linecap:butt;stroke-linejoin:miter;stroke-miterlimit:4;stroke-dasharray:none;stroke-opacity:1"
         id="path148" /></g><g
       id="g150"><path
         d="m 81.605,26.363 1.602,-1.601 -5.602,1.601 5.602,1.602 z"
         style="fill:#000000;fill-opacity:1;fill-rule:evenodd;stroke:#000000;stroke-width:0.4;stroke-linecap:butt;stroke-linejoin:miter;stroke-miterlimit:4;stroke-dasharray:none;stroke-opacity:1"
         id="path152" /></g><g
       id="g154"><path
         d="m 102.199,26.363 -1.597,1.602 5.597,-1.602 -5.597,-1.601 z"
         style="fill:#000000;fill-opacity:1;fill-rule:evenodd;stroke:#000000;stroke-width:0.4;stroke-linecap:butt;stroke-linejoin:miter;stroke-miterlimit:4;stroke-dasharray:none;stroke-opacity:1"
         id="path156" /></g><path
       d="m 93.848,31.68 v -0.028 l 0.019,-0.023 v -0.051 l 0.024,-0.027 v -0.082 l 0.023,-0.055 0.024,-0.059 v -0.054 l 0.023,-0.055 v -0.051 l 0.019,-0.023 v -0.074 l 0.024,-0.02 v -0.086 l 0.023,-0.012 v -0.031 c 0,-0.203 -0.16,-0.301 -0.339,-0.301 -0.133,0 -0.336,0.086 -0.403,0.313 -0.047,0.078 -0.562,2.219 -0.652,2.508 -0.067,0.34 -0.09,0.539 -0.09,0.742 v 0.199 c -0.246,0.594 -0.586,0.942 -1.012,0.942 -0.898,0 -0.898,-0.829 -0.898,-1.02 0,-0.355 0.043,-0.797 0.582,-2.172 0.113,-0.336 0.18,-0.492 0.18,-0.719 0,-0.5 -0.36,-0.918 -0.922,-0.918 -1.055,0 -1.485,1.625 -1.485,1.727 0,0.113 0.114,0.113 0.16,0.113 0.11,0 0.11,-0.023 0.157,-0.203 0.316,-1.043 0.742,-1.387 1.148,-1.387 0.09,0 0.27,0.008 0.27,0.368 0,0.281 -0.114,0.593 -0.203,0.781 -0.497,1.324 -0.629,1.84 -0.629,2.262 0,1.023 0.761,1.418 1.593,1.418 0.204,0 0.723,0 1.172,-0.786 0.289,0.715 1.055,0.786 1.395,0.786 0.851,0 1.324,-0.711 1.617,-1.379 0.383,-0.875 0.742,-2.375 0.742,-2.914 0,-0.618 -0.293,-0.786 -0.496,-0.786 -0.269,0 -0.562,0.293 -0.562,0.539 0,0.145 0.089,0.211 0.179,0.305 0.114,0.121 0.407,0.414 0.407,0.949 0,0.379 -0.336,1.481 -0.606,2.051 -0.316,0.59 -0.699,0.985 -1.238,0.985 -0.539,0 -0.832,-0.336 -0.832,-0.973 0,-0.317 0.066,-0.664 0.113,-0.82 z"
       style="fill:#000000;fill-opacity:1;fill-rule:nonzero;stroke:none"
       id="path158" /><g
       id="g160"><path
         d="m 182.281,26.363 h 27.285"
         style="fill:none;stroke:#000000;stroke-width:0.8;stroke-linecap:butt;stroke-linejoin:miter;stroke-miterlimit:4;stroke-dasharray:none;stroke-opacity:1"
         id="path162" /></g><g
       id="g164"><path
         d="m 185.773,26.363 1.602,-1.601 -5.602,1.601 5.602,1.602 z"
         style="fill:#000000;fill-opacity:1;fill-rule:evenodd;stroke:#000000;stroke-width:0.4;stroke-linecap:butt;stroke-linejoin:miter;stroke-miterlimit:4;stroke-dasharray:none;stroke-opacity:1"
         id="path166" /></g><g
       id="g168"><path
         d="m 206.367,26.363 -1.597,1.602 5.597,-1.602 -5.597,-1.601 z"
         style="fill:#000000;fill-opacity:1;fill-rule:evenodd;stroke:#000000;stroke-width:0.4;stroke-linecap:butt;stroke-linejoin:miter;stroke-miterlimit:4;stroke-dasharray:none;stroke-opacity:1"
         id="path170" /></g><path
       d="m 198.016,31.68 v -0.028 l 0.019,-0.023 v -0.051 l 0.024,-0.027 v -0.082 l 0.023,-0.055 0.023,-0.059 v -0.054 l 0.024,-0.055 v -0.051 l 0.019,-0.023 v -0.074 l 0.024,-0.02 v -0.086 l 0.023,-0.012 v -0.031 c 0,-0.203 -0.16,-0.301 -0.34,-0.301 -0.132,0 -0.335,0.086 -0.402,0.313 -0.047,0.078 -0.562,2.219 -0.652,2.508 -0.067,0.34 -0.09,0.539 -0.09,0.742 v 0.199 c -0.246,0.594 -0.586,0.942 -1.012,0.942 -0.898,0 -0.898,-0.829 -0.898,-1.02 0,-0.355 0.043,-0.797 0.582,-2.172 0.113,-0.336 0.179,-0.492 0.179,-0.719 0,-0.5 -0.359,-0.918 -0.921,-0.918 -1.055,0 -1.485,1.625 -1.485,1.727 0,0.113 0.114,0.113 0.16,0.113 0.11,0 0.11,-0.023 0.157,-0.203 0.316,-1.043 0.742,-1.387 1.148,-1.387 0.09,0 0.27,0.008 0.27,0.368 0,0.281 -0.114,0.593 -0.203,0.781 -0.497,1.324 -0.629,1.84 -0.629,2.262 0,1.023 0.761,1.418 1.593,1.418 0.203,0 0.723,0 1.172,-0.786 0.289,0.715 1.055,0.786 1.395,0.786 0.851,0 1.324,-0.711 1.617,-1.379 0.383,-0.875 0.742,-2.375 0.742,-2.914 0,-0.618 -0.293,-0.786 -0.496,-0.786 -0.27,0 -0.562,0.293 -0.562,0.539 0,0.145 0.089,0.211 0.179,0.305 0.113,0.121 0.406,0.414 0.406,0.949 0,0.379 -0.335,1.481 -0.605,2.051 -0.316,0.59 -0.699,0.985 -1.238,0.985 -0.539,0 -0.832,-0.336 -0.832,-0.973 0,-0.317 0.066,-0.664 0.113,-0.82 z"
       style="fill:#000000;fill-opacity:1;fill-rule:nonzero;stroke:none"
       id="path172" /></g></svg>
