<?xml version="1.0" encoding="UTF-8" standalone="no"?>
<!-- Created with Inkscape (http://www.inkscape.org/) -->

<svg
   xmlns:dc="http://purl.org/dc/elements/1.1/"
   xmlns:cc="http://creativecommons.org/ns#"
   xmlns:rdf="http://www.w3.org/1999/02/22-rdf-syntax-ns#"
   xmlns:svg="http://www.w3.org/2000/svg"
   xmlns="http://www.w3.org/2000/svg"
   xmlns:sodipodi="http://sodipodi.sourceforge.net/DTD/sodipodi-0.dtd"
   xmlns:inkscape="http://www.inkscape.org/namespaces/inkscape"
   width="274.8381"
   height="200.81581"
   id="svg2"
   version="1.1"
   inkscape:version="0.48.4 r9939"
   sodipodi:docname="peeling-schematic.pdf">
  <sodipodi:namedview
     id="base"
     pagecolor="#ffffff"
     bordercolor="#666666"
     borderopacity="1.0"
     inkscape:pageopacity="0.0"
     inkscape:pageshadow="2"
     inkscape:zoom="2.8"
     inkscape:cx="134.01576"
     inkscape:cy="41.375061"
     inkscape:document-units="px"
     inkscape:current-layer="layer1"
     showgrid="false"
     inkscape:window-width="1600"
     inkscape:window-height="841"
     inkscape:window-x="0"
     inkscape:window-y="27"
     inkscape:window-maximized="1"
     fit-margin-top="0"
     fit-margin-left="0"
     fit-margin-right="0"
     fit-margin-bottom="0">
    <inkscape:grid
       originy="-393.32636pt"
       originx="-119.52953pt"
       snapvisiblegridlinesonly="true"
       enabled="true"
       visible="true"
       empspacing="5"
       units="pt"
       id="grid2985"
       type="xygrid" />
  </sodipodi:namedview>
  <defs
     id="defs4">
    <marker
       style="overflow:visible"
       id="Arrow1Lstart"
       refX="0"
       refY="0"
       orient="auto"
       inkscape:stockid="Arrow1Lstart">
      <path
         inkscape:connector-curvature="0"
         transform="matrix(0.8,0,0,0.8,10,0)"
         style="fill-rule:evenodd;stroke:#000000;stroke-width:1pt"
         d="M 0,0 5,-5 -12.5,0 5,5 0,0 z"
         id="path4194" />
    </marker>
    <marker
       style="overflow:visible"
       id="Arrow1Lend"
       refX="0"
       refY="0"
       orient="auto"
       inkscape:stockid="Arrow1Lend">
      <path
         inkscape:connector-curvature="0"
         transform="matrix(-0.8,0,0,-0.8,-10,0)"
         style="fill-rule:evenodd;stroke:#000000;stroke-width:1pt"
         d="M 0,0 5,-5 -12.5,0 5,5 0,0 z"
         id="path4197" />
    </marker>
  </defs>
  <metadata
     id="metadata7">
    <rdf:RDF>
      <cc:Work
         rdf:about="">
        <dc:format>image/svg+xml</dc:format>
        <dc:type
           rdf:resource="http://purl.org/dc/dcmitype/StillImage" />
        <dc:title></dc:title>
      </cc:Work>
    </rdf:RDF>
  </metadata>
  <g
     transform="translate(-149.41191,-359.88841)"
     id="layer1"
     inkscape:groupmode="layer"
     inkscape:label="Layer 1">
    <g
       transform="matrix(-0.51971275,0,0,0.67826523,485.60546,175.80993)"
       id="g2991">
      <path
         style="fill:none;stroke:#000000;stroke-width:1.68429649px;stroke-linecap:butt;stroke-linejoin:miter;stroke-opacity:1"
         d="m 212.5,514.86218 150,-212.5 175,212.5"
         id="path2987"
         inkscape:connector-curvature="0"
         sodipodi:nodetypes="ccc" />
      <path
         style="fill:none;stroke:#000000;stroke-width:1.68429649px;stroke-linecap:butt;stroke-linejoin:miter;stroke-opacity:1"
         d="m 400,514.86218 75,-75"
         id="path2989"
         inkscape:connector-curvature="0" />
    </g>
    <g
       id="g3790"
       transform="matrix(0.52528573,0,0,0.52528573,134.09247,184.12255)">
      <g
         word-spacing="normal"
         letter-spacing="normal"
         font-size-adjust="none"
         font-stretch="normal"
         font-weight="normal"
         font-variant="normal"
         font-style="normal"
         stroke-miterlimit="10.433"
         xml:space="preserve"
         transform="matrix(1.0629921,0,0,-1.0629921,-186.02362,789.27165)"
         id="content"
         style="font-style:normal;font-variant:normal;font-weight:normal;font-stretch:normal;letter-spacing:normal;word-spacing:normal;text-anchor:start;fill:none;stroke:#000000;stroke-width:1.90372574;stroke-linecap:butt;stroke-linejoin:miter;stroke-miterlimit:10.43299961;stroke-opacity:1;stroke-dasharray:none;stroke-dashoffset:0"><path
           id="path3793"
           d="m 468.72,424.78 h 5.63 c -1.64,-7.38 -2.1,-9.52 -2.1,-12.85 0,-0.75 0,-2.09 0.41,-3.79 0.5,-2.19 1.05,-2.49 1.8,-2.49 0.98,0 2.03,0.89 2.03,1.89 0,0.3 0,0.41 -0.3,1.1 -1.44,3.59 -1.44,6.82 -1.44,8.22 0,2.64 0.35,5.34 0.89,7.92 h 5.69 c 0.64,0 2.44,0 2.44,1.7 0,1.19 -1.05,1.19 -2,1.19 h -16.69 c -1.09,0 -2.98,0 -5.17,-2.35 -1.75,-1.93 -3.05,-4.23 -3.05,-4.48 0,-0.05 0,-0.48 0.6,-0.48 0.4,0 0.5,0.18 0.79,0.59 2.46,3.83 5.35,3.83 6.33,3.83 h 2.85 c -1.6,-6.02 -4.29,-12.05 -6.38,-16.58 -0.41,-0.75 -0.41,-0.86 -0.41,-1.2 0,-0.96 0.8,-1.35 1.46,-1.35 1.5,0 1.89,1.39 2.48,3.24 0.71,2.29 0.71,2.39 1.35,4.89 z"
           inkscape:connector-curvature="0"
           style="fill:#000000;stroke-width:0" /></g>    </g>
    <g
       id="g3887"
       transform="matrix(0.4097303,0,0,0.4097303,222.00422,308.4537)">
      <g
         word-spacing="normal"
         letter-spacing="normal"
         font-size-adjust="none"
         font-stretch="normal"
         font-weight="normal"
         font-variant="normal"
         font-style="normal"
         stroke-miterlimit="10.433"
         xml:space="preserve"
         transform="matrix(1.0629921,0,0,-1.0629921,-186.02362,789.27165)"
         id="g3889"
         style="font-style:normal;font-variant:normal;font-weight:normal;font-stretch:normal;letter-spacing:normal;word-spacing:normal;text-anchor:start;fill:none;stroke:#000000;stroke-width:2.44062996;stroke-linecap:butt;stroke-linejoin:miter;stroke-miterlimit:10.43299961;stroke-opacity:1;stroke-dasharray:none;stroke-dashoffset:0"><path
           id="path3891"
           d="m 464.83,417.71 0.14,0.01 0.16,0 0.17,0 0.17,0 0.19,0.01 0.2,0 0.21,0.01 0.22,0.01 0.22,0.01 0.23,0.01 0.24,0.01 0.25,0.02 0.25,0.02 0.25,0.02 0.53,0.05 0.53,0.07 0.55,0.07 0.54,0.1 0.54,0.11 0.54,0.12 0.26,0.07 0.26,0.08 0.25,0.08 0.25,0.08 0.24,0.09 0.24,0.1 c 3.48,1.5 3.73,4.43 3.73,5.12 0,2.2 -1.89,4.23 -5.33,4.23 v -1.09 c 2.35,0 3.69,-1.44 3.69,-3.14 0,-5.17 -7.97,-5.17 -10.01,-5.17 h -2.05 c 1.95,7.56 7.08,8.31 8.37,8.31 v 1.09 c -5.53,0 -13.04,-4.82 -13.04,-13.54 0,-5.08 2.93,-9.02 7.81,-9.02 7.12,0 11.31,5.28 11.31,5.88 0,0.29 -0.3,0.65 -0.59,0.65 -0.25,0 -0.35,-0.11 -0.66,-0.5 -3.94,-4.93 -9.36,-4.93 -9.95,-4.93 -3.89,0 -4.35,4.18 -4.35,5.78 0,0.59 0.05,2.14 0.8,5.18 z"
           inkscape:connector-curvature="0"
           style="fill:#000000;stroke-width:0" /><path
           id="path3893"
           d="m 487.26,437.96 h 3.54 c 0.66,0 1.11,0 1.11,0.77 0,0.48 -0.45,0.48 -1.03,0.48 h -3.31 l 1.28,5.16 c 0.03,0.17 0.11,0.34 0.11,0.49 0,0.64 -0.48,1.12 -1.19,1.12 -0.87,0 -1.39,-0.59 -1.64,-1.5 -0.23,-0.87 0.22,0.8 -1.33,-5.27 h -3.54 c -0.66,0 -1.11,0 -1.11,-0.76 0,-0.49 0.4,-0.49 1.05,-0.49 h 3.29 l -2.04,-8.21 c -0.22,-0.88 -0.54,-2.13 -0.54,-2.58 0,-2.06 1.75,-3.31 3.74,-3.31 3.87,0 6.06,4.87 6.06,5.32 0,0.46 -0.45,0.46 -0.56,0.46 -0.41,0 -0.45,-0.08 -0.72,-0.66 -0.98,-2.2 -2.77,-4.16 -4.67,-4.16 -0.74,0 -1.22,0.46 -1.22,1.71 0,0.36 0.14,1.09 0.2,1.43 z"
           inkscape:connector-curvature="0"
           style="fill:#000000;stroke-width:0" /><path
           id="path3895"
           d="m 517.96,436.5 0,0 0,0 0,0 0,0.01 0,0 0,0 0,0.01 0,0.01 0,0.01 0,0.01 -0.01,0.01 0,0.01 0,0.02 0,0.01 -0.01,0.02 -0.01,0.01 0,0.02 -0.01,0.01 -0.01,0.02 -0.01,0.01 -0.01,0.02 -0.01,0.01 -0.01,0.02 -0.01,0.01 -0.01,0 -0.01,0.01 -0.01,0.01 0,0 -0.01,0.01 -0.01,0.01 -0.01,0 -0.01,0.01 -0.02,0 -0.01,0.01 -0.01,0 -0.01,0.01 -0.01,0 -0.02,0.01 -0.01,0 -0.02,0 -0.01,0.01 -0.02,0 -0.01,0 -0.02,0 -0.01,0 -0.02,0 -0.02,0 c -0.16,0 -0.17,-0.03 -0.47,-0.29 l -1.72,-1.72 c -0.06,-0.05 -0.23,-0.24 -0.28,-0.24 -0.05,0 -0.09,0.08 -0.12,0.08 -0.5,0.55 -2.02,2.17 -5.28,2.17 -6.85,0 -13.16,-5.36 -13.16,-10.81 0,-4.06 3.5,-7.3 8.83,-7.3 2.51,0 4.73,0.85 6.25,1.82 3.18,2.07 3.56,4.73 3.56,4.76 0,0.35 -0.34,0.35 -0.53,0.35 -0.27,0 -0.42,-0.02 -0.52,-0.33 -1.2,-3.92 -5.33,-5.47 -8.14,-5.47 -2.92,0 -6.69,1.23 -6.69,5.59 0,2.8 1.47,5.69 3.05,7.19 2.89,2.74 6.17,3.08 7.72,3.08 3.19,0 5.2,-2.06 5.2,-4.92 0,-0.57 -0.04,-0.68 -0.04,-0.83 0,-0.38 0.34,-0.38 0.57,-0.38 0.47,0 0.47,0.08 0.6,0.55 z"
           inkscape:connector-curvature="0"
           style="fill:#000000;stroke-width:0" /><path
           id="path3897"
           d="m 552.22,448.25 -0.01,0.01 0,0.02 0,0.02 0,0.01 0,0.02 -0.01,0.02 0,0.02 -0.01,0.02 0,0.02 -0.01,0.02 -0.01,0.02 -0.01,0.01 -0.01,0.02 -0.01,0.02 -0.01,0.02 -0.01,0.02 -0.02,0.01 -0.01,0.02 -0.02,0.02 -0.01,0.01 -0.02,0.02 -0.02,0.01 -0.02,0.01 -0.02,0.01 -0.03,0.01 -0.02,0.01 -0.02,0.01 -0.03,0.01 -0.01,0 -0.02,0 -0.01,0 -0.02,0.01 -0.01,0 -0.02,0 -0.01,0 -0.02,0 c -0.25,0 -0.31,-0.08 -0.62,-0.42 l -2.55,-2.69 c -0.31,0.42 -2.27,3.11 -6.55,3.11 -8.47,0 -16.76,-7.5 -16.76,-15.38 0,-5.39 4.11,-9.82 10.79,-9.82 3.08,0 6.32,0.81 8.13,2.76 0.34,-0.76 1.3,-2.03 1.7,-2.03 0.32,0 0.39,0.14 0.57,0.88 l 0.65,2.68 c 0.17,0.63 0.67,2.72 0.77,3.13 0.42,1.58 0.45,1.61 2.51,1.64 0.25,0 0.77,0 0.77,0.73 0,0.35 -0.25,0.52 -0.52,0.52 -1.15,0 -2.62,-0.13 -3.84,-0.13 -0.86,0 -2.02,0 -2.89,0.03 -0.88,0.04 -1.88,0.1 -2.75,0.1 -0.25,0 -0.77,0 -0.77,-0.77 0,-0.48 0.38,-0.48 1.25,-0.48 0.67,0 1.36,0 2.03,-0.06 1.11,-0.11 1.14,-0.25 1.14,-0.68 0,-0.14 0,-0.2 -0.23,-1.11 -0.25,-0.96 -0.64,-2.54 -0.78,-2.89 -1,-2.12 -4.25,-3.06 -6.97,-3.06 -3.49,0 -8.05,1.67 -8.05,7.56 0,3.72 1.75,8.39 4.33,11 3.6,3.57 7.31,4.11 9.27,4.11 4.04,0 6.4,-2.92 6.4,-6.82 0,-0.97 -0.09,-1.22 -0.09,-1.43 0,-0.45 0.45,-0.45 0.62,-0.45 0.57,0 0.57,0.11 0.74,0.77 z"
           inkscape:connector-curvature="0"
           style="fill:#000000;stroke-width:0" /><path
           id="path3899"
           d="m 571.41,421.95 0.21,1.28 3.39,13.56 c 0.44,1.74 0.54,1.89 2.69,1.89 h 4.78 c 4.14,0 6.78,-1.34 6.78,-4.78 0,-1.95 -1,-6.23 -2.94,-8.03 -2.5,-2.23 -5.48,-2.64 -7.69,-2.64 h -7.01 l -0.21,-1.28 h 8.47 c 7.08,0 14,5.17 14,10.75 0,3.84 -3.28,7.53 -9.81,7.53 h -16.14 c -0.95,0 -1.5,0 -1.5,-0.95 0,-0.6 0.45,-0.6 1.45,-0.6 0.64,0 1.55,-0.04 2.14,-0.09 0.8,-0.11 1.1,-0.25 1.1,-0.8 0,-0.2 -0.05,-0.36 -0.21,-0.95 l -6.67,-26.75 c -0.5,-1.95 -0.59,-2.34 -4.53,-2.34 -0.84,0 -1.39,0 -1.39,-0.96 0,-0.59 0.59,-0.59 0.73,-0.59 1.41,0 4.94,0.16 6.33,0.16 1.05,0 2.14,-0.07 3.19,-0.07 1.11,0 2.2,-0.09 3.25,-0.09 0.34,0 0.98,0 0.98,1 0,0.55 -0.43,0.55 -1.39,0.55 -1.84,0 -3.23,0 -3.23,0.89 0,0.29 0.09,0.54 0.14,0.84 z"
           inkscape:connector-curvature="0"
           style="fill:#000000;stroke-width:0" /></g>    </g>
    <g
       transform="translate(-151.52288,144.45181)"
       id="g3955">
      <g
         style="font-style:normal;font-variant:normal;font-weight:normal;font-stretch:normal;letter-spacing:normal;word-spacing:normal;text-anchor:start;fill:none;stroke:#000000;stroke-width:2.49696827;stroke-linecap:butt;stroke-linejoin:miter;stroke-miterlimit:10.43299961;stroke-opacity:1;stroke-dasharray:none;stroke-dashoffset:0"
         id="g3957"
         transform="matrix(0.43086944,0,0,-0.4206185,103.69084,528.37161)"
         xml:space="preserve"
         stroke-miterlimit="10.433"
         font-style="normal"
         font-variant="normal"
         font-weight="normal"
         font-stretch="normal"
         font-size-adjust="none"
         letter-spacing="normal"
         word-spacing="normal"><path
           style="fill:#000000;stroke-width:0"
           inkscape:connector-curvature="0"
           d="m 464.83,417.71 0.14,0.01 0.16,0 0.17,0 0.17,0 0.19,0.01 0.2,0 0.21,0.01 0.22,0.01 0.22,0.01 0.23,0.01 0.24,0.01 0.25,0.02 0.25,0.02 0.25,0.02 0.53,0.05 0.53,0.07 0.55,0.07 0.54,0.1 0.54,0.11 0.54,0.12 0.26,0.07 0.26,0.08 0.25,0.08 0.25,0.08 0.24,0.09 0.24,0.1 c 3.48,1.5 3.73,4.43 3.73,5.12 0,2.2 -1.89,4.23 -5.33,4.23 v -1.09 c 2.35,0 3.69,-1.44 3.69,-3.14 0,-5.17 -7.97,-5.17 -10.01,-5.17 h -2.05 c 1.95,7.56 7.08,8.31 8.37,8.31 v 1.09 c -5.53,0 -13.04,-4.82 -13.04,-13.54 0,-5.08 2.93,-9.02 7.81,-9.02 7.12,0 11.31,5.28 11.31,5.88 0,0.29 -0.3,0.65 -0.59,0.65 -0.25,0 -0.35,-0.11 -0.66,-0.5 -3.94,-4.93 -9.36,-4.93 -9.95,-4.93 -3.89,0 -4.35,4.18 -4.35,5.78 0,0.59 0.05,2.14 0.8,5.18 z"
           id="path3959" /><path
           style="fill:#000000;stroke-width:0"
           inkscape:connector-curvature="0"
           d="m 487.26,437.96 h 3.54 c 0.66,0 1.11,0 1.11,0.77 0,0.48 -0.45,0.48 -1.03,0.48 h -3.31 l 1.28,5.16 c 0.03,0.17 0.11,0.34 0.11,0.49 0,0.64 -0.48,1.12 -1.19,1.12 -0.87,0 -1.39,-0.59 -1.64,-1.5 -0.23,-0.87 0.22,0.8 -1.33,-5.27 h -3.54 c -0.66,0 -1.11,0 -1.11,-0.76 0,-0.49 0.4,-0.49 1.05,-0.49 h 3.29 l -2.04,-8.21 c -0.22,-0.88 -0.54,-2.13 -0.54,-2.58 0,-2.06 1.75,-3.31 3.74,-3.31 3.87,0 6.06,4.87 6.06,5.32 0,0.46 -0.45,0.46 -0.56,0.46 -0.41,0 -0.45,-0.08 -0.72,-0.66 -0.98,-2.2 -2.77,-4.16 -4.67,-4.16 -0.74,0 -1.22,0.46 -1.22,1.71 0,0.36 0.14,1.09 0.2,1.43 z"
           id="path3961" /><path
           style="fill:#000000;stroke-width:0"
           inkscape:connector-curvature="0"
           d="m 511.79,436.44 -0.01,0.05 -0.01,0.04 -0.01,0.05 -0.01,0.04 -0.01,0.04 -0.01,0.04 -0.01,0.03 -0.01,0.04 -0.01,0.03 -0.02,0.03 -0.01,0.03 -0.02,0.03 -0.01,0.02 -0.02,0.03 -0.02,0.02 -0.02,0.02 -0.02,0.02 -0.02,0.02 -0.02,0.01 -0.03,0.02 -0.02,0.01 -0.03,0.01 -0.03,0.01 -0.04,0.01 -0.03,0.01 -0.04,0.01 -0.04,0 -0.04,0.01 -0.04,0 -0.04,0 -0.05,0 -0.05,0 c -0.59,0 -0.75,-0.2 -1,-0.57 l -9.77,-14.16 c -1.03,-1.51 -1.9,-1.91 -3.53,-1.98 -0.47,-0.03 -0.47,-0.68 -0.47,-0.71 0,-0.34 0.3,-0.42 0.39,-0.42 0.36,0 0.79,0.08 1.13,0.08 0.42,0 0.84,0.02 1.26,0.02 0.49,0 0.93,-0.02 1.38,-0.02 0.45,0 0.97,-0.08 1.42,-0.08 0.17,0 0.6,0 0.6,0.7 0,0.4 -0.38,0.43 -0.47,0.43 -0.21,0 -1.18,0.04 -1.18,0.64 0,0.29 0.3,0.72 0.47,0.97 l 1.83,2.67 c 0.13,0.15 0.14,0.17 0.61,0.17 h 7.56 l -0.2,1.12 h -7.08 l 5.56,8.07 1.52,-8.07 0.2,-1.12 c 0.05,-0.3 0.07,-0.42 0.14,-0.72 0.08,-0.45 0.58,-2.94 0.58,-3.19 0,-0.54 -1.58,-0.54 -1.7,-0.54 -0.38,0 -0.77,0 -0.77,-0.71 0,-0.25 0.18,-0.42 0.46,-0.42 0.51,0 1.11,0.08 1.65,0.08 0.61,0 1.17,0.02 1.78,0.02 0.52,0 1.07,-0.02 1.6,-0.02 0.5,0 1.06,-0.08 1.56,-0.08 0.42,0 0.59,0.3 0.59,0.7 0,0.43 -0.39,0.43 -0.73,0.43 -1.66,0 -1.67,0.17 -1.78,0.71 z"
           id="path3963" /><path
           style="fill:#000000;stroke-width:0"
           inkscape:connector-curvature="0"
           d="m 551.5,448.25 0,0.01 -0.01,0.02 0,0.02 0,0.01 0,0.02 -0.01,0.02 0,0.02 -0.01,0.02 0,0.02 -0.01,0.02 -0.01,0.02 -0.01,0.01 -0.01,0.02 -0.01,0.02 -0.01,0.02 -0.01,0.02 -0.02,0.01 -0.01,0.02 -0.02,0.02 -0.01,0.01 -0.02,0.02 -0.02,0.01 -0.02,0.01 -0.02,0.01 -0.02,0.01 -0.03,0.01 -0.02,0.01 -0.03,0.01 -0.01,0 -0.02,0 -0.01,0 -0.02,0.01 -0.01,0 -0.02,0 -0.01,0 -0.02,0 c -0.25,0 -0.31,-0.08 -0.62,-0.42 l -2.55,-2.69 c -0.31,0.42 -2.27,3.11 -6.55,3.11 -8.47,0 -16.76,-7.5 -16.76,-15.38 0,-5.39 4.11,-9.82 10.79,-9.82 3.08,0 6.32,0.81 8.13,2.76 0.34,-0.76 1.3,-2.03 1.7,-2.03 0.32,0 0.39,0.14 0.57,0.88 l 0.65,2.68 c 0.17,0.63 0.67,2.72 0.77,3.13 0.42,1.58 0.45,1.61 2.51,1.64 0.25,0 0.77,0 0.77,0.73 0,0.35 -0.25,0.52 -0.52,0.52 -1.15,0 -2.62,-0.13 -3.84,-0.13 -0.86,0 -2.02,0 -2.89,0.03 -0.88,0.04 -1.88,0.1 -2.75,0.1 -0.25,0 -0.77,0 -0.77,-0.77 0,-0.48 0.38,-0.48 1.25,-0.48 0.67,0 1.36,0 2.04,-0.06 1.1,-0.11 1.13,-0.25 1.13,-0.68 0,-0.14 0,-0.2 -0.23,-1.11 -0.25,-0.96 -0.64,-2.54 -0.78,-2.89 -1,-2.12 -4.25,-3.06 -6.97,-3.06 -3.48,0 -8.05,1.67 -8.05,7.56 0,3.72 1.75,8.39 4.33,11 3.6,3.57 7.32,4.11 9.27,4.11 4.05,0 6.4,-2.92 6.4,-6.82 0,-0.97 -0.09,-1.22 -0.09,-1.43 0,-0.45 0.45,-0.45 0.62,-0.45 0.57,0 0.57,0.11 0.74,0.77 z"
           id="path3965" /><path
           style="fill:#000000;stroke-width:0"
           inkscape:connector-curvature="0"
           d="m 570.7,421.95 0.2,1.28 3.39,13.56 c 0.44,1.74 0.55,1.89 2.69,1.89 h 4.78 c 4.14,0 6.78,-1.34 6.78,-4.78 0,-1.95 -1,-6.23 -2.94,-8.03 -2.5,-2.23 -5.48,-2.64 -7.69,-2.64 h -7.01 l -0.2,-1.28 h 8.46 c 7.08,0 14,5.17 14,10.75 0,3.84 -3.28,7.53 -9.81,7.53 h -16.14 c -0.95,0 -1.5,0 -1.5,-0.95 0,-0.6 0.45,-0.6 1.45,-0.6 0.64,0 1.55,-0.04 2.14,-0.09 0.8,-0.11 1.1,-0.25 1.1,-0.8 0,-0.2 -0.05,-0.36 -0.2,-0.95 l -6.68,-26.75 c -0.5,-1.95 -0.59,-2.34 -4.53,-2.34 -0.84,0 -1.39,0 -1.39,-0.96 0,-0.59 0.6,-0.59 0.74,-0.59 1.4,0 4.93,0.16 6.32,0.16 1.05,0 2.14,-0.07 3.19,-0.07 1.11,0 2.2,-0.09 3.25,-0.09 0.35,0 0.99,0 0.99,1 0,0.55 -0.44,0.55 -1.39,0.55 -1.85,0 -3.24,0 -3.24,0.89 0,0.29 0.09,0.54 0.14,0.84 z"
           id="path3967" /></g>    </g>
    <g
       id="g4031"
       transform="matrix(0.4097303,0,0,0.4097303,141.59557,355.30397)">
      <g
         word-spacing="normal"
         letter-spacing="normal"
         font-size-adjust="none"
         font-stretch="normal"
         font-weight="normal"
         font-variant="normal"
         font-style="normal"
         stroke-miterlimit="10.433"
         xml:space="preserve"
         transform="matrix(1.0629921,0,0,-1.0629921,-186.02362,789.27165)"
         id="g4033"
         style="font-style:normal;font-variant:normal;font-weight:normal;font-stretch:normal;letter-spacing:normal;word-spacing:normal;text-anchor:start;fill:none;stroke:#000000;stroke-width:2.44062996;stroke-linecap:butt;stroke-linejoin:miter;stroke-miterlimit:10.43299961;stroke-opacity:1;stroke-dasharray:none;stroke-dashoffset:0"><path
           id="path4035"
           d="m 464.83,417.71 0.14,0.01 0.16,0 0.17,0 0.17,0 0.19,0.01 0.2,0 0.21,0.01 0.22,0.01 0.22,0.01 0.23,0.01 0.24,0.01 0.25,0.02 0.25,0.02 0.25,0.02 0.53,0.05 0.53,0.07 0.55,0.07 0.54,0.1 0.54,0.11 0.54,0.12 0.26,0.07 0.26,0.08 0.25,0.08 0.25,0.08 0.24,0.09 0.24,0.1 c 3.48,1.5 3.73,4.43 3.73,5.12 0,2.2 -1.89,4.23 -5.33,4.23 v -1.09 c 2.35,0 3.69,-1.44 3.69,-3.14 0,-5.17 -7.97,-5.17 -10.01,-5.17 h -2.05 c 1.95,7.56 7.08,8.31 8.37,8.31 v 1.09 c -5.53,0 -13.04,-4.82 -13.04,-13.54 0,-5.08 2.93,-9.02 7.81,-9.02 7.12,0 11.31,5.28 11.31,5.88 0,0.29 -0.3,0.65 -0.59,0.65 -0.25,0 -0.35,-0.11 -0.66,-0.5 -3.94,-4.93 -9.36,-4.93 -9.95,-4.93 -3.89,0 -4.35,4.18 -4.35,5.78 0,0.59 0.05,2.14 0.8,5.18 z"
           inkscape:connector-curvature="0"
           style="fill:#000000;stroke-width:0" /><path
           id="path4037"
           d="m 487.26,437.96 h 3.54 c 0.66,0 1.11,0 1.11,0.77 0,0.48 -0.45,0.48 -1.03,0.48 h -3.31 l 1.28,5.16 c 0.03,0.17 0.11,0.34 0.11,0.49 0,0.64 -0.48,1.12 -1.19,1.12 -0.87,0 -1.39,-0.59 -1.64,-1.5 -0.23,-0.87 0.22,0.8 -1.33,-5.27 h -3.54 c -0.66,0 -1.11,0 -1.11,-0.76 0,-0.49 0.4,-0.49 1.05,-0.49 h 3.29 l -2.04,-8.21 c -0.22,-0.88 -0.54,-2.13 -0.54,-2.58 0,-2.06 1.75,-3.31 3.74,-3.31 3.87,0 6.06,4.87 6.06,5.32 0,0.46 -0.45,0.46 -0.56,0.46 -0.41,0 -0.45,-0.08 -0.72,-0.66 -0.98,-2.2 -2.77,-4.16 -4.67,-4.16 -0.74,0 -1.22,0.46 -1.22,1.71 0,0.36 0.14,1.09 0.2,1.43 z"
           inkscape:connector-curvature="0"
           style="fill:#000000;stroke-width:0" /><path
           id="path4039"
           d="m 499.85,421.34 -0.02,-0.06 -0.01,-0.07 -0.02,-0.06 -0.02,-0.06 -0.01,-0.06 -0.02,-0.05 -0.02,-0.05 -0.02,-0.05 -0.02,-0.04 -0.03,-0.05 -0.03,-0.04 -0.03,-0.03 -0.03,-0.04 -0.04,-0.03 -0.05,-0.03 -0.04,-0.03 -0.06,-0.02 -0.06,-0.02 -0.06,-0.03 -0.07,-0.01 -0.04,-0.01 -0.04,-0.01 -0.04,-0.01 -0.04,-0.01 -0.04,0 -0.05,-0.01 -0.05,-0.01 -0.05,0 -0.05,-0.01 -0.05,0 -0.06,-0.01 -0.06,0 -0.06,-0.01 -0.06,0 -0.06,0 -0.07,0 -0.07,-0.01 -0.07,0 -0.08,0 -0.07,0 -0.08,0 -0.09,0 -0.08,0 -0.09,0 c -0.65,0 -1.04,0 -1.04,-0.71 0,-0.42 0.39,-0.42 0.82,-0.42 h 10.83 c 4.49,0 8.13,2.8 8.13,5.28 0,1.55 -1.46,3.22 -4.85,3.64 2.47,0.32 5.99,1.97 5.99,4.46 0,2.09 -2.47,3.64 -5.86,3.64 l -0.44,-1.13 c 2.47,0 3.64,-1.26 3.64,-2.59 0,-2.02 -2.7,-4.03 -6.19,-4.03 h -4.7 l -0.23,-0.85 h 6.07 c 2.55,0 3.82,-1.47 3.82,-3.04 0,-2.41 -2.96,-4.25 -6.05,-4.25 h -4.81 c -0.19,0 -0.55,0 -0.8,0.04 0.03,0.21 0.03,0.25 0.08,0.46 l 1.69,6.79 0.23,0.85 1.44,5.81 c 0.2,0.76 0.2,0.81 1.25,0.81 h 4.56 l 0.44,1.13 h -10.21 c -0.46,0 -0.87,0 -0.87,-0.71 0,-0.42 0.33,-0.42 0.92,-0.42 0.25,0 1.08,0 1.6,-0.14 0,-0.31 0,-0.36 -0.08,-0.62 z"
           inkscape:connector-curvature="0"
           style="fill:#000000;stroke-width:0" /><path
           id="path4041"
           d="m 552.7,448.25 -0.01,0.01 0,0.02 0,0.02 0,0.01 0,0.02 -0.01,0.02 0,0.02 -0.01,0.02 0,0.02 -0.01,0.02 -0.01,0.02 -0.01,0.01 -0.01,0.02 -0.01,0.02 -0.01,0.02 -0.01,0.02 -0.02,0.01 -0.01,0.02 -0.02,0.02 -0.01,0.01 -0.02,0.02 -0.02,0.01 -0.02,0.01 -0.02,0.01 -0.02,0.01 -0.03,0.01 -0.02,0.01 -0.03,0.01 -0.01,0 -0.02,0 -0.01,0 -0.02,0.01 -0.01,0 -0.02,0 -0.01,0 -0.02,0 c -0.25,0 -0.31,-0.08 -0.62,-0.42 l -2.55,-2.69 c -0.31,0.42 -2.27,3.11 -6.55,3.11 -8.47,0 -16.76,-7.5 -16.76,-15.38 0,-5.39 4.11,-9.82 10.79,-9.82 3.08,0 6.32,0.81 8.13,2.76 0.34,-0.76 1.3,-2.03 1.7,-2.03 0.32,0 0.39,0.14 0.57,0.88 l 0.65,2.68 c 0.17,0.63 0.67,2.72 0.77,3.13 0.42,1.58 0.45,1.61 2.51,1.64 0.25,0 0.77,0 0.77,0.73 0,0.35 -0.25,0.52 -0.52,0.52 -1.15,0 -2.62,-0.13 -3.84,-0.13 -0.86,0 -2.02,0 -2.89,0.03 -0.88,0.04 -1.88,0.1 -2.75,0.1 -0.25,0 -0.77,0 -0.77,-0.77 0,-0.48 0.38,-0.48 1.25,-0.48 0.67,0 1.36,0 2.03,-0.06 1.11,-0.11 1.14,-0.25 1.14,-0.68 0,-0.14 0,-0.2 -0.23,-1.11 -0.25,-0.96 -0.64,-2.54 -0.78,-2.89 -1,-2.12 -4.25,-3.06 -6.97,-3.06 -3.48,0 -8.05,1.67 -8.05,7.56 0,3.72 1.75,8.39 4.33,11 3.6,3.57 7.31,4.11 9.27,4.11 4.04,0 6.4,-2.92 6.4,-6.82 0,-0.97 -0.09,-1.22 -0.09,-1.43 0,-0.45 0.45,-0.45 0.62,-0.45 0.57,0 0.57,0.11 0.74,0.77 z"
           inkscape:connector-curvature="0"
           style="fill:#000000;stroke-width:0" /><path
           id="path4043"
           d="m 571.9,421.95 0.2,1.28 3.39,13.56 c 0.44,1.74 0.54,1.89 2.69,1.89 h 4.78 c 4.14,0 6.78,-1.34 6.78,-4.78 0,-1.95 -1,-6.23 -2.94,-8.03 -2.5,-2.23 -5.48,-2.64 -7.69,-2.64 h -7.01 l -0.2,-1.28 h 8.46 c 7.08,0 14,5.17 14,10.75 0,3.84 -3.28,7.53 -9.81,7.53 h -16.14 c -0.95,0 -1.5,0 -1.5,-0.95 0,-0.6 0.45,-0.6 1.45,-0.6 0.64,0 1.55,-0.04 2.14,-0.09 0.8,-0.11 1.1,-0.25 1.1,-0.8 0,-0.2 -0.05,-0.36 -0.2,-0.95 l -6.68,-26.75 c -0.5,-1.95 -0.59,-2.34 -4.53,-2.34 -0.84,0 -1.39,0 -1.39,-0.96 0,-0.59 0.6,-0.59 0.73,-0.59 1.41,0 4.94,0.16 6.33,0.16 1.05,0 2.14,-0.07 3.19,-0.07 1.11,0 2.2,-0.09 3.25,-0.09 0.35,0 0.98,0 0.98,1 0,0.55 -0.43,0.55 -1.38,0.55 -1.85,0 -3.24,0 -3.24,0.89 0,0.29 0.09,0.54 0.14,0.84 z"
           inkscape:connector-curvature="0"
           style="fill:#000000;stroke-width:0" /></g>    </g>
    <g
       transform="matrix(0.4097303,0,0,0.4097303,66.339205,274.49176)"
       id="g4121">
      <g
         style="font-style:normal;font-variant:normal;font-weight:normal;font-stretch:normal;letter-spacing:normal;word-spacing:normal;text-anchor:start;fill:none;stroke:#000000;stroke-width:2.44062996;stroke-linecap:butt;stroke-linejoin:miter;stroke-miterlimit:10.43299961;stroke-opacity:1;stroke-dasharray:none;stroke-dashoffset:0"
         id="g4123"
         transform="matrix(1.0629921,0,0,-1.0629921,-186.02362,789.27165)"
         xml:space="preserve"
         stroke-miterlimit="10.433"
         font-style="normal"
         font-variant="normal"
         font-weight="normal"
         font-stretch="normal"
         font-size-adjust="none"
         letter-spacing="normal"
         word-spacing="normal"><path
           style="fill:#000000;stroke-width:0"
           inkscape:connector-curvature="0"
           d="m 464.83,417.71 0.14,0.01 0.16,0 0.17,0 0.17,0 0.19,0.01 0.2,0 0.21,0.01 0.22,0.01 0.22,0.01 0.23,0.01 0.24,0.01 0.25,0.02 0.25,0.02 0.25,0.02 0.53,0.05 0.53,0.07 0.55,0.07 0.54,0.1 0.54,0.11 0.54,0.12 0.26,0.07 0.26,0.08 0.25,0.08 0.25,0.08 0.24,0.09 0.24,0.1 c 3.48,1.5 3.73,4.43 3.73,5.12 0,2.2 -1.89,4.23 -5.33,4.23 v -1.09 c 2.35,0 3.69,-1.44 3.69,-3.14 0,-5.17 -7.97,-5.17 -10.01,-5.17 h -2.05 c 1.95,7.56 7.08,8.31 8.37,8.31 v 1.09 c -5.53,0 -13.04,-4.82 -13.04,-13.54 0,-5.08 2.93,-9.02 7.81,-9.02 7.12,0 11.31,5.28 11.31,5.88 0,0.29 -0.3,0.65 -0.59,0.65 -0.25,0 -0.35,-0.11 -0.66,-0.5 -3.94,-4.93 -9.36,-4.93 -9.95,-4.93 -3.89,0 -4.35,4.18 -4.35,5.78 0,0.59 0.05,2.14 0.8,5.18 z"
           id="path4125" /><path
           style="fill:#000000;stroke-width:0"
           inkscape:connector-curvature="0"
           d="m 487.26,437.96 h 3.54 c 0.66,0 1.11,0 1.11,0.77 0,0.48 -0.45,0.48 -1.03,0.48 h -3.31 l 1.28,5.16 c 0.03,0.17 0.11,0.34 0.11,0.49 0,0.64 -0.48,1.12 -1.19,1.12 -0.87,0 -1.39,-0.59 -1.64,-1.5 -0.23,-0.87 0.22,0.8 -1.33,-5.27 h -3.54 c -0.66,0 -1.11,0 -1.11,-0.76 0,-0.49 0.4,-0.49 1.05,-0.49 h 3.29 l -2.04,-8.21 c -0.22,-0.88 -0.54,-2.13 -0.54,-2.58 0,-2.06 1.75,-3.31 3.74,-3.31 3.87,0 6.06,4.87 6.06,5.32 0,0.46 -0.45,0.46 -0.56,0.46 -0.41,0 -0.45,-0.08 -0.72,-0.66 -0.98,-2.2 -2.77,-4.16 -4.67,-4.16 -0.74,0 -1.22,0.46 -1.22,1.71 0,0.36 0.14,1.09 0.2,1.43 z"
           id="path4127" /><path
           style="fill:#000000;stroke-width:0"
           inkscape:connector-curvature="0"
           d="m 511.79,436.44 -0.01,0.05 -0.01,0.04 -0.01,0.05 -0.01,0.04 -0.01,0.04 -0.01,0.04 -0.01,0.03 -0.01,0.04 -0.01,0.03 -0.02,0.03 -0.01,0.03 -0.02,0.03 -0.01,0.02 -0.02,0.03 -0.02,0.02 -0.02,0.02 -0.02,0.02 -0.02,0.02 -0.02,0.01 -0.03,0.02 -0.02,0.01 -0.03,0.01 -0.03,0.01 -0.04,0.01 -0.03,0.01 -0.04,0.01 -0.04,0 -0.04,0.01 -0.04,0 -0.04,0 -0.05,0 -0.05,0 c -0.59,0 -0.75,-0.2 -1,-0.57 l -9.77,-14.16 c -1.03,-1.51 -1.9,-1.91 -3.53,-1.98 -0.47,-0.03 -0.47,-0.68 -0.47,-0.71 0,-0.34 0.3,-0.42 0.39,-0.42 0.36,0 0.79,0.08 1.13,0.08 0.42,0 0.84,0.02 1.26,0.02 0.49,0 0.93,-0.02 1.38,-0.02 0.45,0 0.97,-0.08 1.42,-0.08 0.17,0 0.6,0 0.6,0.7 0,0.4 -0.38,0.43 -0.47,0.43 -0.21,0 -1.18,0.04 -1.18,0.64 0,0.29 0.3,0.72 0.47,0.97 l 1.83,2.67 c 0.13,0.15 0.14,0.17 0.61,0.17 h 7.56 l -0.2,1.12 h -7.08 l 5.56,8.07 1.52,-8.07 0.2,-1.12 c 0.05,-0.3 0.07,-0.42 0.14,-0.72 0.08,-0.45 0.58,-2.94 0.58,-3.19 0,-0.54 -1.58,-0.54 -1.7,-0.54 -0.38,0 -0.77,0 -0.77,-0.71 0,-0.25 0.18,-0.42 0.46,-0.42 0.51,0 1.11,0.08 1.65,0.08 0.61,0 1.17,0.02 1.78,0.02 0.52,0 1.07,-0.02 1.6,-0.02 0.5,0 1.06,-0.08 1.56,-0.08 0.42,0 0.59,0.3 0.59,0.7 0,0.43 -0.39,0.43 -0.73,0.43 -1.66,0 -1.67,0.17 -1.78,0.71 z"
           id="path4129" /><path
           style="fill:#000000;stroke-width:0"
           inkscape:connector-curvature="0"
           d="m 525.65,421.34 -0.02,-0.06 -0.02,-0.07 -0.01,-0.06 -0.02,-0.06 -0.02,-0.06 -0.01,-0.05 -0.02,-0.05 -0.02,-0.05 -0.03,-0.04 -0.02,-0.05 -0.03,-0.04 -0.03,-0.03 -0.04,-0.04 -0.04,-0.03 -0.04,-0.03 -0.05,-0.03 -0.05,-0.02 -0.06,-0.02 -0.06,-0.03 -0.07,-0.01 -0.04,-0.01 -0.04,-0.01 -0.04,-0.01 -0.04,-0.01 -0.05,0 -0.04,-0.01 -0.05,-0.01 -0.05,0 -0.05,-0.01 -0.06,0 -0.05,-0.01 -0.06,0 -0.06,-0.01 -0.06,0 -0.07,0 -0.07,0 -0.06,-0.01 -0.08,0 -0.07,0 -0.08,0 -0.08,0 -0.08,0 -0.08,0 -0.09,0 c -0.66,0 -1.05,0 -1.05,-0.71 0,-0.42 0.39,-0.42 0.83,-0.42 h 10.83 c 4.48,0 8.12,2.8 8.12,5.28 0,1.55 -1.45,3.22 -4.84,3.64 2.47,0.32 5.98,1.97 5.98,4.46 0,2.09 -2.46,3.64 -5.86,3.64 l -0.43,-1.13 c 2.47,0 3.64,-1.26 3.64,-2.59 0,-2.02 -2.71,-4.03 -6.19,-4.03 h -4.7 l -0.24,-0.85 h 6.08 c 2.55,0 3.81,-1.47 3.81,-3.04 0,-2.41 -2.95,-4.25 -6.04,-4.25 h -4.82 c -0.18,0 -0.54,0 -0.79,0.04 0.03,0.21 0.03,0.25 0.08,0.46 l 1.68,6.79 0.24,0.85 1.43,5.81 c 0.21,0.76 0.21,0.81 1.25,0.81 h 4.57 l 0.43,1.13 h -10.2 c -0.47,0 -0.87,0 -0.87,-0.71 0,-0.42 0.32,-0.42 0.92,-0.42 0.25,0 1.08,0 1.59,-0.14 0,-0.31 0,-0.36 -0.08,-0.62 z"
           id="path4131" /><path
           style="fill:#000000;stroke-width:0"
           inkscape:connector-curvature="0"
           d="m 578.5,448.25 0,0.01 -0.01,0.02 0,0.02 0,0.01 0,0.02 -0.01,0.02 0,0.02 -0.01,0.02 0,0.02 -0.01,0.02 -0.01,0.02 -0.01,0.01 -0.01,0.02 -0.01,0.02 -0.01,0.02 -0.01,0.02 -0.02,0.01 -0.01,0.02 -0.02,0.02 -0.01,0.01 -0.02,0.02 -0.02,0.01 -0.02,0.01 -0.02,0.01 -0.02,0.01 -0.03,0.01 -0.02,0.01 -0.03,0.01 -0.01,0 -0.02,0 -0.01,0 -0.02,0.01 -0.01,0 -0.02,0 -0.01,0 -0.02,0 c -0.25,0 -0.31,-0.08 -0.62,-0.42 l -2.55,-2.69 c -0.31,0.42 -2.27,3.11 -6.55,3.11 -8.47,0 -16.76,-7.5 -16.76,-15.38 0,-5.39 4.11,-9.82 10.79,-9.82 3.08,0 6.32,0.81 8.13,2.76 0.34,-0.76 1.3,-2.03 1.7,-2.03 0.32,0 0.39,0.14 0.57,0.88 l 0.65,2.68 c 0.17,0.63 0.67,2.72 0.77,3.13 0.42,1.58 0.45,1.61 2.51,1.64 0.25,0 0.77,0 0.77,0.73 0,0.35 -0.25,0.52 -0.52,0.52 -1.15,0 -2.62,-0.13 -3.84,-0.13 -0.86,0 -2.02,0 -2.89,0.03 -0.88,0.04 -1.88,0.1 -2.75,0.1 -0.25,0 -0.77,0 -0.77,-0.77 0,-0.48 0.38,-0.48 1.25,-0.48 0.67,0 1.36,0 2.04,-0.06 1.1,-0.11 1.13,-0.25 1.13,-0.68 0,-0.14 0,-0.2 -0.23,-1.11 -0.25,-0.96 -0.64,-2.54 -0.78,-2.89 -1,-2.12 -4.25,-3.06 -6.97,-3.06 -3.48,0 -8.05,1.67 -8.05,7.56 0,3.72 1.75,8.39 4.33,11 3.6,3.57 7.32,4.11 9.27,4.11 4.05,0 6.4,-2.92 6.4,-6.82 0,-0.97 -0.09,-1.22 -0.09,-1.43 0,-0.45 0.45,-0.45 0.62,-0.45 0.57,0 0.57,0.11 0.74,0.77 z"
           id="path4133" /><path
           style="fill:#000000;stroke-width:0"
           inkscape:connector-curvature="0"
           d="m 597.7,421.95 0.2,1.28 3.39,13.56 c 0.44,1.74 0.55,1.89 2.69,1.89 h 4.78 c 4.14,0 6.78,-1.34 6.78,-4.78 0,-1.95 -1,-6.23 -2.94,-8.03 -2.5,-2.23 -5.48,-2.64 -7.69,-2.64 h -7.01 l -0.2,-1.28 h 8.46 c 7.08,0 14,5.17 14,10.75 0,3.84 -3.28,7.53 -9.81,7.53 h -16.14 c -0.95,0 -1.5,0 -1.5,-0.95 0,-0.6 0.45,-0.6 1.45,-0.6 0.64,0 1.55,-0.04 2.14,-0.09 0.8,-0.11 1.1,-0.25 1.1,-0.8 0,-0.2 -0.05,-0.36 -0.2,-0.95 l -6.68,-26.75 c -0.5,-1.95 -0.59,-2.34 -4.53,-2.34 -0.84,0 -1.39,0 -1.39,-0.96 0,-0.59 0.6,-0.59 0.74,-0.59 1.4,0 4.93,0.16 6.32,0.16 1.05,0 2.14,-0.07 3.19,-0.07 1.11,0 2.2,-0.09 3.25,-0.09 0.35,0 0.99,0 0.99,1 0,0.55 -0.44,0.55 -1.39,0.55 -1.85,0 -3.24,0 -3.24,0.89 0,0.29 0.09,0.54 0.14,0.84 z"
           id="path4135" /></g>    </g>
    <path
       sodipodi:nodetypes="cc"
       inkscape:connector-curvature="0"
       id="path4638"
       d="m 205.73472,464.95736 -39.47487,60.06568"
       style="fill:none;stroke:#bebebe;stroke-width:1;stroke-linecap:butt;stroke-linejoin:miter;stroke-miterlimit:4;stroke-opacity:1;stroke-dasharray:3, 1;stroke-dashoffset:0;marker-start:none;marker-end:url(#Arrow1Lend)" />
    <path
       sodipodi:nodetypes="cc"
       inkscape:connector-curvature="0"
       id="path4650"
       d="M 415.1665,525.02304 337.20959,380.89168"
       style="fill:none;stroke:#acacac;stroke-width:1;stroke-linecap:butt;stroke-linejoin:miter;stroke-miterlimit:4;stroke-opacity:1;stroke-dasharray:2, 2;stroke-dashoffset:0;marker-end:url(#Arrow1Lend)" />
    <path
       sodipodi:nodetypes="cc"
       style="fill:none;stroke:#c4c4c4;stroke-width:1;stroke-linecap:butt;stroke-linejoin:miter;stroke-miterlimit:4;stroke-opacity:1;stroke-dasharray:2, 2;stroke-dashoffset:0;marker-end:url(#Arrow1Lend)"
       d="M 311.25589,520.68551 266.72159,461.7344"
       id="path4186"
       inkscape:connector-curvature="0" />
    <path
       style="fill:none;stroke:#bebebe;stroke-width:1;stroke-linecap:butt;stroke-linejoin:miter;stroke-miterlimit:4;stroke-opacity:1;stroke-dasharray:3, 1;stroke-dashoffset:0;marker-start:none;marker-end:url(#Arrow1Lend)"
       d="m 257.20959,380.89168 -39.47487,66.06568"
       id="path5945"
       inkscape:connector-curvature="0"
       sodipodi:nodetypes="cc" />
    <g
       transform="translate(2,28)"
       id="g5953">
      <path
         sodipodi:type="arc"
         style="fill:#ffffff;fill-opacity:1;stroke:#000000;stroke-width:1;stroke-miterlimit:4;stroke-opacity:1;stroke-dasharray:3, 1;stroke-dashoffset:0"
         id="path5951"
         sodipodi:cx="412.39478"
         sodipodi:cy="492.9902"
         sodipodi:rx="9.3439112"
         sodipodi:ry="9.3439112"
         d="m 421.73869,492.9902 c 0,5.1605 -4.18341,9.34392 -9.34391,9.34392 -5.1605,0 -9.34392,-4.18342 -9.34392,-9.34392 0,-5.1605 4.18342,-9.34391 9.34392,-9.34391 5.1605,0 9.34391,4.18341 9.34391,9.34391 z" />
      <text
         xml:space="preserve"
         style="font-size:10px;font-style:normal;font-weight:normal;line-height:125%;letter-spacing:0px;word-spacing:0px;fill:#000000;fill-opacity:1;stroke:none;font-family:Sans"
         x="408.60669"
         y="497.78842"
         id="text5947"
         sodipodi:linespacing="125%"><tspan
           sodipodi:role="line"
           id="tspan5949"
           x="408.60669"
           y="497.78842"
           style="font-size:14px">1</tspan></text>
    </g>
    <g
       id="g5958"
       transform="translate(-154,-116)">
      <path
         d="m 421.73869,492.9902 c 0,5.1605 -4.18341,9.34392 -9.34391,9.34392 -5.1605,0 -9.34392,-4.18342 -9.34392,-9.34392 0,-5.1605 4.18342,-9.34391 9.34392,-9.34391 5.1605,0 9.34391,4.18341 9.34391,9.34391 z"
         sodipodi:ry="9.3439112"
         sodipodi:rx="9.3439112"
         sodipodi:cy="492.9902"
         sodipodi:cx="412.39478"
         id="path5960"
         style="fill:#ffffff;fill-opacity:1;stroke:#000000;stroke-width:1;stroke-miterlimit:4;stroke-opacity:1;stroke-dasharray:3, 1;stroke-dashoffset:0"
         sodipodi:type="arc" />
      <text
         sodipodi:linespacing="125%"
         id="text5962"
         y="497.78842"
         x="408.60669"
         style="font-size:10px;font-style:normal;font-weight:normal;line-height:125%;letter-spacing:0px;word-spacing:0px;fill:#000000;fill-opacity:1;stroke:none;font-family:Sans"
         xml:space="preserve"><tspan
           style="font-size:14px"
           y="497.78842"
           x="408.60669"
           id="tspan5964"
           sodipodi:role="line">2</tspan></text>
    </g>
    <g
       transform="translate(-102,28)"
       id="g5966">
      <path
         sodipodi:type="arc"
         style="fill:#ffffff;fill-opacity:1;stroke:#000000;stroke-width:1;stroke-miterlimit:4;stroke-opacity:1;stroke-dasharray:3, 1;stroke-dashoffset:0"
         id="path5968"
         sodipodi:cx="412.39478"
         sodipodi:cy="492.9902"
         sodipodi:rx="9.3439112"
         sodipodi:ry="9.3439112"
         d="m 421.73869,492.9902 c 0,5.1605 -4.18341,9.34392 -9.34391,9.34392 -5.1605,0 -9.34392,-4.18342 -9.34392,-9.34392 0,-5.1605 4.18342,-9.34391 9.34392,-9.34391 5.1605,0 9.34391,4.18341 9.34391,9.34391 z" />
      <text
         xml:space="preserve"
         style="font-size:10px;font-style:normal;font-weight:normal;line-height:125%;letter-spacing:0px;word-spacing:0px;fill:#000000;fill-opacity:1;stroke:none;font-family:Sans"
         x="408.60669"
         y="497.78842"
         id="text5970"
         sodipodi:linespacing="125%"><tspan
           sodipodi:role="line"
           id="tspan5972"
           x="408.60669"
           y="497.78842"
           style="font-size:14px">3</tspan></text>
    </g>
    <g
       id="g5974"
       transform="translate(-204,-30)">
      <path
         d="m 421.73869,492.9902 c 0,5.1605 -4.18341,9.34392 -9.34391,9.34392 -5.1605,0 -9.34392,-4.18342 -9.34392,-9.34392 0,-5.1605 4.18342,-9.34391 9.34392,-9.34391 5.1605,0 9.34391,4.18341 9.34391,9.34391 z"
         sodipodi:ry="9.3439112"
         sodipodi:rx="9.3439112"
         sodipodi:cy="492.9902"
         sodipodi:cx="412.39478"
         id="path5976"
         style="fill:#ffffff;fill-opacity:1;stroke:#000000;stroke-width:1;stroke-miterlimit:4;stroke-opacity:1;stroke-dasharray:3, 1;stroke-dashoffset:0"
         sodipodi:type="arc" />
      <text
         sodipodi:linespacing="125%"
         id="text5978"
         y="497.78842"
         x="408.60669"
         style="font-size:10px;font-style:normal;font-weight:normal;line-height:125%;letter-spacing:0px;word-spacing:0px;fill:#000000;fill-opacity:1;stroke:none;font-family:Sans"
         xml:space="preserve"><tspan
           style="font-size:14px"
           y="497.78842"
           x="408.60669"
           id="tspan5980"
           sodipodi:role="line">4</tspan></text>
    </g>
    <text
       sodipodi:linespacing="125%"
       id="text6039"
       y="558.62415"
       x="189.41446"
       style="font-size:10px;font-style:normal;font-weight:normal;line-height:125%;letter-spacing:0px;word-spacing:0px;fill:#000000;fill-opacity:1;stroke:none;font-family:Sans"
       xml:space="preserve"><tspan
         y="558.62415"
         x="189.41446"
         id="tspan6041"
         sodipodi:role="line">(long)</tspan></text>
    <text
       xml:space="preserve"
       style="font-size:10px;font-style:normal;font-weight:normal;line-height:125%;letter-spacing:0px;word-spacing:0px;fill:#000000;fill-opacity:1;stroke:none;font-family:Sans"
       x="265.41446"
       y="558.62415"
       id="text6043"
       sodipodi:linespacing="125%"><tspan
         sodipodi:role="line"
         id="tspan6045"
         x="265.41446"
         y="558.62415">(short)</tspan></text>
    <text
       sodipodi:linespacing="125%"
       id="text6047"
       y="558.62415"
       x="365.41446"
       style="font-size:10px;font-style:normal;font-weight:normal;line-height:125%;letter-spacing:0px;word-spacing:0px;fill:#000000;fill-opacity:1;stroke:none;font-family:Sans"
       xml:space="preserve"><tspan
         y="558.62415"
         x="365.41446"
         id="tspan6049"
         sodipodi:role="line">(short)</tspan></text>
    <g
       id="g6235"
       transform="translate(104.28571,451.42857)">
      <g
         word-spacing="normal"
         letter-spacing="normal"
         font-size-adjust="none"
         font-stretch="normal"
         font-weight="normal"
         font-variant="normal"
         font-style="normal"
         stroke-miterlimit="10.433"
         xml:space="preserve"
         transform="matrix(0.28687973,0,0,-0.28687973,-50.203952,206.12857)"
         id="g6237"
         style="font-style:normal;font-variant:normal;font-weight:normal;font-stretch:normal;letter-spacing:normal;word-spacing:normal;text-anchor:start;fill:none;stroke:#000000;stroke-linecap:butt;stroke-linejoin:miter;stroke-miterlimit:10.43299961;stroke-opacity:1;stroke-dasharray:none;stroke-dashoffset:0"><path
           id="path6239"
           d="m 479.68,426.68 -4.18,9.91 c -0.15,0.41 -0.25,0.59 -0.25,0.64 0,0.31 0.85,1.25 2.94,1.45 0.5,0.05 1,0.1 1,0.96 0,0.59 -0.61,0.59 -0.75,0.59 -2.05,0 -4.19,-0.16 -6.28,-0.16 -1.25,0 -4.33,0.16 -5.58,0.16 -0.29,0 -0.9,0 -0.9,-1 0,-0.55 0.5,-0.55 1.15,-0.55 2.99,0 3.28,-0.5 3.74,-1.59 l 5.87,-13.91 -10.51,-11.31 -0.64,-0.55 c -2.44,-2.64 -4.79,-3.43 -7.33,-3.57 -0.64,-0.05 -1.1,-0.05 -1.1,-1 0,-0.05 0,-0.55 0.66,-0.55 1.48,0 3.12,0.16 4.67,0.16 1.85,0 3.8,-0.16 5.58,-0.16 0.31,0 0.91,0 0.91,1 0,0.5 -0.5,0.55 -0.6,0.55 -0.45,0.04 -2,0.14 -2,1.54 0,0.8 0.75,1.6 1.35,2.24 l 5.07,5.39 4.49,4.87 5.03,-11.9 c 0.2,-0.55 0.25,-0.6 0.25,-0.71 0,-0.39 -0.94,-1.23 -2.89,-1.43 -0.55,-0.05 -0.99,-0.11 -0.99,-0.96 0,-0.59 0.55,-0.59 0.74,-0.59 1.41,0 4.89,0.16 6.28,0.16 1.25,0 4.28,-0.16 5.53,-0.16 0.35,0 0.95,0 0.95,0.95 0,0.6 -0.5,0.6 -0.9,0.6 -3.33,0.04 -3.44,0.2 -4.28,2.18 -1.94,4.64 -5.28,12.41 -6.42,15.39 3.39,3.5 8.6,9.43 10.2,10.82 1.45,1.2 3.34,2.39 6.33,2.54 0.65,0.05 1.09,0.05 1.09,1 0,0.05 0,0.55 -0.64,0.55 -1.5,0 -3.14,-0.16 -4.69,-0.16 -1.84,0 -3.73,0.16 -5.53,0.16 -0.3,0 -0.94,0 -0.94,-1 0,-0.34 0.25,-0.5 0.6,-0.55 0.45,-0.04 2,-0.15 2,-1.54 0,-0.71 -0.55,-1.35 -0.96,-1.8 z"
           inkscape:connector-curvature="0"
           style="fill:#000000;stroke-width:0" /><path
           id="path6241"
           d="m 515.89,427.03 -0.02,-0.07 -0.02,-0.07 -0.01,-0.07 -0.02,-0.08 -0.02,-0.07 -0.02,-0.08 -0.04,-0.16 -0.04,-0.16 -0.04,-0.16 -0.04,-0.16 -0.02,-0.08 -0.02,-0.07 -0.02,-0.08 -0.02,-0.07 -0.01,-0.07 -0.02,-0.07 -0.02,-0.07 -0.01,-0.06 -0.01,-0.06 -0.02,-0.06 -0.01,-0.05 -0.01,-0.05 -0.01,-0.05 0,-0.04 -0.01,-0.03 0,-0.03 -0.01,-0.03 0,-0.02 c 0,-0.76 0.63,-1.1 1.17,-1.1 0.65,0 1.19,0.45 1.36,0.76 0.19,0.31 0.46,1.42 0.64,2.16 0.18,0.65 0.55,2.26 0.77,3.14 0.2,0.76 0.41,1.53 0.59,2.33 0.38,1.5 0.38,1.56 1.08,2.65 1.11,1.71 2.86,3.69 5.56,3.69 1.96,0 2.07,-1.61 2.07,-2.44 0,-2.09 -1.5,-5.95 -2.07,-7.42 -0.37,-0.98 -0.51,-1.3 -0.51,-1.89 0,-1.84 1.53,-2.98 3.31,-2.98 3.48,0 5.02,4.79 5.02,5.32 0,0.46 -0.46,0.46 -0.57,0.46 -0.48,0 -0.51,-0.21 -0.65,-0.6 -0.8,-2.78 -2.3,-4.22 -3.69,-4.22 -0.73,0 -0.88,0.49 -0.88,1.22 0,0.8 0.18,1.25 0.8,2.83 0.42,1.08 1.85,4.77 1.85,6.72 0,0.56 0,2.03 -1.28,3.03 -0.6,0.45 -1.62,0.94 -3.25,0.94 -3.13,0 -5.05,-2.05 -6.16,-3.52 -0.28,2.97 -2.77,3.52 -4.53,3.52 -2.89,0 -4.85,-1.77 -5.89,-3.16 -0.25,2.39 -2.3,3.16 -3.74,3.16 -1.5,0 -2.29,-1.08 -2.75,-1.88 -0.76,-1.28 -1.25,-3.28 -1.25,-3.45 0,-0.45 0.49,-0.45 0.6,-0.45 0.48,0 0.51,0.11 0.76,1.04 0.52,2.07 1.19,3.77 2.55,3.77 0.9,0 1.14,-0.77 1.14,-1.7 0,-0.68 -0.31,-1.96 -0.56,-2.89 -0.24,-0.96 -0.58,-2.38 -0.77,-3.14 l -1.11,-4.47 c -0.14,-0.44 -0.34,-1.32 -0.34,-1.43 0,-0.76 0.62,-1.1 1.19,-1.1 0.62,0 1.17,0.45 1.35,0.76 0.18,0.31 0.46,1.42 0.63,2.16 0.17,0.65 0.55,2.26 0.77,3.14 0.2,0.76 0.42,1.53 0.59,2.33 0.37,1.43 0.45,1.7 1.45,3.14 0.99,1.39 2.63,3.2 5.24,3.2 2.01,0 2.04,-1.78 2.04,-2.44 0,-0.87 -0.09,-1.33 -0.59,-3.28 z"
           inkscape:connector-curvature="0"
           style="fill:#000000;stroke-width:0" /><path
           id="path6243"
           d="m 552.3,432.07 h 10.66 c 0.45,0 1.28,0 1.28,0.85 0,0.86 -0.8,0.86 -1.28,0.86 H 552.3 v 10.7 c 0,0.45 0,1.28 -0.84,1.28 -0.88,0 -0.88,-0.8 -0.88,-1.28 v -10.7 H 539.9 c -0.46,0 -1.3,0 -1.3,-0.83 0,-0.88 0.8,-0.88 1.3,-0.88 h 10.68 v -10.7 c 0,-0.45 0,-1.28 0.85,-1.28 0.87,0 0.87,0.8 0.87,1.28 z"
           inkscape:connector-curvature="0"
           style="fill:#000000;stroke-width:0" /><path
           id="path6245"
           d="m 584.35,430.54 h -1.19 c -0.09,-0.76 -0.45,-2.83 -0.9,-3.17 -0.27,-0.2 -2.96,-0.2 -3.44,-0.2 h -6.42 c 3.65,3.23 4.87,4.2 6.97,5.84 2.58,2.06 4.98,4.22 4.98,7.53 0,4.22 -3.69,6.8 -8.15,6.8 -4.32,0 -7.25,-3.03 -7.25,-6.23 0,-1.79 1.5,-1.96 1.85,-1.96 0.83,0 1.85,0.6 1.85,1.85 0,0.62 -0.25,1.84 -2.06,1.84 1.07,2.47 3.45,3.23 5.09,3.23 3.48,0 5.3,-2.7 5.3,-5.53 0,-3.03 -2.16,-5.43 -3.28,-6.68 l -8.4,-8.3 c -0.35,-0.31 -0.35,-0.39 -0.35,-1.36 h 14.35 z"
           inkscape:connector-curvature="0"
           style="fill:#000000;stroke-width:0" /><path
           id="path6247"
           d="m 590.7,428.98 0.03,-0.21 0.04,-0.22 0.05,-0.22 0.05,-0.22 0.05,-0.23 0.07,-0.22 0.06,-0.23 0.08,-0.22 0.08,-0.22 0.08,-0.22 0.1,-0.22 0.09,-0.21 0.11,-0.21 0.11,-0.21 0.12,-0.2 0.13,-0.19 0.14,-0.19 0.14,-0.18 0.15,-0.17 0.16,-0.16 0.17,-0.16 0.17,-0.14 0.19,-0.14 0.19,-0.12 0.21,-0.11 0.21,-0.1 0.22,-0.08 0.23,-0.07 0.25,-0.06 0.25,-0.04 0.26,-0.02 0.27,-0.01 c 1.11,0 2.36,0.45 3.63,1.26 0.59,0.35 2.41,1.63 2.41,2.05 0,0.2 -0.25,0.66 -0.57,0.66 -0.17,0 -0.25,0 -0.76,-0.52 -1.5,-1.33 -3.11,-2.47 -4.67,-2.47 -2.38,0 -2.38,4.08 -2.38,4.74 0,0.45 0,0.51 0.08,1.18 0.03,0.35 0.03,0.43 0.45,0.8 1.92,1.81 8.5,8.16 8.5,14.22 0,0.51 0,3.03 -2.3,3.03 l -0.03,-0.97 c 0.8,0 1.22,-0.56 1.22,-1.81 0,-0.42 0,-3.53 -3,-7.81 -1.78,-2.52 -3.7,-4.39 -4.53,-5.19 h 0 c 0.63,3.55 3.38,14.81 6.31,14.81 l 0.03,0.97 c -2.89,0 -5.23,-4.5 -5.78,-5.55 -1.54,-2.95 -2.34,-5.81 -2.72,-7.56 -0.53,-2.33 -0.53,-3.55 -0.53,-5.25 -0.23,-0.25 -2.22,-2.03 -2.57,-2.3 -0.55,-0.5 -0.6,-0.53 -0.6,-0.73 0,-0.25 0.31,-0.63 0.6,-0.63 0.25,0 1.18,0.86 1.43,1.11 z"
           inkscape:connector-curvature="0"
           style="fill:#000000;stroke-width:0" /></g>    </g>
    <g
       id="g6411"
       transform="translate(188.57143,452)">
      <g
         id="g6413"
         transform="matrix(0.28687973,0,0,-0.28687973,-50.203952,206.12857)"
         xml:space="preserve"
         stroke-miterlimit="10.433"
         font-style="normal"
         font-variant="normal"
         font-weight="normal"
         font-stretch="normal"
         font-size-adjust="none"
         letter-spacing="normal"
         word-spacing="normal"
         style="font-style:normal;font-variant:normal;font-weight:normal;font-stretch:normal;letter-spacing:normal;word-spacing:normal;text-anchor:start;fill:none;stroke:#000000;stroke-linecap:butt;stroke-linejoin:miter;stroke-miterlimit:10.43299961;stroke-opacity:1;stroke-dasharray:none;stroke-dashoffset:0"><path
           d="m 485.27,434.54 0.69,0.71 c 1.5,1.5 3.14,3.18 6.53,3.43 0.55,0.05 1,0.05 1,0.96 0,0.39 -0.25,0.59 -0.66,0.59 -1.29,0 -2.73,-0.16 -4.08,-0.16 -1.64,0 -3.39,0.16 -4.98,0.16 -0.3,0 -0.95,0 -0.95,-0.95 0,-0.55 0.5,-0.6 0.75,-0.6 0.34,0 1.79,-0.09 1.79,-1.14 0,-0.86 -1.14,-2.14 -1.34,-2.39 l -11.56,-13.31 -5.49,14.8 c -0.29,0.7 -0.29,0.79 -0.29,0.84 0,1.2 2.43,1.2 2.93,1.2 0.71,0 1.21,0 1.21,1 0,0.55 -0.6,0.55 -0.75,0.55 -1.39,0 -4.88,-0.16 -6.28,-0.16 -1.24,0 -4.33,0.16 -5.58,0.16 -0.3,0 -0.94,0 -0.94,-1 0,-0.55 0.48,-0.55 1.14,-0.55 2.98,0 3.19,-0.45 3.64,-1.68 l 6.13,-16.41 c 0.04,-0.14 0.2,-0.69 0.2,-0.84 0,-0.14 -2,-8.18 -2.25,-9.07 -0.64,-2.73 -0.69,-2.89 -4.69,-2.93 -0.94,0 -1.34,0 -1.34,-1 0,-0.55 0.61,-0.55 0.7,-0.55 1.39,0 4.88,0.16 6.28,0.16 1.39,0 4.99,-0.16 6.38,-0.16 0.34,0 0.93,0 0.93,1 0,0.55 -0.43,0.55 -1.39,0.55 -0.09,0 -1.04,0 -1.89,0.09 -1.04,0.11 -1.34,0.2 -1.34,0.8 0,0.36 0.45,2.09 0.7,3.14 l 1.74,7.03 c 0.25,0.94 0.29,1.09 0.7,1.55 z"
           id="path6415"
           inkscape:connector-curvature="0"
           style="fill:#000000;stroke-width:0" /><path
           d="m 510.73,427.03 -0.02,-0.07 -0.02,-0.07 -0.01,-0.07 -0.02,-0.08 -0.02,-0.07 -0.02,-0.08 -0.04,-0.16 -0.04,-0.16 -0.04,-0.16 -0.04,-0.16 -0.02,-0.08 -0.02,-0.07 -0.02,-0.08 -0.02,-0.07 -0.01,-0.07 -0.02,-0.07 -0.02,-0.07 -0.01,-0.06 -0.01,-0.06 -0.02,-0.06 -0.01,-0.05 -0.01,-0.05 -0.01,-0.05 0,-0.04 -0.01,-0.03 0,-0.03 -0.01,-0.03 0,-0.02 c 0,-0.76 0.63,-1.1 1.17,-1.1 0.64,0 1.19,0.45 1.36,0.76 0.19,0.31 0.46,1.42 0.64,2.16 0.18,0.65 0.55,2.26 0.77,3.14 0.2,0.76 0.41,1.53 0.59,2.33 0.38,1.5 0.38,1.56 1.08,2.65 1.11,1.71 2.86,3.69 5.56,3.69 1.96,0 2.07,-1.61 2.07,-2.44 0,-2.09 -1.5,-5.95 -2.07,-7.42 -0.37,-0.98 -0.51,-1.3 -0.51,-1.89 0,-1.84 1.53,-2.98 3.31,-2.98 3.49,0 5.02,4.79 5.02,5.32 0,0.46 -0.46,0.46 -0.57,0.46 -0.48,0 -0.51,-0.21 -0.65,-0.6 -0.8,-2.78 -2.3,-4.22 -3.69,-4.22 -0.73,0 -0.87,0.49 -0.87,1.22 0,0.8 0.17,1.25 0.79,2.83 0.42,1.08 1.85,4.77 1.85,6.72 0,0.56 0,2.03 -1.29,3.03 -0.59,0.45 -1.6,0.94 -3.25,0.94 -3.12,0 -5.04,-2.05 -6.15,-3.52 -0.28,2.97 -2.77,3.52 -4.53,3.52 -2.89,0 -4.85,-1.77 -5.89,-3.16 -0.25,2.39 -2.3,3.16 -3.74,3.16 -1.5,0 -2.29,-1.08 -2.75,-1.88 -0.76,-1.28 -1.25,-3.28 -1.25,-3.45 0,-0.45 0.49,-0.45 0.6,-0.45 0.48,0 0.51,0.11 0.76,1.04 0.52,2.07 1.19,3.77 2.55,3.77 0.9,0 1.14,-0.77 1.14,-1.7 0,-0.68 -0.31,-1.96 -0.56,-2.89 -0.24,-0.96 -0.58,-2.38 -0.77,-3.14 l -1.11,-4.47 c -0.14,-0.44 -0.34,-1.32 -0.34,-1.43 0,-0.76 0.62,-1.1 1.19,-1.1 0.62,0 1.17,0.45 1.35,0.76 0.18,0.31 0.46,1.42 0.63,2.16 0.17,0.65 0.55,2.26 0.77,3.14 0.2,0.76 0.42,1.53 0.59,2.33 0.37,1.43 0.45,1.7 1.45,3.14 0.99,1.39 2.63,3.2 5.24,3.2 2.01,0 2.04,-1.78 2.04,-2.44 0,-0.87 -0.09,-1.33 -0.59,-3.28 z"
           id="path6417"
           inkscape:connector-curvature="0"
           style="fill:#000000;stroke-width:0" /></g>    </g>
    <g
       id="g6589"
       transform="translate(288.57143,454.28571)">
      <g
         word-spacing="normal"
         letter-spacing="normal"
         font-size-adjust="none"
         font-stretch="normal"
         font-weight="normal"
         font-variant="normal"
         font-style="normal"
         stroke-miterlimit="10.433"
         xml:space="preserve"
         transform="matrix(0.28687973,0,0,-0.28687973,-50.203952,206.12857)"
         id="g6591"
         style="font-style:normal;font-variant:normal;font-weight:normal;font-stretch:normal;letter-spacing:normal;word-spacing:normal;text-anchor:start;fill:none;stroke:#000000;stroke-linecap:butt;stroke-linejoin:miter;stroke-miterlimit:10.43299961;stroke-opacity:1;stroke-dasharray:none;stroke-dashoffset:0"><path
           id="path6593"
           d="m 491.39,439.03 0.01,0.04 0.01,0.04 0.01,0.04 0.02,0.04 0.01,0.04 0.01,0.05 0.01,0.04 0.01,0.05 0.01,0.04 0.01,0.05 0.01,0.05 0.01,0.05 0.01,0.05 0,0.06 0,0.05 0,0.03 0.01,0.03 c 0,0.45 -0.25,0.45 -1.24,0.45 h -21.03 c -1.19,0 -1.25,-0.05 -1.55,-1 l -2.73,-8.97 c -0.11,-0.25 -0.16,-0.59 -0.16,-0.7 0,-0.05 0,-0.55 0.61,-0.55 0.44,0 0.55,0.36 0.64,0.5 1.89,5.89 4.49,9.17 12.25,9.17 h 8.13 l -27.85,-31.14 c 0,-0.04 -0.2,-0.75 -0.2,-0.89 0,-0.45 0.34,-0.45 1.25,-0.45 h 21.67 c 1.19,0 1.24,0.05 1.55,1 l 3.53,11 c 0.05,0.2 0.2,0.56 0.2,0.75 0,0.25 -0.2,0.55 -0.65,0.55 -0.44,0 -0.5,-0.19 -0.85,-1.24 -2.18,-6.78 -4.57,-10.37 -13.04,-10.37 h -8.53 z"
           inkscape:connector-curvature="0"
           style="fill:#000000;stroke-width:0" /><path
           id="path6595"
           d="m 508.2,427.03 -0.01,-0.07 -0.02,-0.07 -0.02,-0.07 -0.02,-0.08 -0.02,-0.07 -0.02,-0.08 -0.04,-0.16 -0.04,-0.16 -0.04,-0.16 -0.04,-0.16 -0.01,-0.08 -0.02,-0.07 -0.02,-0.08 -0.02,-0.07 -0.02,-0.07 -0.01,-0.07 -0.02,-0.07 -0.01,-0.06 -0.02,-0.06 -0.01,-0.06 -0.01,-0.05 -0.01,-0.05 -0.01,-0.05 -0.01,-0.04 0,-0.03 -0.01,-0.03 0,-0.03 0,-0.02 c 0,-0.76 0.62,-1.1 1.17,-1.1 0.64,0 1.19,0.45 1.36,0.76 0.19,0.31 0.45,1.42 0.64,2.16 0.17,0.65 0.55,2.26 0.77,3.14 0.2,0.76 0.4,1.53 0.59,2.33 0.37,1.5 0.37,1.56 1.08,2.65 1.11,1.71 2.86,3.69 5.56,3.69 1.95,0 2.06,-1.61 2.06,-2.44 0,-2.09 -1.5,-5.95 -2.06,-7.42 -0.37,-0.98 -0.51,-1.3 -0.51,-1.89 0,-1.84 1.53,-2.98 3.31,-2.98 3.48,0 5.01,4.79 5.01,5.32 0,0.46 -0.45,0.46 -0.56,0.46 -0.48,0 -0.52,-0.21 -0.66,-0.6 -0.79,-2.78 -2.29,-4.22 -3.68,-4.22 -0.74,0 -0.88,0.49 -0.88,1.22 0,0.8 0.17,1.25 0.8,2.83 0.42,1.08 1.84,4.77 1.84,6.72 0,0.56 0,2.03 -1.28,3.03 -0.59,0.45 -1.61,0.94 -3.25,0.94 -3.12,0 -5.05,-2.05 -6.15,-3.52 -0.29,2.97 -2.77,3.52 -4.54,3.52 -2.89,0 -4.84,-1.77 -5.89,-3.16 -0.25,2.39 -2.29,3.16 -3.73,3.16 -1.5,0 -2.3,-1.08 -2.75,-1.88 -0.77,-1.28 -1.25,-3.28 -1.25,-3.45 0,-0.45 0.48,-0.45 0.59,-0.45 0.49,0 0.52,0.11 0.77,1.04 0.51,2.07 1.19,3.77 2.54,3.77 0.91,0 1.15,-0.77 1.15,-1.7 0,-0.68 -0.32,-1.96 -0.57,-2.89 -0.23,-0.96 -0.58,-2.38 -0.76,-3.14 l -1.11,-4.47 c -0.14,-0.44 -0.35,-1.32 -0.35,-1.43 0,-0.76 0.63,-1.1 1.19,-1.1 0.63,0 1.17,0.45 1.36,0.76 0.17,0.31 0.45,1.42 0.63,2.16 0.17,0.65 0.54,2.26 0.76,3.14 0.2,0.76 0.42,1.53 0.6,2.33 0.37,1.43 0.45,1.7 1.45,3.14 0.98,1.39 2.62,3.2 5.23,3.2 2.02,0 2.05,-1.78 2.05,-2.44 0,-0.87 -0.09,-1.33 -0.59,-3.28 z"
           inkscape:connector-curvature="0"
           style="fill:#000000;stroke-width:0" /></g>    </g>
  </g>
</svg>
