<?xml version="1.0" encoding="UTF-8" standalone="no"?>
<svg
   xmlns:dc="http://purl.org/dc/elements/1.1/"
   xmlns:cc="http://creativecommons.org/ns#"
   xmlns:rdf="http://www.w3.org/1999/02/22-rdf-syntax-ns#"
   xmlns:svg="http://www.w3.org/2000/svg"
   xmlns="http://www.w3.org/2000/svg"
   xmlns:sodipodi="http://sodipodi.sourceforge.net/DTD/sodipodi-0.dtd"
   xmlns:inkscape="http://www.inkscape.org/namespaces/inkscape"
   width="293.16064"
   height="214.20354"
   id="svg2"
   version="1.1"
   inkscape:version="1.0.2 (e86c870879, 2021-01-15)"
   sodipodi:docname="pruning-schematic.ink.svg"
   viewBox="0 0 274.8381 200.81581">
  <sodipodi:namedview
     id="base"
     pagecolor="#ffffff"
     bordercolor="#666666"
     borderopacity="1.0"
     inkscape:pageopacity="0.0"
     inkscape:pageshadow="2"
     inkscape:zoom="2.7145607"
     inkscape:cx="195.06812"
     inkscape:cy="95.070809"
     inkscape:document-units="px"
     inkscape:current-layer="layer1"
     showgrid="false"
     inkscape:window-width="1920"
     inkscape:window-height="1016"
     inkscape:window-x="0"
     inkscape:window-y="0"
     inkscape:window-maximized="1"
     fit-margin-top="0"
     fit-margin-left="0"
     fit-margin-right="0"
     fit-margin-bottom="0"
     inkscape:document-rotation="0">
    <inkscape:grid
       originy="-491.65794"
       originx="-149.41191"
       snapvisiblegridlinesonly="true"
       enabled="true"
       visible="true"
       empspacing="5"
       units="pt"
       id="grid2985"
       type="xygrid"
       spacingx="18"
       spacingy="17.999999" />
  </sodipodi:namedview>
  <defs
     id="defs4">
    <marker
       style="overflow:visible"
       id="Arrow1Lstart"
       refX="0"
       refY="0"
       orient="auto"
       inkscape:stockid="Arrow1Lstart">
      <path
         inkscape:connector-curvature="0"
         transform="matrix(0.8,0,0,0.8,10,0)"
         style="fill-rule:evenodd;stroke:#000000;stroke-width:1pt"
         d="M 0,0 5,-5 -12.5,0 5,5 Z"
         id="path4194" />
    </marker>
    <marker
       style="overflow:visible"
       id="Arrow1Lend"
       refX="0"
       refY="0"
       orient="auto"
       inkscape:stockid="Arrow1Lend">
      <path
         inkscape:connector-curvature="0"
         transform="matrix(-0.8,0,0,-0.8,-10,0)"
         style="fill-rule:evenodd;stroke:#000000;stroke-width:1pt"
         d="M 0,0 5,-5 -12.5,0 5,5 Z"
         id="path4197" />
    </marker>
  </defs>
  <metadata
     id="metadata7">
    <rdf:RDF>
      <cc:Work
         rdf:about="">
        <dc:format>image/svg+xml</dc:format>
        <dc:type
           rdf:resource="http://purl.org/dc/dcmitype/StillImage" />
        <dc:title />
      </cc:Work>
    </rdf:RDF>
  </metadata>
  <g
     transform="translate(-149.41191,-359.88841)"
     id="layer1"
     inkscape:groupmode="layer"
     inkscape:label="Layer 1">
    <g
       transform="matrix(-0.51971275,0,0,0.67826523,485.60546,175.80993)"
       id="g2991">
      <path
         style="fill:none;stroke:#000000;stroke-width:1.6843px;stroke-linecap:butt;stroke-linejoin:miter;stroke-opacity:1"
         d="m 212.5,514.86218 150,-212.5 175,212.5"
         id="path2987"
         inkscape:connector-curvature="0"
         sodipodi:nodetypes="ccc" />
      <path
         style="fill:none;stroke:#000000;stroke-width:1.6843px;stroke-linecap:butt;stroke-linejoin:miter;stroke-opacity:1"
         d="m 400,514.86218 75,-75"
         id="path2989"
         inkscape:connector-curvature="0" />
    </g>
    <g
       id="g3790"
       transform="matrix(0.52528573,0,0,0.52528573,134.09247,184.12255)">
      <g
         word-spacing="normal"
         letter-spacing="normal"
         font-size-adjust="none"
         font-stretch="normal"
         font-weight="normal"
         font-variant="normal"
         font-style="normal"
         stroke-miterlimit="10.433"
         xml:space="preserve"
         transform="matrix(1.0629921,0,0,-1.0629921,-186.02362,789.27165)"
         id="content"
         style="font-style:normal;font-variant:normal;font-weight:normal;font-stretch:normal;letter-spacing:normal;word-spacing:normal;text-anchor:start;fill:none;stroke:#000000;stroke-width:1.90373;stroke-linecap:butt;stroke-linejoin:miter;stroke-miterlimit:10.433;stroke-dasharray:none;stroke-dashoffset:0;stroke-opacity:1"><path
           id="path3793"
           d="m 468.72,424.78 h 5.63 c -1.64,-7.38 -2.1,-9.52 -2.1,-12.85 0,-0.75 0,-2.09 0.41,-3.79 0.5,-2.19 1.05,-2.49 1.8,-2.49 0.98,0 2.03,0.89 2.03,1.89 0,0.3 0,0.41 -0.3,1.1 -1.44,3.59 -1.44,6.82 -1.44,8.22 0,2.64 0.35,5.34 0.89,7.92 h 5.69 c 0.64,0 2.44,0 2.44,1.7 0,1.19 -1.05,1.19 -2,1.19 h -16.69 c -1.09,0 -2.98,0 -5.17,-2.35 -1.75,-1.93 -3.05,-4.23 -3.05,-4.48 0,-0.05 0,-0.48 0.6,-0.48 0.4,0 0.5,0.18 0.79,0.59 2.46,3.83 5.35,3.83 6.33,3.83 h 2.85 c -1.6,-6.02 -4.29,-12.05 -6.38,-16.58 -0.41,-0.75 -0.41,-0.86 -0.41,-1.2 0,-0.96 0.8,-1.35 1.46,-1.35 1.5,0 1.89,1.39 2.48,3.24 0.71,2.29 0.71,2.39 1.35,4.89 z"
           inkscape:connector-curvature="0"
           style="fill:#000000;stroke-width:0" /></g>
    </g>
    <path
       id="path3891"
       d="m 348.2368,449.91277 0.061,-0.004 h 0.0697 0.074 0.074 l 0.0827,-0.004 h 0.0871 l 0.0915,-0.004 0.0958,-0.004 0.0958,-0.004 0.10017,-0.004 0.10453,-0.004 0.10889,-0.009 0.10888,-0.009 0.10889,-0.009 0.23083,-0.0218 0.23084,-0.0305 0.23955,-0.0305 0.23519,-0.0435 0.23519,-0.0479 0.23519,-0.0523 0.11324,-0.0305 0.11324,-0.0348 0.10889,-0.0349 0.10888,-0.0348 0.10453,-0.0392 0.10453,-0.0435 c 1.51568,-0.65331 1.62457,-1.92945 1.62457,-2.22997 0,-0.95819 -0.82317,-1.84233 -2.32143,-1.84233 v 0.47474 c 1.02352,0 1.60714,0.62717 1.60714,1.36759 0,2.25174 -3.47125,2.25174 -4.35976,2.25174 h -0.89285 c 0.8493,-3.29268 3.08362,-3.61933 3.64547,-3.61933 v -0.47474 c -2.40854,0 -5.67945,2.0993 -5.67945,5.89721 0,2.21254 1.27614,3.92857 3.40157,3.92857 3.10105,0 4.92596,-2.29965 4.92596,-2.56098 0,-0.1263 -0.13066,-0.2831 -0.25697,-0.2831 -0.10888,0 -0.15244,0.0479 -0.28745,0.21777 -1.71603,2.14722 -4.07666,2.14722 -4.33363,2.14722 -1.69425,0 -1.8946,-1.82056 -1.8946,-2.51743 0,-0.25696 0.0218,-0.93205 0.34843,-2.25609 z"
       inkscape:connector-curvature="0"
       style="font-style:normal;font-variant:normal;font-weight:normal;font-stretch:normal;letter-spacing:normal;word-spacing:normal;text-anchor:start;fill:#000000;stroke:#000000;stroke-width:0;stroke-linecap:butt;stroke-linejoin:miter;stroke-miterlimit:10.433;stroke-dasharray:none;stroke-dashoffset:0;stroke-opacity:1" />
    <path
       id="path3893"
       d="m 358.00596,441.09308 h 1.54182 c 0.28745,0 0.48345,0 0.48345,-0.33536 0,-0.20906 -0.196,-0.20906 -0.44861,-0.20906 h -1.44164 l 0.55749,-2.24739 c 0.0131,-0.074 0.0479,-0.14808 0.0479,-0.21342 0,-0.27874 -0.20906,-0.4878 -0.51829,-0.4878 -0.37892,0 -0.6054,0.25697 -0.71429,0.65331 -0.10017,0.37892 0.0958,-0.34843 -0.57926,2.2953 h -1.54182 c -0.28745,0 -0.48345,0 -0.48345,0.33101 0,0.21341 0.17422,0.21341 0.45732,0.21341 h 1.43293 l -0.8885,3.57578 c -0.0958,0.38328 -0.23519,0.92771 -0.23519,1.1237 0,0.89721 0.76219,1.44164 1.62891,1.44164 1.68555,0 2.63938,-2.12108 2.63938,-2.31708 0,-0.20035 -0.196,-0.20035 -0.2439,-0.20035 -0.17858,0 -0.196,0.0349 -0.31359,0.28746 -0.42683,0.95819 -1.20645,1.81185 -2.03398,1.81185 -0.3223,0 -0.53135,-0.20035 -0.53135,-0.74478 0,-0.15679 0.061,-0.47473 0.0871,-0.62282 z"
       inkscape:connector-curvature="0"
       style="font-style:normal;font-variant:normal;font-weight:normal;font-stretch:normal;letter-spacing:normal;word-spacing:normal;text-anchor:start;fill:#000000;stroke:#000000;stroke-width:0;stroke-linecap:butt;stroke-linejoin:miter;stroke-miterlimit:10.433;stroke-dasharray:none;stroke-dashoffset:0;stroke-opacity:1" />
    <path
       id="path3895"
       d="m 371.37704,441.72897 v 0 0 0 -0.004 0 0 -0.004 -0.004 -0.004 -0.004 l -0.004,-0.004 v -0.004 -0.009 -0.004 l -0.004,-0.009 -0.004,-0.004 v -0.009 l -0.004,-0.004 -0.004,-0.009 -0.004,-0.004 -0.004,-0.009 -0.004,-0.004 -0.004,-0.009 -0.004,-0.004 h -0.004 l -0.004,-0.004 -0.004,-0.004 v 0 l -0.004,-0.004 -0.004,-0.004 h -0.004 l -0.004,-0.004 h -0.009 l -0.004,-0.004 h -0.004 l -0.004,-0.004 h -0.004 l -0.009,-0.004 h -0.004 -0.009 l -0.004,-0.004 h -0.009 -0.004 -0.009 -0.004 -0.009 -0.009 c -0.0697,0 -0.074,0.0131 -0.2047,0.1263 l -0.74913,0.74913 c -0.0261,0.0218 -0.10017,0.10453 -0.12195,0.10453 -0.0218,0 -0.0392,-0.0348 -0.0523,-0.0348 -0.21777,-0.23955 -0.8798,-0.94512 -2.29966,-0.94512 -2.98345,0 -5.7317,2.33449 -5.7317,4.70818 0,1.7683 1.52439,3.17945 3.84582,3.17945 1.0932,0 2.0601,-0.37021 2.72212,-0.79269 1.38502,-0.90156 1.55052,-2.0601 1.55052,-2.07317 0,-0.15244 -0.14808,-0.15244 -0.23083,-0.15244 -0.1176,0 -0.18293,0.009 -0.22648,0.14373 -0.52265,1.70732 -2.32143,2.38241 -3.5453,2.38241 -1.27178,0 -2.91376,-0.53572 -2.91376,-2.43467 0,-1.21951 0.64024,-2.47823 1.32839,-3.13154 1.25871,-1.19338 2.68729,-1.34146 3.36237,-1.34146 1.38938,0 2.26481,0.89721 2.26481,2.14286 0,0.24826 -0.0174,0.29617 -0.0174,0.3615 0,0.1655 0.14808,0.1655 0.24826,0.1655 0.2047,0 0.2047,-0.0348 0.26132,-0.23955 z"
       inkscape:connector-curvature="0"
       style="font-style:normal;font-variant:normal;font-weight:normal;font-stretch:normal;letter-spacing:normal;word-spacing:normal;text-anchor:start;fill:#000000;stroke:#000000;stroke-width:0;stroke-linecap:butt;stroke-linejoin:miter;stroke-miterlimit:10.433;stroke-dasharray:none;stroke-dashoffset:0;stroke-opacity:1" />
    <path
       id="path3897"
       d="m 386.29865,436.61137 -0.004,-0.004 v -0.009 -0.009 -0.004 -0.009 l -0.004,-0.009 v -0.009 l -0.004,-0.009 v -0.009 l -0.004,-0.009 -0.004,-0.009 -0.004,-0.004 -0.004,-0.009 -0.004,-0.009 -0.004,-0.009 -0.004,-0.009 -0.009,-0.004 -0.004,-0.009 -0.009,-0.009 -0.004,-0.004 -0.009,-0.009 -0.009,-0.004 -0.009,-0.004 -0.009,-0.004 -0.0131,-0.004 -0.009,-0.004 -0.009,-0.004 -0.0131,-0.004 h -0.004 -0.009 -0.004 l -0.009,-0.004 h -0.004 -0.009 -0.004 -0.009 c -0.10889,0 -0.13502,0.0348 -0.27004,0.18293 l -1.11062,1.1716 c -0.13502,-0.18293 -0.98868,-1.35453 -2.85279,-1.35453 -3.68902,0 -7.29965,3.26655 -7.29965,6.69861 0,2.34756 1.79007,4.277 4.69948,4.277 1.34146,0 2.75261,-0.35279 3.54094,-1.20209 0.14808,0.33101 0.5662,0.88415 0.74041,0.88415 0.13938,0 0.16986,-0.061 0.24826,-0.38328 l 0.2831,-1.16725 c 0.074,-0.27439 0.29181,-1.18467 0.33537,-1.36324 0.18293,-0.68815 0.19599,-0.70122 1.0932,-0.71428 0.10889,0 0.33537,0 0.33537,-0.31795 0,-0.15244 -0.10888,-0.22648 -0.22648,-0.22648 -0.50087,0 -1.14112,0.0566 -1.67247,0.0566 -0.37457,0 -0.8798,0 -1.25872,-0.0131 -0.38327,-0.0174 -0.81881,-0.0436 -1.19773,-0.0436 -0.10889,0 -0.33537,0 -0.33537,0.33537 0,0.20906 0.16551,0.20906 0.54443,0.20906 0.29181,0 0.59233,0 0.88415,0.0261 0.48344,0.0479 0.49651,0.10888 0.49651,0.29617 0,0.061 0,0.0871 -0.10017,0.48345 -0.10889,0.41811 -0.27875,1.10627 -0.33972,1.25871 -0.43554,0.92334 -1.85105,1.33275 -3.03572,1.33275 -1.52003,0 -3.5061,-0.72735 -3.5061,-3.29268 0,-1.62021 0.7622,-3.65418 1.88589,-4.79094 1.56795,-1.55488 3.1838,-1.79007 4.03746,-1.79007 1.75958,0 2.78746,1.27177 2.78746,2.97038 0,0.42247 -0.0392,0.53136 -0.0392,0.62282 0,0.196 0.19599,0.196 0.27003,0.196 0.24826,0 0.24826,-0.0479 0.3223,-0.33537 z"
       inkscape:connector-curvature="0"
       style="font-style:normal;font-variant:normal;font-weight:normal;font-stretch:normal;letter-spacing:normal;word-spacing:normal;text-anchor:start;fill:#000000;stroke:#000000;stroke-width:0;stroke-linecap:butt;stroke-linejoin:miter;stroke-miterlimit:10.433;stroke-dasharray:none;stroke-dashoffset:0;stroke-opacity:1" />
    <g
       id="g3473"
       transform="translate(20)">
      <path
         id="path3959"
         d="m 152.449,497.12687 0.0603,-0.004 h 0.0689 0.0733 0.0733 l 0.0819,-0.004 h 0.0862 l 0.0905,-0.004 0.0948,-0.004 0.0948,-0.004 0.0991,-0.004 0.10341,-0.004 0.10772,-0.008 0.10772,-0.008 0.10771,-0.008 0.22836,-0.021 0.22836,-0.0294 0.23698,-0.0294 0.23267,-0.0421 0.23267,-0.0463 0.23267,-0.0505 0.11203,-0.0294 0.11202,-0.0337 0.10772,-0.0337 0.10772,-0.0336 0.10341,-0.0378 0.10341,-0.0421 c 1.49942,-0.63093 1.60714,-1.86334 1.60714,-2.15357 0,-0.92536 -0.81434,-1.77922 -2.29654,-1.77922 v 0.45848 c 1.01255,0 1.58991,0.60569 1.58991,1.32074 0,2.1746 -3.43403,2.1746 -4.313,2.1746 h -0.88328 c 0.84019,-3.17988 3.05055,-3.49534 3.60637,-3.49534 v -0.45848 c -2.3827,0 -5.61853,2.02738 -5.61853,5.69518 0,2.13674 1.26244,3.79398 3.36509,3.79398 3.06779,0 4.87313,-2.22087 4.87313,-2.47324 0,-0.12198 -0.12926,-0.2734 -0.25421,-0.2734 -0.10772,0 -0.15081,0.0463 -0.28438,0.21031 -1.69762,2.07365 -4.03293,2.07365 -4.28715,2.07365 -1.67608,0 -1.87428,-1.75819 -1.87428,-2.43118 0,-0.24816 0.0215,-0.90012 0.3447,-2.1788 z"
         inkscape:connector-curvature="0"
         style="font-style:normal;font-variant:normal;font-weight:normal;font-stretch:normal;letter-spacing:normal;word-spacing:normal;text-anchor:start;fill:#000000;stroke:#000000;stroke-width:0;stroke-linecap:butt;stroke-linejoin:miter;stroke-miterlimit:10.433;stroke-dasharray:none;stroke-dashoffset:0;stroke-opacity:1" />
      <path
         id="path3961"
         d="m 162.1134,488.60934 h 1.52528 c 0.28437,0 0.47827,0 0.47827,-0.32387 0,-0.2019 -0.1939,-0.2019 -0.4438,-0.2019 h -1.42618 l 0.55152,-2.17039 c 0.0129,-0.0715 0.0474,-0.14301 0.0474,-0.20611 0,-0.26919 -0.20682,-0.47109 -0.51273,-0.47109 -0.37486,0 -0.59891,0.24817 -0.70663,0.63093 -0.0991,0.36594 0.0948,-0.3365 -0.57306,2.21666 h -1.52527 c -0.28438,0 -0.47827,0 -0.47827,0.31967 0,0.2061 0.17235,0.2061 0.45241,0.2061 h 1.41756 l -0.87897,3.45328 c -0.0948,0.37014 -0.23267,0.89592 -0.23267,1.0852 0,0.86647 0.75402,1.39224 1.61145,1.39224 1.66747,0 2.61107,-2.04841 2.61107,-2.23769 0,-0.19348 -0.19389,-0.19348 -0.24128,-0.19348 -0.17666,0 -0.1939,0.0337 -0.31023,0.27761 -0.42225,0.92536 -1.19351,1.74977 -2.01216,1.74977 -0.31884,0 -0.52566,-0.19349 -0.52566,-0.71926 0,-0.15142 0.0603,-0.45847 0.0862,-0.60148 z"
         inkscape:connector-curvature="0"
         style="font-style:normal;font-variant:normal;font-weight:normal;font-stretch:normal;letter-spacing:normal;word-spacing:normal;text-anchor:start;fill:#000000;stroke:#000000;stroke-width:0;stroke-linecap:butt;stroke-linejoin:miter;stroke-miterlimit:10.433;stroke-dasharray:none;stroke-dashoffset:0;stroke-opacity:1" />
      <path
         id="path3963"
         d="m 172.68263,489.24868 -0.004,-0.021 -0.004,-0.0168 -0.004,-0.021 -0.004,-0.0168 -0.004,-0.0168 -0.004,-0.0168 -0.004,-0.0126 -0.004,-0.0168 -0.004,-0.0126 -0.009,-0.0126 -0.004,-0.0126 -0.009,-0.0126 -0.004,-0.008 -0.009,-0.0126 -0.009,-0.008 -0.009,-0.008 -0.009,-0.008 -0.009,-0.008 -0.009,-0.004 -0.0129,-0.008 -0.009,-0.004 -0.0129,-0.004 -0.0129,-0.004 -0.0172,-0.004 -0.0129,-0.004 -0.0172,-0.004 h -0.0172 l -0.0172,-0.004 h -0.0172 -0.0172 -0.0215 -0.0215 c -0.25421,0 -0.32315,0.0841 -0.43087,0.23975 l -4.2096,5.95596 c -0.44379,0.63514 -0.81865,0.80338 -1.52096,0.83283 -0.20251,0.0126 -0.20251,0.28602 -0.20251,0.29864 0,0.14301 0.12926,0.17666 0.16804,0.17666 0.15511,0 0.34038,-0.0337 0.48688,-0.0337 0.18096,0 0.36193,-0.008 0.54289,-0.008 0.21113,0 0.40071,0.008 0.5946,0.008 0.1939,0 0.41795,0.0337 0.61184,0.0337 0.0733,0 0.25852,0 0.25852,-0.29444 0,-0.16825 -0.16373,-0.18086 -0.20251,-0.18086 -0.0905,0 -0.50842,-0.0168 -0.50842,-0.2692 0,-0.12198 0.12926,-0.30284 0.2025,-0.408 l 0.7885,-1.12305 c 0.056,-0.0631 0.0603,-0.0715 0.26283,-0.0715 h 3.25737 l -0.0862,-0.47109 h -3.05055 l 2.39563,-3.39439 0.65492,3.39439 0.0862,0.47109 c 0.0215,0.12619 0.0302,0.17666 0.0603,0.30285 0.0345,0.18928 0.2499,1.23662 0.2499,1.34177 0,0.22714 -0.68077,0.22714 -0.73247,0.22714 -0.16373,0 -0.33177,0 -0.33177,0.29864 0,0.10515 0.0776,0.17666 0.1982,0.17666 0.21974,0 0.47826,-0.0337 0.71093,-0.0337 0.26283,0 0.50412,-0.008 0.76695,-0.008 0.22405,0 0.46103,0.008 0.68939,0.008 0.21544,0 0.45672,0.0337 0.67216,0.0337 0.18096,0 0.25421,-0.12619 0.25421,-0.29444 0,-0.18086 -0.16804,-0.18086 -0.31454,-0.18086 -0.71524,0 -0.71955,-0.0715 -0.76694,-0.29864 z"
         inkscape:connector-curvature="0"
         style="font-style:normal;font-variant:normal;font-weight:normal;font-stretch:normal;letter-spacing:normal;word-spacing:normal;text-anchor:start;fill:#000000;stroke:#000000;stroke-width:0;stroke-linecap:butt;stroke-linejoin:miter;stroke-miterlimit:10.433;stroke-dasharray:none;stroke-dashoffset:0;stroke-opacity:1" />
      <path
         id="path3965"
         d="m 189.79246,484.28118 v -0.004 l -0.004,-0.008 v -0.008 -0.004 -0.008 l -0.004,-0.008 v -0.008 l -0.004,-0.008 v -0.008 l -0.004,-0.008 -0.004,-0.008 -0.004,-0.004 -0.004,-0.008 -0.004,-0.008 -0.004,-0.008 -0.004,-0.008 -0.009,-0.004 -0.004,-0.008 -0.009,-0.008 -0.004,-0.004 -0.009,-0.008 -0.009,-0.004 -0.009,-0.004 -0.009,-0.004 -0.009,-0.004 -0.0129,-0.004 -0.009,-0.004 -0.0129,-0.004 h -0.004 -0.009 -0.004 l -0.009,-0.004 h -0.004 -0.009 -0.004 -0.009 c -0.10772,0 -0.13357,0.0336 -0.26714,0.17666 l -1.09872,1.13146 c -0.13357,-0.17666 -0.97807,-1.30812 -2.82219,-1.30812 -3.64947,0 -7.22138,3.15464 -7.22138,6.46911 0,2.26714 1.77088,4.13048 4.64908,4.13048 1.32708,0 2.7231,-0.34071 3.50297,-1.16091 0.1465,0.31967 0.56013,0.85385 0.73248,0.85385 0.13788,0 0.16804,-0.0589 0.2456,-0.37014 l 0.28006,-1.12726 c 0.0733,-0.26499 0.28868,-1.14408 0.33177,-1.31653 0.18097,-0.66458 0.19389,-0.6772 1.08148,-0.68982 0.10772,0 0.33177,0 0.33177,-0.30705 0,-0.14722 -0.10771,-0.21872 -0.22405,-0.21872 -0.4955,0 -1.12888,0.0547 -1.65454,0.0547 -0.37055,0 -0.87035,0 -1.24521,-0.0126 -0.37917,-0.0168 -0.81003,-0.0421 -1.18489,-0.0421 -0.10772,0 -0.33177,0 -0.33177,0.32387 0,0.2019 0.16373,0.2019 0.53859,0.2019 0.28868,0 0.58598,0 0.87897,0.0252 0.47396,0.0463 0.48688,0.10515 0.48688,0.28602 0,0.0589 0,0.0841 -0.0991,0.46689 -0.10772,0.40379 -0.27575,1.06837 -0.33608,1.21558 -0.43087,0.89171 -1.83119,1.2871 -3.00316,1.2871 -1.49942,0 -3.46849,-0.70244 -3.46849,-3.17988 0,-1.5647 0.75402,-3.52899 1.86566,-4.6268 1.55113,-1.50161 3.15396,-1.72875 3.99416,-1.72875 1.74502,0 2.75756,1.22821 2.75756,2.86862 0,0.408 -0.0388,0.51316 -0.0388,0.60149 0,0.18928 0.19389,0.18928 0.26713,0.18928 0.2456,0 0.2456,-0.0463 0.31885,-0.32388 z"
         inkscape:connector-curvature="0"
         style="font-style:normal;font-variant:normal;font-weight:normal;font-stretch:normal;letter-spacing:normal;word-spacing:normal;text-anchor:start;fill:#000000;stroke:#000000;stroke-width:0;stroke-linecap:butt;stroke-linejoin:miter;stroke-miterlimit:10.433;stroke-dasharray:none;stroke-dashoffset:0;stroke-opacity:1" />
    </g>
    <path
       id="path4035"
       d="m 267.82815,496.76304 0.061,-0.004 h 0.0697 0.074 0.074 l 0.0827,-0.004 h 0.0871 l 0.0915,-0.004 0.0958,-0.004 0.0958,-0.004 0.10018,-0.004 0.10453,-0.004 0.10888,-0.009 0.10889,-0.009 0.10888,-0.009 0.23084,-0.0218 0.23084,-0.0305 0.23954,-0.0305 0.23519,-0.0435 0.2352,-0.0479 0.23519,-0.0523 0.11324,-0.0305 0.11324,-0.0348 0.10888,-0.0349 0.10889,-0.0348 0.10453,-0.0392 0.10453,-0.0435 c 1.51568,-0.65331 1.62456,-1.92945 1.62456,-2.22997 0,-0.95819 -0.82317,-1.84233 -2.32143,-1.84233 v 0.47474 c 1.02352,0 1.60715,0.62717 1.60715,1.36759 0,2.25174 -3.47126,2.25174 -4.35976,2.25174 h -0.89286 c 0.84931,-3.29268 3.08363,-3.61933 3.64547,-3.61933 v -0.47474 c -2.40853,0 -5.67944,2.0993 -5.67944,5.89721 0,2.21254 1.27613,3.92857 3.40157,3.92857 3.10104,0 4.92596,-2.29965 4.92596,-2.56098 0,-0.1263 -0.13067,-0.2831 -0.25697,-0.2831 -0.10889,0 -0.15244,0.0479 -0.28746,0.21777 -1.71603,2.14722 -4.07665,2.14722 -4.33362,2.14722 -1.69425,0 -1.8946,-1.82056 -1.8946,-2.51743 0,-0.25696 0.0218,-0.93205 0.34843,-2.25609 z"
       inkscape:connector-curvature="0"
       style="font-style:normal;font-variant:normal;font-weight:normal;font-stretch:normal;letter-spacing:normal;word-spacing:normal;text-anchor:start;fill:#000000;stroke:#000000;stroke-width:0;stroke-linecap:butt;stroke-linejoin:miter;stroke-miterlimit:10.433;stroke-dasharray:none;stroke-dashoffset:0;stroke-opacity:1" />
    <path
       id="path4037"
       d="m 277.59731,487.94335 h 1.54181 c 0.28746,0 0.48345,0 0.48345,-0.33536 0,-0.20906 -0.19599,-0.20906 -0.4486,-0.20906 h -1.44164 l 0.55749,-2.24739 c 0.0131,-0.074 0.0479,-0.14808 0.0479,-0.21342 0,-0.27874 -0.20906,-0.4878 -0.51829,-0.4878 -0.37892,0 -0.6054,0.25697 -0.71429,0.65331 -0.10017,0.37892 0.0958,-0.34843 -0.57927,2.2953 h -1.54181 c -0.28746,0 -0.48345,0 -0.48345,0.33101 0,0.21341 0.17422,0.21341 0.45732,0.21341 h 1.43292 l -0.8885,3.57578 c -0.0958,0.38328 -0.23519,0.92771 -0.23519,1.1237 0,0.89721 0.7622,1.44164 1.62892,1.44164 1.68554,0 2.63937,-2.12108 2.63937,-2.31708 0,-0.20035 -0.19599,-0.20035 -0.2439,-0.20035 -0.17857,0 -0.19599,0.0349 -0.31359,0.28746 -0.42683,0.95819 -1.20644,1.81185 -2.03397,1.81185 -0.3223,0 -0.53136,-0.20035 -0.53136,-0.74478 0,-0.15679 0.061,-0.47473 0.0871,-0.62282 z"
       inkscape:connector-curvature="0"
       style="font-style:normal;font-variant:normal;font-weight:normal;font-stretch:normal;letter-spacing:normal;word-spacing:normal;text-anchor:start;fill:#000000;stroke:#000000;stroke-width:0;stroke-linecap:butt;stroke-linejoin:miter;stroke-miterlimit:10.433;stroke-dasharray:none;stroke-dashoffset:0;stroke-opacity:1" />
    <path
       id="path4039"
       d="m 283.08076,495.18203 -0.009,0.0261 -0.004,0.0305 -0.009,0.0261 -0.009,0.0261 -0.004,0.0261 -0.009,0.0218 -0.009,0.0218 -0.009,0.0218 -0.009,0.0174 -0.0131,0.0218 -0.0131,0.0174 -0.0131,0.0131 -0.0131,0.0174 -0.0174,0.0131 -0.0218,0.0131 -0.0174,0.0131 -0.0261,0.009 -0.0261,0.009 -0.0261,0.0131 -0.0305,0.004 -0.0174,0.004 -0.0174,0.004 -0.0174,0.004 -0.0174,0.004 h -0.0174 l -0.0218,0.004 -0.0218,0.004 h -0.0218 l -0.0218,0.004 h -0.0218 l -0.0261,0.004 h -0.0261 l -0.0261,0.004 h -0.0261 -0.0261 -0.0305 l -0.0305,0.004 h -0.0305 -0.0348 -0.0305 -0.0348 -0.0392 -0.0348 -0.0392 c -0.2831,0 -0.45296,0 -0.45296,0.30923 0,0.18293 0.16986,0.18293 0.35714,0.18293 h 4.7169 c 1.95558,0 3.54094,-1.21951 3.54094,-2.29965 0,-0.67509 -0.63589,-1.40244 -2.11237,-1.58537 1.07579,-0.13937 2.60889,-0.85801 2.60889,-1.94251 0,-0.91028 -1.07579,-1.58536 -2.55227,-1.58536 l -0.19164,0.49216 c 1.07579,0 1.58537,0.54878 1.58537,1.12805 0,0.87979 -1.17596,1.75522 -2.69599,1.75522 h -2.04704 l -0.10018,0.37021 h 2.64373 c 1.11063,0 1.66377,0.64025 1.66377,1.32404 0,1.04966 -1.2892,1.85105 -2.63502,1.85105 h -2.09495 c -0.0828,0 -0.23955,0 -0.34843,-0.0174 0.0131,-0.0915 0.0131,-0.10889 0.0348,-0.20035 l 0.73606,-2.95732 0.10018,-0.37021 0.62718,-2.53048 c 0.0871,-0.33102 0.0871,-0.35279 0.54442,-0.35279 h 1.98606 l 0.19164,-0.49216 h -4.44686 c -0.20035,0 -0.37892,0 -0.37892,0.30923 0,0.18293 0.14373,0.18293 0.4007,0.18293 0.10888,0 0.47038,0 0.69686,0.061 0,0.13502 0,0.1568 -0.0348,0.27004 z"
       inkscape:connector-curvature="0"
       style="font-style:normal;font-variant:normal;font-weight:normal;font-stretch:normal;letter-spacing:normal;word-spacing:normal;text-anchor:start;fill:#000000;stroke:#000000;stroke-width:0;stroke-linecap:butt;stroke-linejoin:miter;stroke-miterlimit:10.433;stroke-dasharray:none;stroke-dashoffset:0;stroke-opacity:1" />
    <path
       id="path4041"
       d="m 306.09905,483.46164 -0.004,-0.004 v -0.009 -0.009 -0.004 -0.009 l -0.004,-0.009 v -0.009 l -0.004,-0.009 v -0.009 l -0.004,-0.009 -0.004,-0.009 -0.004,-0.004 -0.004,-0.009 -0.004,-0.009 -0.004,-0.009 -0.004,-0.009 -0.009,-0.004 -0.004,-0.009 -0.009,-0.009 -0.004,-0.004 -0.009,-0.009 -0.009,-0.004 -0.009,-0.004 -0.009,-0.004 -0.009,-0.004 -0.0131,-0.004 -0.009,-0.004 -0.0131,-0.004 h -0.004 -0.009 -0.004 l -0.009,-0.004 h -0.004 -0.009 -0.004 -0.009 c -0.10888,0 -0.13501,0.0348 -0.27003,0.18293 l -1.11063,1.1716 c -0.13502,-0.18293 -0.98867,-1.35453 -2.85279,-1.35453 -3.68902,0 -7.29965,3.26655 -7.29965,6.69861 0,2.34756 1.79007,4.277 4.69948,4.277 1.34146,0 2.75261,-0.35279 3.54094,-1.20209 0.14808,0.33101 0.5662,0.88415 0.74042,0.88415 0.13937,0 0.16986,-0.061 0.24826,-0.38328 l 0.2831,-1.16725 c 0.074,-0.27439 0.29181,-1.18467 0.33536,-1.36324 0.18293,-0.68815 0.196,-0.70122 1.09321,-0.71428 0.10888,0 0.33537,0 0.33537,-0.31795 0,-0.15244 -0.10889,-0.22648 -0.22649,-0.22648 -0.50087,0 -1.14111,0.0566 -1.67247,0.0566 -0.37456,0 -0.87979,0 -1.25871,-0.0131 -0.38328,-0.0174 -0.81882,-0.0436 -1.19774,-0.0436 -0.10888,0 -0.33536,0 -0.33536,0.33537 0,0.20906 0.1655,0.20906 0.54442,0.20906 0.29182,0 0.59234,0 0.88415,0.0261 0.48345,0.0479 0.49652,0.10888 0.49652,0.29617 0,0.061 0,0.0871 -0.10018,0.48345 -0.10888,0.41811 -0.27874,1.10627 -0.33972,1.25871 -0.43554,0.92334 -1.85104,1.33275 -3.03571,1.33275 -1.51568,0 -3.5061,-0.72735 -3.5061,-3.29268 0,-1.62021 0.76219,-3.65418 1.88589,-4.79094 1.56794,-1.55488 3.1838,-1.79007 4.03745,-1.79007 1.75959,0 2.78746,1.27177 2.78746,2.97038 0,0.42247 -0.0392,0.53136 -0.0392,0.62282 0,0.196 0.19599,0.196 0.27004,0.196 0.24825,0 0.24825,-0.0479 0.3223,-0.33537 z"
       inkscape:connector-curvature="0"
       style="font-style:normal;font-variant:normal;font-weight:normal;font-stretch:normal;letter-spacing:normal;word-spacing:normal;text-anchor:start;fill:#000000;stroke:#000000;stroke-width:0;stroke-linecap:butt;stroke-linejoin:miter;stroke-miterlimit:10.433;stroke-dasharray:none;stroke-dashoffset:0;stroke-opacity:1" />
    <g
       id="g3479"
       transform="translate(20)">
      <g
         id="g4121"
         transform="matrix(0.4097303,0,0,0.4097303,66.339205,274.49176)">
        <path
           style="font-style:normal;font-variant:normal;font-weight:normal;font-stretch:normal;letter-spacing:normal;word-spacing:normal;text-anchor:start;fill:#000000;stroke:#000000;stroke-width:0;stroke-linecap:butt;stroke-linejoin:miter;stroke-miterlimit:10.433;stroke-dasharray:none;stroke-dashoffset:0;stroke-opacity:1"
           inkscape:connector-curvature="0"
           d="m 308.087,345.24922 0.14882,-0.0106 h 0.17008 0.1807 0.18071 l 0.20197,-0.0106 h 0.2126 l 0.22323,-0.0106 0.23386,-0.0106 0.23385,-0.0106 0.24449,-0.0106 0.25512,-0.0106 0.26575,-0.0213 0.26575,-0.0213 0.26574,-0.0213 0.56339,-0.0532 0.56339,-0.0744 0.58464,-0.0744 0.57402,-0.1063 0.57401,-0.11693 0.57402,-0.12755 0.27638,-0.0744 0.27638,-0.085 0.26574,-0.085 0.26575,-0.085 0.25512,-0.0957 0.25512,-0.1063 c 3.69921,-1.59449 3.96496,-4.70906 3.96496,-5.44252 0,-2.33858 -2.00906,-4.49646 -5.66575,-4.49646 v 1.15866 c 2.49803,0 3.92244,1.53071 3.92244,3.3378 0,5.49567 -8.47205,5.49567 -10.64055,5.49567 h -2.17913 c 2.07283,-8.03622 7.52598,-8.83347 8.89724,-8.83347 v -1.15866 c -5.87835,0 -13.86142,5.12362 -13.86142,14.39292 0,5.4 3.11457,9.58818 8.30197,9.58818 7.56851,0 12.02244,-5.61259 12.02244,-6.25039 0,-0.30827 -0.3189,-0.69094 -0.62716,-0.69094 -0.26575,0 -0.37205,0.11693 -0.70158,0.53149 -4.18819,5.24055 -9.9496,5.24055 -10.57677,5.24055 -4.13504,0 -4.62401,-4.4433 -4.62401,-6.14409 0,-0.62717 0.0531,-2.2748 0.85039,-5.5063 z"
           id="path4125" />
        <path
           style="font-style:normal;font-variant:normal;font-weight:normal;font-stretch:normal;letter-spacing:normal;word-spacing:normal;text-anchor:start;fill:#000000;stroke:#000000;stroke-width:0;stroke-linecap:butt;stroke-linejoin:miter;stroke-miterlimit:10.433;stroke-dasharray:none;stroke-dashoffset:0;stroke-opacity:1"
           inkscape:connector-curvature="0"
           d="m 331.92991,323.72363 h 3.76299 c 0.70158,0 1.17992,0 1.17992,-0.8185 0,-0.51024 -0.47834,-0.51024 -1.09488,-0.51024 h -3.5185 l 1.36063,-5.48504 c 0.0319,-0.18071 0.11693,-0.36142 0.11693,-0.52087 0,-0.68031 -0.51024,-1.19055 -1.26496,-1.19055 -0.92481,0 -1.47756,0.62717 -1.74331,1.59449 -0.24449,0.9248 0.23386,-0.85039 -1.41378,5.60197 h -3.76299 c -0.70158,0 -1.17992,0 -1.17992,0.80787 0,0.52087 0.42519,0.52087 1.11614,0.52087 h 3.49724 l -2.1685,8.72717 c -0.23386,0.93543 -0.57402,2.26417 -0.57402,2.74251 0,2.18977 1.86024,3.51851 3.97559,3.51851 4.11378,0 6.44174,-5.17677 6.44174,-5.65512 0,-0.48898 -0.47835,-0.48898 -0.59528,-0.48898 -0.43583,0 -0.47835,0.085 -0.76535,0.70158 -1.04174,2.33858 -2.94449,4.42205 -4.96418,4.42205 -0.78661,0 -1.29685,-0.48898 -1.29685,-1.81772 0,-0.38268 0.14882,-1.15866 0.2126,-1.52008 z"
           id="path4127" />
        <path
           style="font-style:normal;font-variant:normal;font-weight:normal;font-stretch:normal;letter-spacing:normal;word-spacing:normal;text-anchor:start;fill:#000000;stroke:#000000;stroke-width:0;stroke-linecap:butt;stroke-linejoin:miter;stroke-miterlimit:10.433;stroke-dasharray:none;stroke-dashoffset:0;stroke-opacity:1"
           inkscape:connector-curvature="0"
           d="m 358.00511,325.33938 -0.0106,-0.0532 -0.0106,-0.0425 -0.0106,-0.0532 -0.0106,-0.0425 -0.0106,-0.0425 -0.0106,-0.0425 -0.0106,-0.0319 -0.0106,-0.0425 -0.0106,-0.0319 -0.0213,-0.0319 -0.0106,-0.0319 -0.0213,-0.0319 -0.0106,-0.0213 -0.0213,-0.0319 -0.0213,-0.0213 -0.0213,-0.0213 -0.0213,-0.0213 -0.0213,-0.0213 -0.0213,-0.0106 -0.0319,-0.0213 -0.0213,-0.0106 -0.0319,-0.0106 -0.0319,-0.0106 -0.0425,-0.0106 -0.0319,-0.0106 -0.0425,-0.0106 h -0.0425 l -0.0425,-0.0106 h -0.0425 -0.0425 -0.0532 -0.0532 c -0.62716,0 -0.79724,0.2126 -1.06299,0.60591 l -10.38543,15.05197 c -1.09488,1.60511 -2.01969,2.03031 -3.75236,2.10472 -0.49961,0.0319 -0.49961,0.72284 -0.49961,0.75473 0,0.36141 0.3189,0.44645 0.41457,0.44645 0.38267,0 0.83976,-0.085 1.20118,-0.085 0.44645,0 0.89291,-0.0213 1.33937,-0.0213 0.52086,0 0.98858,0.0213 1.46693,0.0213 0.47834,0 1.0311,0.085 1.50945,0.085 0.1807,0 0.63779,0 0.63779,-0.74409 0,-0.4252 -0.40394,-0.45709 -0.49961,-0.45709 -0.22322,0 -1.25433,-0.0425 -1.25433,-0.68031 0,-0.30827 0.3189,-0.76536 0.49961,-1.03111 l 1.94528,-2.83818 c 0.13818,-0.15945 0.14881,-0.18071 0.64842,-0.18071 h 8.03622 l -0.2126,-1.19055 h -7.52598 l 5.91023,-8.57835 1.61575,8.57835 0.2126,1.19055 c 0.0531,0.31889 0.0744,0.44645 0.14882,0.76535 0.085,0.47835 0.61654,3.1252 0.61654,3.39095 0,0.57401 -1.67953,0.57401 -1.80709,0.57401 -0.40394,0 -0.81851,0 -0.81851,0.75473 0,0.26574 0.19134,0.44645 0.48898,0.44645 0.54213,0 1.17992,-0.085 1.75394,-0.085 0.64842,0 1.2437,-0.0213 1.89212,-0.0213 0.55276,0 1.13741,0.0213 1.70079,0.0213 0.5315,0 1.12677,0.085 1.65827,0.085 0.44646,0 0.62716,-0.3189 0.62716,-0.74409 0,-0.45709 -0.41456,-0.45709 -0.77598,-0.45709 -1.76457,0 -1.7752,-0.18071 -1.89213,-0.75472 z"
           id="path4129" />
        <path
           style="font-style:normal;font-variant:normal;font-weight:normal;font-stretch:normal;letter-spacing:normal;word-spacing:normal;text-anchor:start;fill:#000000;stroke:#000000;stroke-width:0;stroke-linecap:butt;stroke-linejoin:miter;stroke-miterlimit:10.433;stroke-dasharray:none;stroke-dashoffset:0;stroke-opacity:1"
           inkscape:connector-curvature="0"
           d="m 372.73818,341.39056 -0.0213,0.0638 -0.0213,0.0744 -0.0106,0.0638 -0.0213,0.0638 -0.0213,0.0638 -0.0106,0.0531 -0.0213,0.0532 -0.0213,0.0531 -0.0319,0.0425 -0.0213,0.0531 -0.0319,0.0425 -0.0319,0.0319 -0.0425,0.0425 -0.0425,0.0319 -0.0425,0.0319 -0.0532,0.0319 -0.0532,0.0213 -0.0638,0.0213 -0.0638,0.0319 -0.0744,0.0106 -0.0425,0.0106 -0.0425,0.0106 -0.0425,0.0106 -0.0425,0.0106 h -0.0531 l -0.0425,0.0106 -0.0532,0.0106 h -0.0531 l -0.0532,0.0106 h -0.0638 l -0.0532,0.0106 h -0.0638 l -0.0638,0.0106 h -0.0638 -0.0744 -0.0744 l -0.0638,0.0106 h -0.085 -0.0744 -0.085 -0.085 -0.085 -0.085 -0.0957 c -0.70157,0 -1.11614,0 -1.11614,0.75473 0,0.44645 0.41457,0.44645 0.88229,0.44645 h 11.5122 c 4.7622,0 8.6315,-2.97638 8.6315,-5.6126 0,-1.64763 -1.54134,-3.42283 -5.14489,-3.86929 2.62559,-0.34015 6.3567,-2.09409 6.3567,-4.74094 0,-2.22166 -2.61496,-3.86929 -6.22914,-3.86929 l -0.45708,1.20118 c 2.62559,0 3.86929,1.33937 3.86929,2.75315 0,2.14724 -2.88071,4.28386 -6.57992,4.28386 H 377.224 l -0.25511,0.90354 h 6.46299 c 2.71063,0 4.05,1.5626 4.05,3.23149 0,2.56182 -3.13583,4.51772 -6.42047,4.51772 h -5.12363 c -0.19133,0 -0.57401,0 -0.83976,-0.0425 0.0319,-0.22323 0.0319,-0.26575 0.085,-0.48897 l 1.78583,-7.21772 0.25511,-0.90354 1.52008,-6.17599 c 0.22323,-0.80787 0.22323,-0.86102 1.32874,-0.86102 h 4.85788 l 0.45708,-1.20118 h -10.84252 c -0.4996,0 -0.9248,0 -0.9248,0.75472 0,0.44646 0.34016,0.44646 0.97795,0.44646 0.26575,0 1.14804,0 1.69016,0.14882 0,0.32952 0,0.38267 -0.085,0.65905 z"
           id="path4131" />
        <path
           style="font-style:normal;font-variant:normal;font-weight:normal;font-stretch:normal;letter-spacing:normal;word-spacing:normal;text-anchor:start;fill:#000000;stroke:#000000;stroke-width:0;stroke-linecap:butt;stroke-linejoin:miter;stroke-miterlimit:10.433;stroke-dasharray:none;stroke-dashoffset:0;stroke-opacity:1"
           inkscape:connector-curvature="0"
           d="m 428.91731,312.78544 v -0.0106 l -0.0106,-0.0213 v -0.0213 -0.0106 -0.0213 l -0.0106,-0.0213 v -0.0213 l -0.0106,-0.0213 v -0.0213 l -0.0106,-0.0213 -0.0106,-0.0213 -0.0106,-0.0106 -0.0106,-0.0213 -0.0106,-0.0213 -0.0106,-0.0213 -0.0106,-0.0213 -0.0213,-0.0106 -0.0106,-0.0213 -0.0213,-0.0213 -0.0106,-0.0106 -0.0213,-0.0213 -0.0213,-0.0106 -0.0213,-0.0106 -0.0213,-0.0106 -0.0213,-0.0106 -0.0319,-0.0106 -0.0213,-0.0106 -0.0319,-0.0106 h -0.0106 -0.0213 -0.0106 l -0.0213,-0.0106 h -0.0106 -0.0213 -0.0106 -0.0213 c -0.26574,0 -0.32952,0.085 -0.65905,0.44646 l -2.71063,2.85945 c -0.32953,-0.44646 -2.41299,-3.30591 -6.9626,-3.30591 -9.00354,0 -17.81575,7.97245 -17.81575,16.34882 0,5.72953 4.3689,10.43859 11.46969,10.43859 3.27401,0 6.71811,-0.86103 8.64212,-2.93386 0.36142,0.80787 1.38189,2.15787 1.80709,2.15787 0.34016,0 0.41457,-0.14882 0.60591,-0.93543 l 0.69094,-2.84882 c 0.18071,-0.66969 0.7122,-2.89134 0.8185,-3.32717 0.44646,-1.67952 0.47835,-1.71141 2.66811,-1.7433 0.26575,0 0.81851,0 0.81851,-0.77599 0,-0.37204 -0.26575,-0.55275 -0.55276,-0.55275 -1.22244,0 -2.78504,0.13819 -4.08189,0.13819 -0.91417,0 -2.14724,0 -3.07204,-0.0319 -0.93544,-0.0425 -1.99843,-0.1063 -2.92323,-0.1063 -0.26575,0 -0.81851,0 -0.81851,0.8185 0,0.51024 0.40394,0.51024 1.32874,0.51024 0.71221,0 1.44567,0 2.16851,0.0638 1.16929,0.11693 1.20118,0.26574 1.20118,0.72283 0,0.14882 0,0.2126 -0.24449,1.17992 -0.26575,1.02048 -0.68031,2.7 -0.82913,3.07205 -1.063,2.25354 -4.51772,3.25276 -7.40906,3.25276 -3.69921,0 -8.55709,-1.7752 -8.55709,-8.03622 0,-3.95434 1.86024,-8.91851 4.60276,-11.69292 3.82677,-3.79488 7.7811,-4.3689 9.85394,-4.3689 4.30512,0 6.80315,3.10394 6.80315,7.24961 0,1.0311 -0.0957,1.29685 -0.0957,1.52008 0,0.47835 0.47834,0.47835 0.65905,0.47835 0.60591,0 0.60591,-0.11693 0.78662,-0.81851 z"
           id="path4133" />
      </g>
    </g>
    <path
       sodipodi:nodetypes="cc"
       inkscape:connector-curvature="0"
       id="path4638"
       d="m 205.73472,464.95736 -39.47487,60.06568"
       style="fill:none;stroke:#bebebe;stroke-width:1;stroke-linecap:butt;stroke-linejoin:miter;stroke-miterlimit:4;stroke-dasharray:3, 1;stroke-dashoffset:0;stroke-opacity:1;marker-start:none;marker-end:url(#Arrow1Lend)" />
    <path
       sodipodi:nodetypes="cc"
       inkscape:connector-curvature="0"
       id="path4650"
       d="M 415.1665,525.02304 337.20959,380.89168"
       style="fill:none;stroke:#acacac;stroke-width:1;stroke-linecap:butt;stroke-linejoin:miter;stroke-miterlimit:4;stroke-dasharray:2, 2;stroke-dashoffset:0;stroke-opacity:1;marker-end:url(#Arrow1Lend)" />
    <path
       sodipodi:nodetypes="cc"
       style="fill:none;stroke:#c4c4c4;stroke-width:1;stroke-linecap:butt;stroke-linejoin:miter;stroke-miterlimit:4;stroke-dasharray:2, 2;stroke-dashoffset:0;stroke-opacity:1;marker-end:url(#Arrow1Lend)"
       d="M 311.25589,520.68551 266.72159,461.7344"
       id="path4186"
       inkscape:connector-curvature="0" />
    <path
       style="fill:none;stroke:#bebebe;stroke-width:1;stroke-linecap:butt;stroke-linejoin:miter;stroke-miterlimit:4;stroke-dasharray:3, 1;stroke-dashoffset:0;stroke-opacity:1;marker-start:none;marker-end:url(#Arrow1Lend)"
       d="m 257.20959,380.89168 -39.47487,66.06568"
       id="path5945"
       inkscape:connector-curvature="0"
       sodipodi:nodetypes="cc" />
    <g
       transform="translate(2,28)"
       id="g5953">
      <circle
         style="fill:#ffffff;fill-opacity:1;stroke:#000000;stroke-width:1;stroke-miterlimit:4;stroke-dasharray:3, 1;stroke-dashoffset:0;stroke-opacity:1"
         id="path5951"
         cx="412.39478"
         cy="492.9902"
         r="9.3439112" />
      <text
         xml:space="preserve"
         style="font-style:normal;font-weight:normal;line-height:0%;font-family:sans-serif;letter-spacing:0px;word-spacing:0px;fill:#000000;fill-opacity:1;stroke:none"
         x="408.60669"
         y="497.78842"
         id="text5947"><tspan
           sodipodi:role="line"
           id="tspan5949"
           x="408.60669"
           y="497.78842"
           style="font-size:14px;line-height:1.25;font-family:sans-serif">1</tspan></text>
    </g>
    <g
       id="g5958"
       transform="translate(-154,-116)">
      <circle
         id="path5960"
         style="fill:#ffffff;fill-opacity:1;stroke:#000000;stroke-width:1;stroke-miterlimit:4;stroke-dasharray:3, 1;stroke-dashoffset:0;stroke-opacity:1"
         cx="412.39478"
         cy="492.9902"
         r="9.3439112" />
      <text
         id="text5962"
         y="497.78842"
         x="408.60669"
         style="font-style:normal;font-weight:normal;line-height:0%;font-family:sans-serif;letter-spacing:0px;word-spacing:0px;fill:#000000;fill-opacity:1;stroke:none"
         xml:space="preserve"><tspan
           style="font-size:14px;line-height:1.25;font-family:sans-serif"
           y="497.78842"
           x="408.60669"
           id="tspan5964"
           sodipodi:role="line">2</tspan></text>
    </g>
    <g
       transform="translate(-102,28)"
       id="g5966">
      <circle
         style="fill:#ffffff;fill-opacity:1;stroke:#000000;stroke-width:1;stroke-miterlimit:4;stroke-dasharray:3, 1;stroke-dashoffset:0;stroke-opacity:1"
         id="path5968"
         cx="412.39478"
         cy="492.9902"
         r="9.3439112" />
      <text
         xml:space="preserve"
         style="font-style:normal;font-weight:normal;line-height:0%;font-family:sans-serif;letter-spacing:0px;word-spacing:0px;fill:#000000;fill-opacity:1;stroke:none"
         x="408.60669"
         y="497.78842"
         id="text5970"><tspan
           sodipodi:role="line"
           id="tspan5972"
           x="408.60669"
           y="497.78842"
           style="font-size:14px;line-height:1.25;font-family:sans-serif">3</tspan></text>
    </g>
    <g
       id="g5974"
       transform="translate(-204,-30)">
      <circle
         id="path5976"
         style="fill:#ffffff;fill-opacity:1;stroke:#000000;stroke-width:1;stroke-miterlimit:4;stroke-dasharray:3, 1;stroke-dashoffset:0;stroke-opacity:1"
         cx="412.39478"
         cy="492.9902"
         r="9.3439112" />
      <text
         id="text5978"
         y="497.78842"
         x="408.60669"
         style="font-style:normal;font-weight:normal;line-height:0%;font-family:sans-serif;letter-spacing:0px;word-spacing:0px;fill:#000000;fill-opacity:1;stroke:none"
         xml:space="preserve"><tspan
           style="font-size:14px;line-height:1.25;font-family:sans-serif"
           y="497.78842"
           x="408.60669"
           id="tspan5980"
           sodipodi:role="line">4</tspan></text>
    </g>
    <text
       id="text6039"
       y="558.62415"
       x="189.41446"
       style="font-style:normal;font-weight:normal;line-height:0%;font-family:sans-serif;letter-spacing:0px;word-spacing:0px;fill:#000000;fill-opacity:1;stroke:none"
       xml:space="preserve"><tspan
         y="558.62415"
         x="189.41446"
         id="tspan6041"
         sodipodi:role="line"
         style="font-size:10px;line-height:1.25;font-family:sans-serif">(long)</tspan></text>
    <text
       xml:space="preserve"
       style="font-style:normal;font-weight:normal;line-height:0%;font-family:sans-serif;letter-spacing:0px;word-spacing:0px;fill:#000000;fill-opacity:1;stroke:none"
       x="265.41446"
       y="558.62415"
       id="text6043"><tspan
         sodipodi:role="line"
         id="tspan6045"
         x="265.41446"
         y="558.62415"
         style="font-size:10px;line-height:1.25;font-family:sans-serif">(short)</tspan></text>
    <text
       id="text6047"
       y="558.62415"
       x="365.41446"
       style="font-style:normal;font-weight:normal;line-height:0%;font-family:sans-serif;letter-spacing:0px;word-spacing:0px;fill:#000000;fill-opacity:1;stroke:none"
       xml:space="preserve"><tspan
         y="558.62415"
         x="365.41446"
         id="tspan6049"
         sodipodi:role="line"
         style="font-size:10px;line-height:1.25;font-family:sans-serif">(short)</tspan></text>
    <g
       id="g6235"
       transform="translate(104.28571,451.42857)">
      <g
         word-spacing="normal"
         letter-spacing="normal"
         font-size-adjust="none"
         font-stretch="normal"
         font-weight="normal"
         font-variant="normal"
         font-style="normal"
         stroke-miterlimit="10.433"
         xml:space="preserve"
         transform="matrix(0.28687973,0,0,-0.28687973,-50.203952,206.12857)"
         id="g6237"
         style="font-style:normal;font-variant:normal;font-weight:normal;font-stretch:normal;letter-spacing:normal;word-spacing:normal;text-anchor:start;fill:none;stroke:#000000;stroke-linecap:butt;stroke-linejoin:miter;stroke-miterlimit:10.433;stroke-dasharray:none;stroke-dashoffset:0;stroke-opacity:1"><path
           id="path6239"
           d="m 479.68,426.68 -4.18,9.91 c -0.15,0.41 -0.25,0.59 -0.25,0.64 0,0.31 0.85,1.25 2.94,1.45 0.5,0.05 1,0.1 1,0.96 0,0.59 -0.61,0.59 -0.75,0.59 -2.05,0 -4.19,-0.16 -6.28,-0.16 -1.25,0 -4.33,0.16 -5.58,0.16 -0.29,0 -0.9,0 -0.9,-1 0,-0.55 0.5,-0.55 1.15,-0.55 2.99,0 3.28,-0.5 3.74,-1.59 l 5.87,-13.91 -10.51,-11.31 -0.64,-0.55 c -2.44,-2.64 -4.79,-3.43 -7.33,-3.57 -0.64,-0.05 -1.1,-0.05 -1.1,-1 0,-0.05 0,-0.55 0.66,-0.55 1.48,0 3.12,0.16 4.67,0.16 1.85,0 3.8,-0.16 5.58,-0.16 0.31,0 0.91,0 0.91,1 0,0.5 -0.5,0.55 -0.6,0.55 -0.45,0.04 -2,0.14 -2,1.54 0,0.8 0.75,1.6 1.35,2.24 l 5.07,5.39 4.49,4.87 5.03,-11.9 c 0.2,-0.55 0.25,-0.6 0.25,-0.71 0,-0.39 -0.94,-1.23 -2.89,-1.43 -0.55,-0.05 -0.99,-0.11 -0.99,-0.96 0,-0.59 0.55,-0.59 0.74,-0.59 1.41,0 4.89,0.16 6.28,0.16 1.25,0 4.28,-0.16 5.53,-0.16 0.35,0 0.95,0 0.95,0.95 0,0.6 -0.5,0.6 -0.9,0.6 -3.33,0.04 -3.44,0.2 -4.28,2.18 -1.94,4.64 -5.28,12.41 -6.42,15.39 3.39,3.5 8.6,9.43 10.2,10.82 1.45,1.2 3.34,2.39 6.33,2.54 0.65,0.05 1.09,0.05 1.09,1 0,0.05 0,0.55 -0.64,0.55 -1.5,0 -3.14,-0.16 -4.69,-0.16 -1.84,0 -3.73,0.16 -5.53,0.16 -0.3,0 -0.94,0 -0.94,-1 0,-0.34 0.25,-0.5 0.6,-0.55 0.45,-0.04 2,-0.15 2,-1.54 0,-0.71 -0.55,-1.35 -0.96,-1.8 z"
           inkscape:connector-curvature="0"
           style="fill:#000000;stroke-width:0" /><path
           id="path6241"
           d="m 515.89,427.03 -0.02,-0.07 -0.02,-0.07 -0.01,-0.07 -0.02,-0.08 -0.02,-0.07 -0.02,-0.08 -0.04,-0.16 -0.04,-0.16 -0.04,-0.16 -0.04,-0.16 -0.02,-0.08 -0.02,-0.07 -0.02,-0.08 -0.02,-0.07 -0.01,-0.07 -0.02,-0.07 -0.02,-0.07 -0.01,-0.06 -0.01,-0.06 -0.02,-0.06 -0.01,-0.05 -0.01,-0.05 -0.01,-0.05 v -0.04 l -0.01,-0.03 v -0.03 l -0.01,-0.03 v -0.02 c 0,-0.76 0.63,-1.1 1.17,-1.1 0.65,0 1.19,0.45 1.36,0.76 0.19,0.31 0.46,1.42 0.64,2.16 0.18,0.65 0.55,2.26 0.77,3.14 0.2,0.76 0.41,1.53 0.59,2.33 0.38,1.5 0.38,1.56 1.08,2.65 1.11,1.71 2.86,3.69 5.56,3.69 1.96,0 2.07,-1.61 2.07,-2.44 0,-2.09 -1.5,-5.95 -2.07,-7.42 -0.37,-0.98 -0.51,-1.3 -0.51,-1.89 0,-1.84 1.53,-2.98 3.31,-2.98 3.48,0 5.02,4.79 5.02,5.32 0,0.46 -0.46,0.46 -0.57,0.46 -0.48,0 -0.51,-0.21 -0.65,-0.6 -0.8,-2.78 -2.3,-4.22 -3.69,-4.22 -0.73,0 -0.88,0.49 -0.88,1.22 0,0.8 0.18,1.25 0.8,2.83 0.42,1.08 1.85,4.77 1.85,6.72 0,0.56 0,2.03 -1.28,3.03 -0.6,0.45 -1.62,0.94 -3.25,0.94 -3.13,0 -5.05,-2.05 -6.16,-3.52 -0.28,2.97 -2.77,3.52 -4.53,3.52 -2.89,0 -4.85,-1.77 -5.89,-3.16 -0.25,2.39 -2.3,3.16 -3.74,3.16 -1.5,0 -2.29,-1.08 -2.75,-1.88 -0.76,-1.28 -1.25,-3.28 -1.25,-3.45 0,-0.45 0.49,-0.45 0.6,-0.45 0.48,0 0.51,0.11 0.76,1.04 0.52,2.07 1.19,3.77 2.55,3.77 0.9,0 1.14,-0.77 1.14,-1.7 0,-0.68 -0.31,-1.96 -0.56,-2.89 -0.24,-0.96 -0.58,-2.38 -0.77,-3.14 l -1.11,-4.47 c -0.14,-0.44 -0.34,-1.32 -0.34,-1.43 0,-0.76 0.62,-1.1 1.19,-1.1 0.62,0 1.17,0.45 1.35,0.76 0.18,0.31 0.46,1.42 0.63,2.16 0.17,0.65 0.55,2.26 0.77,3.14 0.2,0.76 0.42,1.53 0.59,2.33 0.37,1.43 0.45,1.7 1.45,3.14 0.99,1.39 2.63,3.2 5.24,3.2 2.01,0 2.04,-1.78 2.04,-2.44 0,-0.87 -0.09,-1.33 -0.59,-3.28 z"
           inkscape:connector-curvature="0"
           style="fill:#000000;stroke-width:0" /><path
           id="path6243"
           d="m 552.3,432.07 h 10.66 c 0.45,0 1.28,0 1.28,0.85 0,0.86 -0.8,0.86 -1.28,0.86 H 552.3 v 10.7 c 0,0.45 0,1.28 -0.84,1.28 -0.88,0 -0.88,-0.8 -0.88,-1.28 v -10.7 H 539.9 c -0.46,0 -1.3,0 -1.3,-0.83 0,-0.88 0.8,-0.88 1.3,-0.88 h 10.68 v -10.7 c 0,-0.45 0,-1.28 0.85,-1.28 0.87,0 0.87,0.8 0.87,1.28 z"
           inkscape:connector-curvature="0"
           style="fill:#000000;stroke-width:0" /><path
           id="path6245"
           d="m 584.35,430.54 h -1.19 c -0.09,-0.76 -0.45,-2.83 -0.9,-3.17 -0.27,-0.2 -2.96,-0.2 -3.44,-0.2 h -6.42 c 3.65,3.23 4.87,4.2 6.97,5.84 2.58,2.06 4.98,4.22 4.98,7.53 0,4.22 -3.69,6.8 -8.15,6.8 -4.32,0 -7.25,-3.03 -7.25,-6.23 0,-1.79 1.5,-1.96 1.85,-1.96 0.83,0 1.85,0.6 1.85,1.85 0,0.62 -0.25,1.84 -2.06,1.84 1.07,2.47 3.45,3.23 5.09,3.23 3.48,0 5.3,-2.7 5.3,-5.53 0,-3.03 -2.16,-5.43 -3.28,-6.68 l -8.4,-8.3 c -0.35,-0.31 -0.35,-0.39 -0.35,-1.36 h 14.35 z"
           inkscape:connector-curvature="0"
           style="fill:#000000;stroke-width:0" /><path
           id="path6247"
           d="m 590.7,428.98 0.03,-0.21 0.04,-0.22 0.05,-0.22 0.05,-0.22 0.05,-0.23 0.07,-0.22 0.06,-0.23 0.08,-0.22 0.08,-0.22 0.08,-0.22 0.1,-0.22 0.09,-0.21 0.11,-0.21 0.11,-0.21 0.12,-0.2 0.13,-0.19 0.14,-0.19 0.14,-0.18 0.15,-0.17 0.16,-0.16 0.17,-0.16 0.17,-0.14 0.19,-0.14 0.19,-0.12 0.21,-0.11 0.21,-0.1 0.22,-0.08 0.23,-0.07 0.25,-0.06 0.25,-0.04 0.26,-0.02 0.27,-0.01 c 1.11,0 2.36,0.45 3.63,1.26 0.59,0.35 2.41,1.63 2.41,2.05 0,0.2 -0.25,0.66 -0.57,0.66 -0.17,0 -0.25,0 -0.76,-0.52 -1.5,-1.33 -3.11,-2.47 -4.67,-2.47 -2.38,0 -2.38,4.08 -2.38,4.74 0,0.45 0,0.51 0.08,1.18 0.03,0.35 0.03,0.43 0.45,0.8 1.92,1.81 8.5,8.16 8.5,14.22 0,0.51 0,3.03 -2.3,3.03 l -0.03,-0.97 c 0.8,0 1.22,-0.56 1.22,-1.81 0,-0.42 0,-3.53 -3,-7.81 -1.78,-2.52 -3.7,-4.39 -4.53,-5.19 v 0 c 0.63,3.55 3.38,14.81 6.31,14.81 l 0.03,0.97 c -2.89,0 -5.23,-4.5 -5.78,-5.55 -1.54,-2.95 -2.34,-5.81 -2.72,-7.56 -0.53,-2.33 -0.53,-3.55 -0.53,-5.25 -0.23,-0.25 -2.22,-2.03 -2.57,-2.3 -0.55,-0.5 -0.6,-0.53 -0.6,-0.73 0,-0.25 0.31,-0.63 0.6,-0.63 0.25,0 1.18,0.86 1.43,1.11 z"
           inkscape:connector-curvature="0"
           style="fill:#000000;stroke-width:0" /></g>
    </g>
    <g
       id="g6411"
       transform="translate(188.57143,452)">
      <g
         id="g6413"
         transform="matrix(0.28687973,0,0,-0.28687973,-50.203952,206.12857)"
         xml:space="preserve"
         stroke-miterlimit="10.433"
         font-style="normal"
         font-variant="normal"
         font-weight="normal"
         font-stretch="normal"
         font-size-adjust="none"
         letter-spacing="normal"
         word-spacing="normal"
         style="font-style:normal;font-variant:normal;font-weight:normal;font-stretch:normal;letter-spacing:normal;word-spacing:normal;text-anchor:start;fill:none;stroke:#000000;stroke-linecap:butt;stroke-linejoin:miter;stroke-miterlimit:10.433;stroke-dasharray:none;stroke-dashoffset:0;stroke-opacity:1"><path
           d="m 485.27,434.54 0.69,0.71 c 1.5,1.5 3.14,3.18 6.53,3.43 0.55,0.05 1,0.05 1,0.96 0,0.39 -0.25,0.59 -0.66,0.59 -1.29,0 -2.73,-0.16 -4.08,-0.16 -1.64,0 -3.39,0.16 -4.98,0.16 -0.3,0 -0.95,0 -0.95,-0.95 0,-0.55 0.5,-0.6 0.75,-0.6 0.34,0 1.79,-0.09 1.79,-1.14 0,-0.86 -1.14,-2.14 -1.34,-2.39 l -11.56,-13.31 -5.49,14.8 c -0.29,0.7 -0.29,0.79 -0.29,0.84 0,1.2 2.43,1.2 2.93,1.2 0.71,0 1.21,0 1.21,1 0,0.55 -0.6,0.55 -0.75,0.55 -1.39,0 -4.88,-0.16 -6.28,-0.16 -1.24,0 -4.33,0.16 -5.58,0.16 -0.3,0 -0.94,0 -0.94,-1 0,-0.55 0.48,-0.55 1.14,-0.55 2.98,0 3.19,-0.45 3.64,-1.68 l 6.13,-16.41 c 0.04,-0.14 0.2,-0.69 0.2,-0.84 0,-0.14 -2,-8.18 -2.25,-9.07 -0.64,-2.73 -0.69,-2.89 -4.69,-2.93 -0.94,0 -1.34,0 -1.34,-1 0,-0.55 0.61,-0.55 0.7,-0.55 1.39,0 4.88,0.16 6.28,0.16 1.39,0 4.99,-0.16 6.38,-0.16 0.34,0 0.93,0 0.93,1 0,0.55 -0.43,0.55 -1.39,0.55 -0.09,0 -1.04,0 -1.89,0.09 -1.04,0.11 -1.34,0.2 -1.34,0.8 0,0.36 0.45,2.09 0.7,3.14 l 1.74,7.03 c 0.25,0.94 0.29,1.09 0.7,1.55 z"
           id="path6415"
           inkscape:connector-curvature="0"
           style="fill:#000000;stroke-width:0" /><path
           d="m 510.73,427.03 -0.02,-0.07 -0.02,-0.07 -0.01,-0.07 -0.02,-0.08 -0.02,-0.07 -0.02,-0.08 -0.04,-0.16 -0.04,-0.16 -0.04,-0.16 -0.04,-0.16 -0.02,-0.08 -0.02,-0.07 -0.02,-0.08 -0.02,-0.07 -0.01,-0.07 -0.02,-0.07 -0.02,-0.07 -0.01,-0.06 -0.01,-0.06 -0.02,-0.06 -0.01,-0.05 -0.01,-0.05 -0.01,-0.05 v -0.04 l -0.01,-0.03 v -0.03 l -0.01,-0.03 v -0.02 c 0,-0.76 0.63,-1.1 1.17,-1.1 0.64,0 1.19,0.45 1.36,0.76 0.19,0.31 0.46,1.42 0.64,2.16 0.18,0.65 0.55,2.26 0.77,3.14 0.2,0.76 0.41,1.53 0.59,2.33 0.38,1.5 0.38,1.56 1.08,2.65 1.11,1.71 2.86,3.69 5.56,3.69 1.96,0 2.07,-1.61 2.07,-2.44 0,-2.09 -1.5,-5.95 -2.07,-7.42 -0.37,-0.98 -0.51,-1.3 -0.51,-1.89 0,-1.84 1.53,-2.98 3.31,-2.98 3.49,0 5.02,4.79 5.02,5.32 0,0.46 -0.46,0.46 -0.57,0.46 -0.48,0 -0.51,-0.21 -0.65,-0.6 -0.8,-2.78 -2.3,-4.22 -3.69,-4.22 -0.73,0 -0.87,0.49 -0.87,1.22 0,0.8 0.17,1.25 0.79,2.83 0.42,1.08 1.85,4.77 1.85,6.72 0,0.56 0,2.03 -1.29,3.03 -0.59,0.45 -1.6,0.94 -3.25,0.94 -3.12,0 -5.04,-2.05 -6.15,-3.52 -0.28,2.97 -2.77,3.52 -4.53,3.52 -2.89,0 -4.85,-1.77 -5.89,-3.16 -0.25,2.39 -2.3,3.16 -3.74,3.16 -1.5,0 -2.29,-1.08 -2.75,-1.88 -0.76,-1.28 -1.25,-3.28 -1.25,-3.45 0,-0.45 0.49,-0.45 0.6,-0.45 0.48,0 0.51,0.11 0.76,1.04 0.52,2.07 1.19,3.77 2.55,3.77 0.9,0 1.14,-0.77 1.14,-1.7 0,-0.68 -0.31,-1.96 -0.56,-2.89 -0.24,-0.96 -0.58,-2.38 -0.77,-3.14 l -1.11,-4.47 c -0.14,-0.44 -0.34,-1.32 -0.34,-1.43 0,-0.76 0.62,-1.1 1.19,-1.1 0.62,0 1.17,0.45 1.35,0.76 0.18,0.31 0.46,1.42 0.63,2.16 0.17,0.65 0.55,2.26 0.77,3.14 0.2,0.76 0.42,1.53 0.59,2.33 0.37,1.43 0.45,1.7 1.45,3.14 0.99,1.39 2.63,3.2 5.24,3.2 2.01,0 2.04,-1.78 2.04,-2.44 0,-0.87 -0.09,-1.33 -0.59,-3.28 z"
           id="path6417"
           inkscape:connector-curvature="0"
           style="fill:#000000;stroke-width:0" /></g>
    </g>
    <g
       id="g6589"
       transform="translate(288.57143,454.28571)">
      <g
         word-spacing="normal"
         letter-spacing="normal"
         font-size-adjust="none"
         font-stretch="normal"
         font-weight="normal"
         font-variant="normal"
         font-style="normal"
         stroke-miterlimit="10.433"
         xml:space="preserve"
         transform="matrix(0.28687973,0,0,-0.28687973,-50.203952,206.12857)"
         id="g6591"
         style="font-style:normal;font-variant:normal;font-weight:normal;font-stretch:normal;letter-spacing:normal;word-spacing:normal;text-anchor:start;fill:none;stroke:#000000;stroke-linecap:butt;stroke-linejoin:miter;stroke-miterlimit:10.433;stroke-dasharray:none;stroke-dashoffset:0;stroke-opacity:1"><path
           id="path6593"
           d="m 491.39,439.03 0.01,0.04 0.01,0.04 0.01,0.04 0.02,0.04 0.01,0.04 0.01,0.05 0.01,0.04 0.01,0.05 0.01,0.04 0.01,0.05 0.01,0.05 0.01,0.05 0.01,0.05 v 0.06 0.05 0.03 l 0.01,0.03 c 0,0.45 -0.25,0.45 -1.24,0.45 h -21.03 c -1.19,0 -1.25,-0.05 -1.55,-1 l -2.73,-8.97 c -0.11,-0.25 -0.16,-0.59 -0.16,-0.7 0,-0.05 0,-0.55 0.61,-0.55 0.44,0 0.55,0.36 0.64,0.5 1.89,5.89 4.49,9.17 12.25,9.17 h 8.13 l -27.85,-31.14 c 0,-0.04 -0.2,-0.75 -0.2,-0.89 0,-0.45 0.34,-0.45 1.25,-0.45 h 21.67 c 1.19,0 1.24,0.05 1.55,1 l 3.53,11 c 0.05,0.2 0.2,0.56 0.2,0.75 0,0.25 -0.2,0.55 -0.65,0.55 -0.44,0 -0.5,-0.19 -0.85,-1.24 -2.18,-6.78 -4.57,-10.37 -13.04,-10.37 h -8.53 z"
           inkscape:connector-curvature="0"
           style="fill:#000000;stroke-width:0" /><path
           id="path6595"
           d="m 508.2,427.03 -0.01,-0.07 -0.02,-0.07 -0.02,-0.07 -0.02,-0.08 -0.02,-0.07 -0.02,-0.08 -0.04,-0.16 -0.04,-0.16 -0.04,-0.16 -0.04,-0.16 -0.01,-0.08 -0.02,-0.07 -0.02,-0.08 -0.02,-0.07 -0.02,-0.07 -0.01,-0.07 -0.02,-0.07 -0.01,-0.06 -0.02,-0.06 -0.01,-0.06 -0.01,-0.05 -0.01,-0.05 -0.01,-0.05 -0.01,-0.04 v -0.03 l -0.01,-0.03 v -0.03 -0.02 c 0,-0.76 0.62,-1.1 1.17,-1.1 0.64,0 1.19,0.45 1.36,0.76 0.19,0.31 0.45,1.42 0.64,2.16 0.17,0.65 0.55,2.26 0.77,3.14 0.2,0.76 0.4,1.53 0.59,2.33 0.37,1.5 0.37,1.56 1.08,2.65 1.11,1.71 2.86,3.69 5.56,3.69 1.95,0 2.06,-1.61 2.06,-2.44 0,-2.09 -1.5,-5.95 -2.06,-7.42 -0.37,-0.98 -0.51,-1.3 -0.51,-1.89 0,-1.84 1.53,-2.98 3.31,-2.98 3.48,0 5.01,4.79 5.01,5.32 0,0.46 -0.45,0.46 -0.56,0.46 -0.48,0 -0.52,-0.21 -0.66,-0.6 -0.79,-2.78 -2.29,-4.22 -3.68,-4.22 -0.74,0 -0.88,0.49 -0.88,1.22 0,0.8 0.17,1.25 0.8,2.83 0.42,1.08 1.84,4.77 1.84,6.72 0,0.56 0,2.03 -1.28,3.03 -0.59,0.45 -1.61,0.94 -3.25,0.94 -3.12,0 -5.05,-2.05 -6.15,-3.52 -0.29,2.97 -2.77,3.52 -4.54,3.52 -2.89,0 -4.84,-1.77 -5.89,-3.16 -0.25,2.39 -2.29,3.16 -3.73,3.16 -1.5,0 -2.3,-1.08 -2.75,-1.88 -0.77,-1.28 -1.25,-3.28 -1.25,-3.45 0,-0.45 0.48,-0.45 0.59,-0.45 0.49,0 0.52,0.11 0.77,1.04 0.51,2.07 1.19,3.77 2.54,3.77 0.91,0 1.15,-0.77 1.15,-1.7 0,-0.68 -0.32,-1.96 -0.57,-2.89 -0.23,-0.96 -0.58,-2.38 -0.76,-3.14 l -1.11,-4.47 c -0.14,-0.44 -0.35,-1.32 -0.35,-1.43 0,-0.76 0.63,-1.1 1.19,-1.1 0.63,0 1.17,0.45 1.36,0.76 0.17,0.31 0.45,1.42 0.63,2.16 0.17,0.65 0.54,2.26 0.76,3.14 0.2,0.76 0.42,1.53 0.6,2.33 0.37,1.43 0.45,1.7 1.45,3.14 0.98,1.39 2.62,3.2 5.23,3.2 2.02,0 2.05,-1.78 2.05,-2.44 0,-0.87 -0.09,-1.33 -0.59,-3.28 z"
           inkscape:connector-curvature="0"
           style="fill:#000000;stroke-width:0" /></g>
    </g>
    <g
       id="use9517"
       style="fill:#000000;fill-opacity:1"
       transform="matrix(2.092634,0,0,2.092634,388.91304,453.74964)">
      <path
         style="stroke:none"
         d="M 6.328125,-5.765625 C 6.4375,-6.171875 6.609375,-6.46875 7.40625,-6.5 c 0.046875,0 0.171875,-0.015625 0.171875,-0.203125 0,0 0,-0.109375 -0.125,-0.109375 -0.328125,0 -0.6875,0.03125 -1.015625,0.03125 -0.34375,0 -0.71875,-0.03125 -1.046875,-0.03125 -0.0625,0 -0.171875,0 -0.171875,0.203125 C 5.21875,-6.5 5.3125,-6.5 5.390625,-6.5 c 0.578125,0.015625 0.6875,0.21875 0.6875,0.4375 0,0.03125 -0.03125,0.1875 -0.03125,0.203125 l -0.90625,3.5625 C 4.8125,-0.953125 3.65625,-0.09375 2.65625,-0.09375 c -0.671875,0 -1.203125,-0.4375 -1.203125,-1.296875 0,-0.015625 0,-0.328125 0.109375,-0.765625 L 2.515625,-6.046875 C 2.609375,-6.40625 2.625,-6.5 3.359375,-6.5 c 0.265625,0 0.34375,0 0.34375,-0.203125 0,-0.109375 -0.109375,-0.109375 -0.140625,-0.109375 -0.28125,0 -1,0.03125 -1.28125,0.03125 -0.28125,0 -1,-0.03125 -1.28125,-0.03125 -0.078125,0 -0.1875,0 -0.1875,0.203125 C 0.8125,-6.5 0.890625,-6.5 1.09375,-6.5 c 0.015625,0 0.203125,0 0.375,0.015625 0.171875,0.03125 0.265625,0.03125 0.265625,0.171875 0,0.046875 -0.109375,0.46875 -0.171875,0.703125 l -0.21875,0.875 C 1.25,-4.34375 0.78125,-2.46875 0.734375,-2.265625 0.671875,-2 0.671875,-1.84375 0.671875,-1.6875 c 0,1.203125 0.90625,1.90625 1.953125,1.90625 1.25,0 2.484375,-1.125 2.8125,-2.4375 z m 0,0"
         id="path17102" />
    </g>
    <g
       id="g17132"
       style="fill:#000000;fill-opacity:1"
       transform="matrix(2.092634,0,0,2.092634,307.94931,503.16191)">
      <path
         style="stroke:none"
         d="M 6.328125,-5.765625 C 6.4375,-6.171875 6.609375,-6.46875 7.40625,-6.5 c 0.046875,0 0.171875,-0.015625 0.171875,-0.203125 0,0 0,-0.109375 -0.125,-0.109375 -0.328125,0 -0.6875,0.03125 -1.015625,0.03125 -0.34375,0 -0.71875,-0.03125 -1.046875,-0.03125 -0.0625,0 -0.171875,0 -0.171875,0.203125 C 5.21875,-6.5 5.3125,-6.5 5.390625,-6.5 c 0.578125,0.015625 0.6875,0.21875 0.6875,0.4375 0,0.03125 -0.03125,0.1875 -0.03125,0.203125 l -0.90625,3.5625 C 4.8125,-0.953125 3.65625,-0.09375 2.65625,-0.09375 c -0.671875,0 -1.203125,-0.4375 -1.203125,-1.296875 0,-0.015625 0,-0.328125 0.109375,-0.765625 L 2.515625,-6.046875 C 2.609375,-6.40625 2.625,-6.5 3.359375,-6.5 c 0.265625,0 0.34375,0 0.34375,-0.203125 0,-0.109375 -0.109375,-0.109375 -0.140625,-0.109375 -0.28125,0 -1,0.03125 -1.28125,0.03125 -0.28125,0 -1,-0.03125 -1.28125,-0.03125 -0.078125,0 -0.1875,0 -0.1875,0.203125 C 0.8125,-6.5 0.890625,-6.5 1.09375,-6.5 c 0.015625,0 0.203125,0 0.375,0.015625 0.171875,0.03125 0.265625,0.03125 0.265625,0.171875 0,0.046875 -0.109375,0.46875 -0.171875,0.703125 l -0.21875,0.875 C 1.25,-4.34375 0.78125,-2.46875 0.734375,-2.265625 0.671875,-2 0.671875,-1.84375 0.671875,-1.6875 c 0,1.203125 0.90625,1.90625 1.953125,1.90625 1.25,0 2.484375,-1.125 2.8125,-2.4375 z m 0,0"
         id="path17130" />
    </g>
  </g>
</svg>
